<?xml version="1.0" encoding="UTF-8" standalone="no"?><svg xmlns="http://www.w3.org/2000/svg" xmlns:xlink="http://www.w3.org/1999/xlink" contentScriptType="application/ecmascript" contentStyleType="text/css" height="141px" preserveAspectRatio="none" style="width:172px;height:141px;" version="1.1" viewBox="0 0 172 141" width="172px" zoomAndPan="magnify"><defs><filter height="300%" id="fsos0f4" width="300%" x="-1" y="-1"><feGaussianBlur result="blurOut" stdDeviation="2.0"/><feColorMatrix in="blurOut" result="blurOut2" type="matrix" values="0 0 0 0 0 0 0 0 0 0 0 0 0 0 0 0 0 0 .4 0"/><feOffset dx="4.0" dy="4.0" in="blurOut2" result="blurOut3"/><feBlend in="SourceGraphic" in2="blurOut3" mode="normal"/></filter></defs><g><ellipse cx="87.5" cy="20" fill="#000000" filter="url(#fsos0f4)" rx="10" ry="10" style="stroke: none; stroke-width: 1.0;"/><ellipse cx="87.5" cy="104" fill="#FFFFFF" filter="url(#fsos0f4)" rx="10" ry="10" style="stroke: #000000; stroke-width: 1.5;"/><line style="stroke: #000000; stroke-width: 2.5;" x1="81.3128" x2="93.6872" y1="97.8128" y2="110.1872"/><line style="stroke: #000000; stroke-width: 2.5;" x1="93.6872" x2="81.3128" y1="97.8128" y2="110.1872"/><polygon fill="#FEFECE" filter="url(#fsos0f4)" points="32,50,143,50,155,62,143,74,32,74,20,62,32,50" style="stroke: #A80036; stroke-width: 1.5;"/><text fill="#000000" font-family="sans-serif" font-size="11" lengthAdjust="spacingAndGlyphs" textLength="111" x="32" y="66.501">has required blueprints</text><line style="stroke: #A80036; stroke-width: 1.5;" x1="87.5" x2="87.5" y1="74" y2="94"/><polygon fill="#A80036" points="83.5,84,87.5,94,91.5,84,87.5,88" style="stroke: #A80036; stroke-width: 1.0;"/><line style="stroke: #A80036; stroke-width: 1.5;" x1="155" x2="167" y1="62" y2="62"/><polygon fill="#A80036" points="163,91,167,101,171,91,167,95" style="stroke: #A80036; stroke-width: 1.5;"/><line style="stroke: #A80036; stroke-width: 1.5;" x1="167" x2="167" y1="62" y2="136"/><line style="stroke: #A80036; stroke-width: 1.5;" x1="167" x2="87.5" y1="136" y2="136"/><polygon fill="#A80036" points="97.5,132,87.5,136,97.5,140,93.5,136" style="stroke: #A80036; stroke-width: 1.0;"/><line style="stroke: #A80036; stroke-width: 1.5;" x1="87.5" x2="87.5" y1="30" y2="50"/><polygon fill="#A80036" points="83.5,40,87.5,50,91.5,40,87.5,44" style="stroke: #A80036; stroke-width: 1.0;"/></g></svg>