<?xml version="1.0" encoding="UTF-8" standalone="no"?><svg xmlns="http://www.w3.org/2000/svg" xmlns:xlink="http://www.w3.org/1999/xlink" contentScriptType="application/ecmascript" contentStyleType="text/css" height="469px" preserveAspectRatio="none" style="width:1360px;height:469px;" version="1.1" viewBox="0 0 1360 469" width="1360px" zoomAndPan="magnify"><defs><filter height="300%" id="ftbvz0v" width="300%" x="-1" y="-1"><feGaussianBlur result="blurOut" stdDeviation="2.0"/><feColorMatrix in="blurOut" result="blurOut2" type="matrix" values="0 0 0 0 0 0 0 0 0 0 0 0 0 0 0 0 0 0 .4 0"/><feOffset dx="4.0" dy="4.0" in="blurOut2" result="blurOut3"/><feBlend in="SourceGraphic" in2="blurOut3" mode="normal"/></filter></defs><g><!--cluster com.zions.pipeline.services.yaml.execution--><polygon fill="#FFFFFF" filter="url(#ftbvz0v)" points="194,24,505,24,512,47.6094,515,47.6094,515,114,194,114,194,24" style="stroke: #000000; stroke-width: 2.0;"/><line style="stroke: #000000; stroke-width: 2.0;" x1="194" x2="512" y1="47.6094" y2="47.6094"/><text fill="#000000" font-family="sans-serif" font-size="14" font-weight="bold" lengthAdjust="spacingAndGlyphs" textLength="305" x="198" y="40.5332">com.zions.pipeline.services.yaml.execution</text><!--cluster com.zions.vsts.services.admin.project--><polygon fill="#FFFFFF" filter="url(#ftbvz0v)" points="22,164,297,164,304,187.6094,307,187.6094,307,254,22,254,22,164" style="stroke: #000000; stroke-width: 2.0;"/><line style="stroke: #000000; stroke-width: 2.0;" x1="22" x2="304" y1="187.6094" y2="187.6094"/><text fill="#000000" font-family="sans-serif" font-size="14" font-weight="bold" lengthAdjust="spacingAndGlyphs" textLength="269" x="26" y="180.5332">com.zions.vsts.services.admin.project</text><!--cluster com.zions.pipeline.services.git--><polygon fill="#FFFFFF" filter="url(#ftbvz0v)" points="331,164,555,164,562,187.6094,565,187.6094,565,254,331,254,331,164" style="stroke: #000000; stroke-width: 2.0;"/><line style="stroke: #000000; stroke-width: 2.0;" x1="331" x2="562" y1="187.6094" y2="187.6094"/><text fill="#000000" font-family="sans-serif" font-size="14" font-weight="bold" lengthAdjust="spacingAndGlyphs" textLength="218" x="335" y="180.5332">com.zions.pipeline.services.git</text><!--cluster com.zions.pipeline.services.yaml.template.execution--><polygon fill="#FFFFFF" filter="url(#ftbvz0v)" points="592,24,968,24,975,47.6094,1127,47.6094,1127,438,592,438,592,24" style="stroke: #000000; stroke-width: 2.0;"/><line style="stroke: #000000; stroke-width: 2.0;" x1="592" x2="975" y1="47.6094" y2="47.6094"/><text fill="#000000" font-family="sans-serif" font-size="14" font-weight="bold" lengthAdjust="spacingAndGlyphs" textLength="370" x="596" y="40.5332">com.zions.pipeline.services.yaml.template.execution</text><!--cluster GIT Repository--><rect fill="#FFFFFF" filter="url(#ftbvz0v)" height="158" rx="35" ry="35" style="stroke: #000000; stroke-width: 2.0;" width="202" x="1151" y="304"/><text fill="#000000" font-family="sans-serif" font-size="14" font-weight="bold" lengthAdjust="spacingAndGlyphs" textLength="103" x="1200.5" y="325.5332">GIT Repository</text><!--cluster pipeline--><polygon fill="#FFFFFF" filter="url(#ftbvz0v)" points="1175,348,1238,348,1245,371.6094,1329,371.6094,1329,438,1175,438,1175,348" style="stroke: #000000; stroke-width: 2.0;"/><line style="stroke: #000000; stroke-width: 2.0;" x1="1175" x2="1245" y1="371.6094" y2="371.6094"/><text fill="#000000" font-family="sans-serif" font-size="14" font-weight="bold" lengthAdjust="spacingAndGlyphs" textLength="57" x="1179" y="364.5332">pipeline</text><!--entity YES--><rect fill="#FEFECE" filter="url(#ftbvz0v)" height="37.6094" style="stroke: #A80036; stroke-width: 1.5;" width="159" x="306.5" y="60"/><rect fill="#FEFECE" height="5" style="stroke: #A80036; stroke-width: 1.5;" width="10" x="301.5" y="65"/><rect fill="#FEFECE" height="5" style="stroke: #A80036; stroke-width: 1.5;" width="10" x="301.5" y="87.6094"/><a target="_top" xlink:actuate="onRequest" xlink:href="https://dev.azure.com/zionseto/DTS/_git/zions-service-framework?path=%2Fzions-pipeline-services%2Fsrc%2Fmain%2Fgroovy%2Fcom%2Fzions%2Fpipeline%2Fservices%2Fyaml%2Fexecution%2FYamlExecutionService.groovy" xlink:show="new" xlink:title="https://dev.azure.com/zionseto/DTS/_git/zions-service-framework?path=%2Fzions-pipeline-services%2Fsrc%2Fmain%2Fgroovy%2Fcom%2Fzions%2Fpipeline%2Fservices%2Fyaml%2Fexecution%2FYamlExecutionService.groovy" xlink:type="simple"><text fill="#0000FF" font-family="sans-serif" font-size="14" lengthAdjust="spacingAndGlyphs" text-decoration="underline" textLength="139" x="316.5" y="84.5332">YamlExecutionService</text><line style="stroke: #0000FF; stroke-width: 1.0;" x1="316.5" x2="455.5" y1="86.5332" y2="86.5332"/></a><!--entity PMS--><rect fill="#FEFECE" filter="url(#ftbvz0v)" height="37.6094" style="stroke: #A80036; stroke-width: 1.5;" width="193" x="97.5" y="200"/><rect fill="#FEFECE" height="5" style="stroke: #A80036; stroke-width: 1.5;" width="10" x="92.5" y="205"/><rect fill="#FEFECE" height="5" style="stroke: #A80036; stroke-width: 1.5;" width="10" x="92.5" y="227.6094"/><text fill="#000000" font-family="sans-serif" font-size="14" lengthAdjust="spacingAndGlyphs" textLength="173" x="107.5" y="224.5332">ProjectManagementService</text><!--entity GS--><rect fill="#FEFECE" filter="url(#ftbvz0v)" height="37.6094" style="stroke: #A80036; stroke-width: 1.5;" width="85" x="347.5" y="200"/><rect fill="#FEFECE" height="5" style="stroke: #A80036; stroke-width: 1.5;" width="10" x="342.5" y="205"/><rect fill="#FEFECE" height="5" style="stroke: #A80036; stroke-width: 1.5;" width="10" x="342.5" y="227.6094"/><text fill="#000000" font-family="sans-serif" font-size="14" lengthAdjust="spacingAndGlyphs" textLength="65" x="357.5" y="224.5332">GitService</text><!--entity IExecutableYamlHandler--><ellipse cx="876" cy="210" fill="#FEFECE" filter="url(#ftbvz0v)" rx="8" ry="8" style="stroke: #A80036; stroke-width: 2.0;"/><text fill="#000000" font-family="sans-serif" font-size="14" lengthAdjust="spacingAndGlyphs" textLength="152" x="800" y="233.5332">IExecutableYamlHandler</text><!--entity BP--><rect fill="#FEFECE" filter="url(#ftbvz0v)" height="37.6094" style="stroke: #A80036; stroke-width: 1.5;" width="102" x="1009" y="60"/><rect fill="#FEFECE" height="5" style="stroke: #A80036; stroke-width: 1.5;" width="10" x="1004" y="65"/><rect fill="#FEFECE" height="5" style="stroke: #A80036; stroke-width: 1.5;" width="10" x="1004" y="87.6094"/><a target="_top" xlink:actuate="onRequest" xlink:href="https://dev.azure.com/zionseto/DTS/_git/zions-service-framework?path=%2Fzions-pipeline-services%2Fsrc%2Fmain%2Fgroovy%2Fcom%2Fzions%2Fpipeline%2Fservices%2Fyaml%2Ftemplate%2Fexecution%2FBranchPolicy.groovy" xlink:show="new" xlink:title="https://dev.azure.com/zionseto/DTS/_git/zions-service-framework?path=%2Fzions-pipeline-services%2Fsrc%2Fmain%2Fgroovy%2Fcom%2Fzions%2Fpipeline%2Fservices%2Fyaml%2Ftemplate%2Fexecution%2FBranchPolicy.groovy" xlink:type="simple"><text fill="#0000FF" font-family="sans-serif" font-size="14" lengthAdjust="spacingAndGlyphs" text-decoration="underline" textLength="82" x="1019" y="84.5332">BranchPolicy</text><line style="stroke: #0000FF; stroke-width: 1.0;" x1="1019" x2="1101" y1="86.5332" y2="86.5332"/></a><!--entity BD--><rect fill="#FEFECE" filter="url(#ftbvz0v)" height="37.6094" style="stroke: #A80036; stroke-width: 1.5;" width="110" x="864" y="60"/><rect fill="#FEFECE" height="5" style="stroke: #A80036; stroke-width: 1.5;" width="10" x="859" y="65"/><rect fill="#FEFECE" height="5" style="stroke: #A80036; stroke-width: 1.5;" width="10" x="859" y="87.6094"/><a target="_top" xlink:actuate="onRequest" xlink:href="https://dev.azure.com/zionseto/DTS/_git/zions-service-framework?path=%2Fzions-pipeline-services%2Fsrc%2Fmain%2Fgroovy%2Fcom%2Fzions%2Fpipeline%2Fservices%2Fyaml%2Ftemplate%2Fexecution%2FBuildDefinition.groovy" xlink:show="new" xlink:title="https://dev.azure.com/zionseto/DTS/_git/zions-service-framework?path=%2Fzions-pipeline-services%2Fsrc%2Fmain%2Fgroovy%2Fcom%2Fzions%2Fpipeline%2Fservices%2Fyaml%2Ftemplate%2Fexecution%2FBuildDefinition.groovy" xlink:type="simple"><text fill="#0000FF" font-family="sans-serif" font-size="14" lengthAdjust="spacingAndGlyphs" text-decoration="underline" textLength="90" x="874" y="84.5332">BuildDefinition</text><line style="stroke: #0000FF; stroke-width: 1.0;" x1="874" x2="964" y1="86.5332" y2="86.5332"/></a><!--entity GR--><rect fill="#FEFECE" filter="url(#ftbvz0v)" height="37.6094" style="stroke: #A80036; stroke-width: 1.5;" width="106" x="723" y="60"/><rect fill="#FEFECE" height="5" style="stroke: #A80036; stroke-width: 1.5;" width="10" x="718" y="65"/><rect fill="#FEFECE" height="5" style="stroke: #A80036; stroke-width: 1.5;" width="10" x="718" y="87.6094"/><a target="_top" xlink:actuate="onRequest" xlink:href="https://dev.azure.com/zionseto/DTS/_git/zions-service-framework?path=%2Fzions-pipeline-services%2Fsrc%2Fmain%2Fgroovy%2Fcom%2Fzions%2Fpipeline%2Fservices%2Fyaml%2Ftemplate%2Fexecution%2FGitRepository.groovy" xlink:show="new" xlink:title="https://dev.azure.com/zionseto/DTS/_git/zions-service-framework?path=%2Fzions-pipeline-services%2Fsrc%2Fmain%2Fgroovy%2Fcom%2Fzions%2Fpipeline%2Fservices%2Fyaml%2Ftemplate%2Fexecution%2FGitRepository.groovy" xlink:type="simple"><text fill="#0000FF" font-family="sans-serif" font-size="14" lengthAdjust="spacingAndGlyphs" text-decoration="underline" textLength="86" x="733" y="84.5332">GitRepository</text><line style="stroke: #0000FF; stroke-width: 1.0;" x1="733" x2="819" y1="86.5332" y2="86.5332"/></a><!--entity RXLB--><rect fill="#FEFECE" filter="url(#ftbvz0v)" height="37.6094" style="stroke: #A80036; stroke-width: 1.5;" width="125" x="625.5" y="384"/><rect fill="#FEFECE" height="5" style="stroke: #A80036; stroke-width: 1.5;" width="10" x="620.5" y="389"/><rect fill="#FEFECE" height="5" style="stroke: #A80036; stroke-width: 1.5;" width="10" x="620.5" y="411.6094"/><a target="_top" xlink:actuate="onRequest" xlink:href="https://dev.azure.com/zionseto/DTS/_git/zions-service-framework?path=%2Fzions-pipeline-services%2Fsrc%2Fmain%2Fgroovy%2Fcom%2Fzions%2Fpipeline%2Fservices%2Fyaml%2Ftemplate%2Fexecution%2FRunXLBlueprints.groovy" xlink:show="new" xlink:title="https://dev.azure.com/zionseto/DTS/_git/zions-service-framework?path=%2Fzions-pipeline-services%2Fsrc%2Fmain%2Fgroovy%2Fcom%2Fzions%2Fpipeline%2Fservices%2Fyaml%2Ftemplate%2Fexecution%2FRunXLBlueprints.groovy" xlink:type="simple"><text fill="#0000FF" font-family="sans-serif" font-size="14" lengthAdjust="spacingAndGlyphs" text-decoration="underline" textLength="105" x="635.5" y="408.5332">RunXLBlueprints</text><line style="stroke: #0000FF; stroke-width: 1.0;" x1="635.5" x2="740.5" y1="410.5332" y2="410.5332"/></a><!--entity RXLDA--><rect fill="#FEFECE" filter="url(#ftbvz0v)" height="37.6094" style="stroke: #A80036; stroke-width: 1.5;" width="141" x="785.5" y="384"/><rect fill="#FEFECE" height="5" style="stroke: #A80036; stroke-width: 1.5;" width="10" x="780.5" y="389"/><rect fill="#FEFECE" height="5" style="stroke: #A80036; stroke-width: 1.5;" width="10" x="780.5" y="411.6094"/><a target="_top" xlink:actuate="onRequest" xlink:href="https://dev.azure.com/zionseto/DTS/_git/zions-service-framework?path=%2Fzions-pipeline-services%2Fsrc%2Fmain%2Fgroovy%2Fcom%2Fzions%2Fpipeline%2Fservices%2Fyaml%2Ftemplate%2Fexecution%2FRunXLDeployApply.groovy" xlink:show="new" xlink:title="https://dev.azure.com/zionseto/DTS/_git/zions-service-framework?path=%2Fzions-pipeline-services%2Fsrc%2Fmain%2Fgroovy%2Fcom%2Fzions%2Fpipeline%2Fservices%2Fyaml%2Ftemplate%2Fexecution%2FRunXLDeployApply.groovy" xlink:type="simple"><text fill="#0000FF" font-family="sans-serif" font-size="14" lengthAdjust="spacingAndGlyphs" text-decoration="underline" textLength="121" x="795.5" y="408.5332">RunXLDeployApply</text><line style="stroke: #0000FF; stroke-width: 1.0;" x1="795.5" x2="916.5" y1="410.5332" y2="410.5332"/></a><!--entity RXLRA--><rect fill="#FEFECE" filter="url(#ftbvz0v)" height="37.6094" style="stroke: #A80036; stroke-width: 1.5;" width="149" x="961.5" y="384"/><rect fill="#FEFECE" height="5" style="stroke: #A80036; stroke-width: 1.5;" width="10" x="956.5" y="389"/><rect fill="#FEFECE" height="5" style="stroke: #A80036; stroke-width: 1.5;" width="10" x="956.5" y="411.6094"/><a target="_top" xlink:actuate="onRequest" xlink:href="https://dev.azure.com/zionseto/DTS/_git/zions-service-framework?path=%2Fzions-pipeline-services%2Fsrc%2Fmain%2Fgroovy%2Fcom%2Fzions%2Fpipeline%2Fservices%2Fyaml%2Ftemplate%2Fexecution%2FRunXLReleaseApply.groovy" xlink:show="new" xlink:title="https://dev.azure.com/zionseto/DTS/_git/zions-service-framework?path=%2Fzions-pipeline-services%2Fsrc%2Fmain%2Fgroovy%2Fcom%2Fzions%2Fpipeline%2Fservices%2Fyaml%2Ftemplate%2Fexecution%2FRunXLReleaseApply.groovy" xlink:type="simple"><text fill="#0000FF" font-family="sans-serif" font-size="14" lengthAdjust="spacingAndGlyphs" text-decoration="underline" textLength="129" x="971.5" y="408.5332">RunXLReleaseApply</text><line style="stroke: #0000FF; stroke-width: 1.0;" x1="971.5" x2="1100.5" y1="410.5332" y2="410.5332"/></a><!--entity WI--><rect fill="#FEFECE" filter="url(#ftbvz0v)" height="37.6094" style="stroke: #A80036; stroke-width: 1.5;" width="79" x="608.5" y="60"/><rect fill="#FEFECE" height="5" style="stroke: #A80036; stroke-width: 1.5;" width="10" x="603.5" y="65"/><rect fill="#FEFECE" height="5" style="stroke: #A80036; stroke-width: 1.5;" width="10" x="603.5" y="87.6094"/><a target="_top" xlink:actuate="onRequest" xlink:href="https://dev.azure.com/zionseto/DTS/_git/zions-service-framework?path=%2Fzions-pipeline-services%2Fsrc%2Fmain%2Fgroovy%2Fcom%2Fzions%2Fpipeline%2Fservices%2Fyaml%2Ftemplate%2Fexecution%2FWorkItem.groovy" xlink:show="new" xlink:title="https://dev.azure.com/zionseto/DTS/_git/zions-service-framework?path=%2Fzions-pipeline-services%2Fsrc%2Fmain%2Fgroovy%2Fcom%2Fzions%2Fpipeline%2Fservices%2Fyaml%2Ftemplate%2Fexecution%2FWorkItem.groovy" xlink:type="simple"><text fill="#0000FF" font-family="sans-serif" font-size="14" lengthAdjust="spacingAndGlyphs" text-decoration="underline" textLength="59" x="618.5" y="84.5332">WorkItem</text><line style="stroke: #0000FF; stroke-width: 1.0;" x1="618.5" x2="677.5" y1="86.5332" y2="86.5332"/></a><!--entity ey--><polygon fill="#FEFECE" filter="url(#ftbvz0v)" points="1191.5,384,1191.5,421.6094,1312.5,421.6094,1312.5,394,1302.5,384,1191.5,384" style="stroke: #000000; stroke-width: 1.5;"/><path d="M1302.5,384 L1302.5,394 L1312.5,394 " fill="#FEFECE" style="stroke: #000000; stroke-width: 1.5;"/><text fill="#000000" font-family="sans-serif" font-size="14" lengthAdjust="spacingAndGlyphs" textLength="101" x="1201.5" y="408.5332">executable.yaml</text><path d="M1035.95,98.041 C1001.685,123.736 939.021,170.734 903.142,197.644 " fill="none" style="stroke: #A80036; stroke-width: 1.0;"/><polygon fill="#A80036" points="898.903,200.823,908.503,198.623,902.903,197.823,903.703,192.223,898.903,200.823" style="stroke: #A80036; stroke-width: 1.0;"/><path d="M913.379,98.041 C905.535,123.214 891.32,168.833 882.862,195.978 " fill="none" style="stroke: #A80036; stroke-width: 1.0;"/><polygon fill="#A80036" points="881.352,200.823,887.8476,193.4198,882.839,196.0492,880.2096,191.0406,881.352,200.823" style="stroke: #A80036; stroke-width: 1.0;"/><path d="M803.59,98.177 C816.442,106.154 832.146,115.224 847,122 C857.23,126.666 864.17,121.069 871,130 C885.19,148.555 884.236,176.27 881.152,195.625 " fill="none" style="stroke: #A80036; stroke-width: 1.0;"/><polygon fill="#A80036" points="880.236,200.847,885.7316,192.674,881.1004,195.9223,877.8521,191.291,880.236,200.847" style="stroke: #A80036; stroke-width: 1.0;"/><path d="M842.26,239.881 C819.867,253.969 790.557,274.182 768,296 C739.662,323.41 713.487,361.497 699.23,383.7677 " fill="none" style="stroke: #A80036; stroke-width: 1.0;"/><polygon fill="#A80036" points="846.642,237.147,836.8889,238.5173,842.3999,239.7937,841.1236,245.3046,846.642,237.147" style="stroke: #A80036; stroke-width: 1.0;"/><path d="M873.556,242.237 C869.55,278.698 861.661,350.483 857.98,383.9851 " fill="none" style="stroke: #A80036; stroke-width: 1.0;"/><polygon fill="#A80036" points="874.118,237.122,869.1596,245.6316,873.5723,242.0921,877.1118,246.5048,874.118,237.122" style="stroke: #A80036; stroke-width: 1.0;"/><path d="M894.832,240.877 C908.53,256.104 927.49,277.265 944,296 C971.066,326.713 1002.229,362.766 1020.46,383.9227 " fill="none" style="stroke: #A80036; stroke-width: 1.0;"/><polygon fill="#A80036" points="891.468,237.139,894.5139,246.505,894.8122,240.856,900.4612,241.1543,891.468,237.139" style="stroke: #A80036; stroke-width: 1.0;"/><path d="M667.019,98.116 C677.624,107.025 691.577,116.92 706,122 C722.58,127.84 851.054,118.109 864,130 C873.343,138.582 875.633,172.491 876.077,195.621 " fill="none" style="stroke: #A80036; stroke-width: 1.0;"/><polygon fill="#A80036" points="876.148,200.669,880.019,191.6128,876.0766,195.6695,872.0198,191.7271,876.148,200.669" style="stroke: #A80036; stroke-width: 1.0;"/><path d="M430.843,98.031 C452.575,107.097 478.907,118.568 502,130 C516.624,137.24 518.712,142.295 534,148 C620.088,180.123 724.16,198.749 794.721,208.598 " fill="none" style="stroke: #A80036; stroke-width: 1.0;"/><polygon fill="#A80036" points="799.743,209.292,791.3751,204.0979,794.79,208.6077,790.2802,212.0226,799.743,209.292" style="stroke: #A80036; stroke-width: 1.0;"/><text fill="#000000" font-family="sans-serif" font-size="13" lengthAdjust="spacingAndGlyphs" textLength="320" x="535" y="144.4951">Execute yaml handler on executable yaml file from GIT.</text><path d="M317.84,98.104 C296.974,105.747 274.842,116.164 257,130 C234.415,147.515 216.427,175.284 205.547,194.938 " fill="none" style="stroke: #A80036; stroke-width: 1.0;"/><polygon fill="#A80036" points="202.935,199.749,210.7445,193.748,205.3206,195.3548,203.7138,189.931,202.935,199.749" style="stroke: #A80036; stroke-width: 1.0;"/><text fill="#000000" font-family="sans-serif" font-size="13" lengthAdjust="spacingAndGlyphs" textLength="116" x="258" y="144.4951">Access project data</text><path d="M384.656,98.04 C384.014,107.543 383.318,119.395 383,130 C382.76,137.996 382.601,140.01 383,148 C383.779,163.615 385.529,181.116 387.084,194.713 " fill="none" style="stroke: #A80036; stroke-width: 1.0;"/><polygon fill="#A80036" points="387.691,199.908,390.6199,190.5047,387.1109,194.9418,382.6739,191.4328,387.691,199.908" style="stroke: #A80036; stroke-width: 1.0;"/><text fill="#000000" font-family="sans-serif" font-size="13" lengthAdjust="spacingAndGlyphs" textLength="113" x="384" y="144.4951">Load GIT repository</text><path d="M952.213,234.531 C1003.69,246.356 1072.02,266.059 1127,296 C1168.27,318.476 1208.32,356.072 1231.54,379.9231 " fill="none" style="stroke: #A80036; stroke-width: 1.0;"/><polygon fill="#A80036" points="1235.12,383.6286,1231.7482,374.3749,1231.6478,380.0309,1225.9918,379.9305,1235.12,383.6286" style="stroke: #A80036; stroke-width: 1.0;"/><text fill="#000000" font-family="sans-serif" font-size="13" lengthAdjust="spacingAndGlyphs" textLength="220" x="1109" y="284.4951">Executable yaml file in GIT repository.</text></g></svg>