<?xml version="1.0" encoding="UTF-8" standalone="no"?><svg xmlns="http://www.w3.org/2000/svg" xmlns:xlink="http://www.w3.org/1999/xlink" contentScriptType="application/ecmascript" contentStyleType="text/css" height="330px" preserveAspectRatio="none" style="width:986px;height:330px;" version="1.1" viewBox="0 0 986 330" width="986px" zoomAndPan="magnify"><defs><filter height="300%" id="fj8klv1" width="300%" x="-1" y="-1"><feGaussianBlur result="blurOut" stdDeviation="2.0"/><feColorMatrix in="blurOut" result="blurOut2" type="matrix" values="0 0 0 0 0 0 0 0 0 0 0 0 0 0 0 0 0 0 .4 0"/><feOffset dx="4.0" dy="4.0" in="blurOut2" result="blurOut3"/><feBlend in="SourceGraphic" in2="blurOut3" mode="normal"/></filter></defs><g><rect fill="#FFFFFF" filter="url(#fj8klv1)" height="209.4609" style="stroke: #A80036; stroke-width: 1.0;" width="10" x="394.5" y="71.6094"/><rect fill="#FFFFFF" filter="url(#fj8klv1)" height="143.7578" style="stroke: #000000; stroke-width: 2.0;" width="878.5" x="99" y="130.3125"/><rect fill="#FFFFFF" filter="url(#fj8klv1)" height="111.4063" style="stroke: #000000; stroke-width: 2.0;" width="858.5" x="109" y="155.6641"/><rect fill="#FFFFFF" filter="url(#fj8klv1)" height="48.7031" style="stroke: #000000; stroke-width: 2.0;" width="715.5" x="119" y="211.3672"/><line style="stroke: #A80036; stroke-width: 1.0; stroke-dasharray: 5.0,5.0;" x1="63" x2="63" y1="39.6094" y2="291.0703"/><line style="stroke: #A80036; stroke-width: 1.0; stroke-dasharray: 5.0,5.0;" x1="399" x2="399" y1="39.6094" y2="291.0703"/><line style="stroke: #A80036; stroke-width: 1.0; stroke-dasharray: 5.0,5.0;" x1="776.5" x2="776.5" y1="39.6094" y2="291.0703"/><line style="stroke: #A80036; stroke-width: 1.0; stroke-dasharray: 5.0,5.0;" x1="895.5" x2="895.5" y1="39.6094" y2="291.0703"/><rect fill="#FEFECE" filter="url(#fj8klv1)" height="31.6094" style="stroke: #A80036; stroke-width: 1.5;" width="107" x="8" y="3"/><text fill="#000000" font-family="sans-serif" font-size="14" lengthAdjust="spacingAndGlyphs" textLength="93" x="15" y="24.5332">pipelineBuilder</text><rect fill="#FEFECE" filter="url(#fj8klv1)" height="31.6094" style="stroke: #A80036; stroke-width: 1.5;" width="107" x="8" y="290.0703"/><text fill="#000000" font-family="sans-serif" font-size="14" lengthAdjust="spacingAndGlyphs" textLength="93" x="15" y="311.6035">pipelineBuilder</text><rect fill="#FEFECE" filter="url(#fj8klv1)" height="31.6094" style="stroke: #A80036; stroke-width: 1.5;" width="537" x="129" y="3"/><text fill="#000000" font-family="sans-serif" font-size="14" font-weight="bold" lengthAdjust="spacingAndGlyphs" textLength="523" x="136" y="24.5332">BlueprintTemplateInterpretorService:blueprintTemplateInterpretorService</text><rect fill="#FEFECE" filter="url(#fj8klv1)" height="31.6094" style="stroke: #A80036; stroke-width: 1.5;" width="537" x="129" y="290.0703"/><text fill="#000000" font-family="sans-serif" font-size="14" font-weight="bold" lengthAdjust="spacingAndGlyphs" textLength="523" x="136" y="311.6035">BlueprintTemplateInterpretorService:blueprintTemplateInterpretorService</text><rect fill="#FEFECE" filter="url(#fj8klv1)" height="31.6094" style="stroke: #A80036; stroke-width: 1.5;" width="92" x="728.5" y="3"/><text fill="#000000" font-family="sans-serif" font-size="14" lengthAdjust="spacingAndGlyphs" textLength="78" x="735.5" y="24.5332">yamlHandler</text><rect fill="#FEFECE" filter="url(#fj8klv1)" height="31.6094" style="stroke: #A80036; stroke-width: 1.5;" width="92" x="728.5" y="290.0703"/><text fill="#000000" font-family="sans-serif" font-size="14" lengthAdjust="spacingAndGlyphs" textLength="78" x="735.5" y="311.6035">yamlHandler</text><rect fill="#FEFECE" filter="url(#fj8klv1)" height="31.6094" style="stroke: #A80036; stroke-width: 1.5;" width="119" x="834.5" y="3"/><text fill="#000000" font-family="sans-serif" font-size="14" lengthAdjust="spacingAndGlyphs" textLength="105" x="841.5" y="24.5332">yamlHandlerMap</text><rect fill="#FEFECE" filter="url(#fj8klv1)" height="31.6094" style="stroke: #A80036; stroke-width: 1.5;" width="119" x="834.5" y="290.0703"/><text fill="#000000" font-family="sans-serif" font-size="14" lengthAdjust="spacingAndGlyphs" textLength="105" x="841.5" y="311.6035">yamlHandlerMap</text><rect fill="#FFFFFF" filter="url(#fj8klv1)" height="209.4609" style="stroke: #A80036; stroke-width: 1.0;" width="10" x="394.5" y="71.6094"/><polygon fill="#A80036" points="382.5,67.6094,392.5,71.6094,382.5,75.6094,386.5,71.6094" style="stroke: #A80036; stroke-width: 1.0;"/><line style="stroke: #A80036; stroke-width: 1.0;" x1="63.5" x2="388.5" y1="71.6094" y2="71.6094"/><text fill="#000000" font-family="sans-serif" font-size="13" lengthAdjust="spacingAndGlyphs" textLength="121" x="70.5" y="67.1045">runExecutableYaml()</text><line style="stroke: #A80036; stroke-width: 1.0;" x1="404.5" x2="446.5" y1="102.3125" y2="102.3125"/><line style="stroke: #A80036; stroke-width: 1.0;" x1="446.5" x2="446.5" y1="102.3125" y2="115.3125"/><line style="stroke: #A80036; stroke-width: 1.0;" x1="405.5" x2="446.5" y1="115.3125" y2="115.3125"/><polygon fill="#A80036" points="415.5,111.3125,405.5,115.3125,415.5,119.3125,411.5,115.3125" style="stroke: #A80036; stroke-width: 1.0;"/><text fill="#000000" font-family="sans-serif" font-size="13" lengthAdjust="spacingAndGlyphs" textLength="182" x="411.5" y="97.4561">findExecutableYaml(): exeYaml</text><rect fill="none" height="143.7578" style="stroke: #000000; stroke-width: 2.0;" width="878.5" x="99" y="130.3125"/><polygon fill="#EEEEEE" points="99,130.3125,172,130.3125,172,138.3125,162,148.3125,99,148.3125,99,130.3125" style="stroke: #000000; stroke-width: 2.0;"/><text fill="#000000" font-family="sans-serif" font-size="13" font-weight="bold" lengthAdjust="spacingAndGlyphs" textLength="28" x="114" y="144.8076">loop</text><text fill="#000000" font-family="sans-serif" font-size="11" font-weight="bold" lengthAdjust="spacingAndGlyphs" textLength="97" x="187" y="143.7314">[yaml in exeYaml]</text><rect fill="none" height="111.4063" style="stroke: #000000; stroke-width: 2.0;" width="858.5" x="109" y="155.6641"/><polygon fill="#EEEEEE" points="109,155.6641,182,155.6641,182,163.6641,172,173.6641,109,173.6641,109,155.6641" style="stroke: #000000; stroke-width: 2.0;"/><text fill="#000000" font-family="sans-serif" font-size="13" font-weight="bold" lengthAdjust="spacingAndGlyphs" textLength="28" x="124" y="170.1592">loop</text><text fill="#000000" font-family="sans-serif" font-size="11" font-weight="bold" lengthAdjust="spacingAndGlyphs" textLength="134" x="197" y="169.083">[exe in exe.executables]</text><polygon fill="#A80036" points="884,192.0156,894,196.0156,884,200.0156,888,196.0156" style="stroke: #A80036; stroke-width: 1.0;"/><line style="stroke: #A80036; stroke-width: 1.0;" x1="404.5" x2="890" y1="196.0156" y2="196.0156"/><text fill="#000000" font-family="sans-serif" font-size="13" lengthAdjust="spacingAndGlyphs" textLength="156" x="411.5" y="191.5107">get(exe.type): yamlHandler</text><rect fill="none" height="48.7031" style="stroke: #000000; stroke-width: 2.0;" width="715.5" x="119" y="211.3672"/><polygon fill="#EEEEEE" points="119,211.3672,180,211.3672,180,219.3672,170,229.3672,119,229.3672,119,211.3672" style="stroke: #000000; stroke-width: 2.0;"/><text fill="#000000" font-family="sans-serif" font-size="13" font-weight="bold" lengthAdjust="spacingAndGlyphs" textLength="16" x="134" y="225.8623">alt</text><text fill="#000000" font-family="sans-serif" font-size="11" font-weight="bold" lengthAdjust="spacingAndGlyphs" textLength="111" x="195" y="224.7861">[yamlHandler != null]</text><polygon fill="#A80036" points="764.5,247.7188,774.5,251.7188,764.5,255.7188,768.5,251.7188" style="stroke: #A80036; stroke-width: 1.0;"/><line style="stroke: #A80036; stroke-width: 1.0;" x1="404.5" x2="770.5" y1="251.7188" y2="251.7188"/><text fill="#000000" font-family="sans-serif" font-size="13" lengthAdjust="spacingAndGlyphs" textLength="348" x="411.5" y="247.2139">handleYaml(exe, repoDir, [], 'refs/heads/master', adoProject)</text></g></svg>