<?xml version="1.0" encoding="UTF-8" standalone="no"?><svg xmlns="http://www.w3.org/2000/svg" xmlns:xlink="http://www.w3.org/1999/xlink" contentScriptType="application/ecmascript" contentStyleType="text/css" height="328px" preserveAspectRatio="none" style="width:1061px;height:328px;" version="1.1" viewBox="0 0 1061 328" width="1061px" zoomAndPan="magnify"><defs><filter height="300%" id="fy7bdpq" width="300%" x="-1" y="-1"><feGaussianBlur result="blurOut" stdDeviation="2.0"/><feColorMatrix in="blurOut" result="blurOut2" type="matrix" values="0 0 0 0 0 0 0 0 0 0 0 0 0 0 0 0 0 0 .4 0"/><feOffset dx="4.0" dy="4.0" in="blurOut2" result="blurOut3"/><feBlend in="SourceGraphic" in2="blurOut3" mode="normal"/></filter></defs><g><rect fill="#FFFFFF" filter="url(#fy7bdpq)" height="169.1094" style="stroke: #A80036; stroke-width: 1.0;" width="10" x="121" y="79.6094"/><rect fill="#FFFFFF" filter="url(#fy7bdpq)" height="111.4063" style="stroke: #000000; stroke-width: 2.0;" width="741" x="13" y="130.3125"/><rect fill="#FFFFFF" filter="url(#fy7bdpq)" height="48.7031" style="stroke: #000000; stroke-width: 2.0;" width="656" x="23" y="186.0156"/><line style="stroke: #A80036; stroke-width: 1.0; stroke-dasharray: 5.0,5.0;" x1="126" x2="126" y1="39.6094" y2="289.0703"/><line style="stroke: #A80036; stroke-width: 1.0; stroke-dasharray: 5.0,5.0;" x1="407" x2="407" y1="39.6094" y2="289.0703"/><line style="stroke: #A80036; stroke-width: 1.0; stroke-dasharray: 5.0,5.0;" x1="632" x2="632" y1="39.6094" y2="289.0703"/><line style="stroke: #A80036; stroke-width: 1.0; stroke-dasharray: 5.0,5.0;" x1="711" x2="711" y1="39.6094" y2="289.0703"/><line style="stroke: #A80036; stroke-width: 1.0; stroke-dasharray: 5.0,5.0;" x1="905" x2="905" y1="39.6094" y2="289.0703"/><rect fill="#FEFECE" filter="url(#fy7bdpq)" height="31.6094" style="stroke: #A80036; stroke-width: 1.5;" width="182" x="33" y="3"/><text fill="#000000" font-family="sans-serif" font-size="14" lengthAdjust="spacingAndGlyphs" textLength="168" x="40" y="24.5332">PipelineExecutionEndPoint</text><rect fill="#FEFECE" filter="url(#fy7bdpq)" height="31.6094" style="stroke: #A80036; stroke-width: 1.5;" width="182" x="33" y="288.0703"/><text fill="#000000" font-family="sans-serif" font-size="14" lengthAdjust="spacingAndGlyphs" textLength="168" x="40" y="309.6035">PipelineExecutionEndPoint</text><rect fill="#FEFECE" filter="url(#fy7bdpq)" height="31.6094" style="stroke: #A80036; stroke-width: 1.5;" width="352" x="229" y="3"/><text fill="#000000" font-family="sans-serif" font-size="14" font-weight="bold" lengthAdjust="spacingAndGlyphs" textLength="182" x="236" y="24.5332">CodeManagementService</text><text fill="#000000" font-family="sans-serif" font-size="14" lengthAdjust="spacingAndGlyphs" textLength="156" x="418" y="24.5332">:codeManagmentService</text><rect fill="#FEFECE" filter="url(#fy7bdpq)" height="31.6094" style="stroke: #A80036; stroke-width: 1.5;" width="352" x="229" y="288.0703"/><text fill="#000000" font-family="sans-serif" font-size="14" font-weight="bold" lengthAdjust="spacingAndGlyphs" textLength="182" x="236" y="309.6035">CodeManagementService</text><text fill="#000000" font-family="sans-serif" font-size="14" lengthAdjust="spacingAndGlyphs" textLength="156" x="418" y="309.6035">:codeManagmentService</text><rect fill="#FEFECE" filter="url(#fy7bdpq)" height="31.6094" style="stroke: #A80036; stroke-width: 1.5;" width="70" x="595" y="3"/><text fill="#000000" font-family="sans-serif" font-size="14" lengthAdjust="spacingAndGlyphs" textLength="56" x="602" y="24.5332">locations</text><rect fill="#FEFECE" filter="url(#fy7bdpq)" height="31.6094" style="stroke: #A80036; stroke-width: 1.5;" width="70" x="595" y="288.0703"/><text fill="#000000" font-family="sans-serif" font-size="14" lengthAdjust="spacingAndGlyphs" textLength="56" x="602" y="309.6035">locations</text><rect fill="#FEFECE" filter="url(#fy7bdpq)" height="31.6094" style="stroke: #A80036; stroke-width: 1.5;" width="61" x="679" y="3"/><text fill="#000000" font-family="sans-serif" font-size="14" lengthAdjust="spacingAndGlyphs" textLength="47" x="686" y="24.5332">change</text><rect fill="#FEFECE" filter="url(#fy7bdpq)" height="31.6094" style="stroke: #A80036; stroke-width: 1.5;" width="61" x="679" y="288.0703"/><text fill="#000000" font-family="sans-serif" font-size="14" lengthAdjust="spacingAndGlyphs" textLength="47" x="686" y="309.6035">change</text><rect fill="#FEFECE" filter="url(#fy7bdpq)" height="31.6094" style="stroke: #A80036; stroke-width: 1.5;" width="298" x="754" y="3"/><text fill="#000000" font-family="sans-serif" font-size="14" lengthAdjust="spacingAndGlyphs" textLength="284" x="761" y="24.5332">YamlExecutionService: yamlExecutionService</text><rect fill="#FEFECE" filter="url(#fy7bdpq)" height="31.6094" style="stroke: #A80036; stroke-width: 1.5;" width="298" x="754" y="288.0703"/><text fill="#000000" font-family="sans-serif" font-size="14" lengthAdjust="spacingAndGlyphs" textLength="284" x="761" y="309.6035">YamlExecutionService: yamlExecutionService</text><rect fill="#FFFFFF" filter="url(#fy7bdpq)" height="169.1094" style="stroke: #A80036; stroke-width: 1.0;" width="10" x="121" y="79.6094"/><line style="stroke: #A80036; stroke-width: 1.0;" x1="126" x2="173" y1="66.9609" y2="66.9609"/><line style="stroke: #A80036; stroke-width: 1.0;" x1="173" x2="173" y1="66.9609" y2="79.9609"/><line style="stroke: #A80036; stroke-width: 1.0;" x1="132" x2="173" y1="79.9609" y2="79.9609"/><polygon fill="#A80036" points="142,75.9609,132,79.9609,142,83.9609,138,79.9609" style="stroke: #A80036; stroke-width: 1.0;"/><text fill="#000000" font-family="sans-serif" font-size="13" lengthAdjust="spacingAndGlyphs" textLength="232" x="138" y="62.1045">getPipelineChangeLocations(): locations</text><polygon fill="#A80036" points="395,110.9609,405,114.9609,395,118.9609,399,114.9609" style="stroke: #A80036; stroke-width: 1.0;"/><line style="stroke: #A80036; stroke-width: 1.0;" x1="131" x2="401" y1="114.9609" y2="114.9609"/><text fill="#000000" font-family="sans-serif" font-size="13" lengthAdjust="spacingAndGlyphs" textLength="203" x="138" y="110.4561">getChanges(changesUrl) : changes</text><rect fill="none" height="111.4063" style="stroke: #000000; stroke-width: 2.0;" width="741" x="13" y="130.3125"/><polygon fill="#EEEEEE" points="13,130.3125,86,130.3125,86,138.3125,76,148.3125,13,148.3125,13,130.3125" style="stroke: #000000; stroke-width: 2.0;"/><text fill="#000000" font-family="sans-serif" font-size="13" font-weight="bold" lengthAdjust="spacingAndGlyphs" textLength="28" x="28" y="144.8076">loop</text><text fill="#000000" font-family="sans-serif" font-size="11" font-weight="bold" lengthAdjust="spacingAndGlyphs" textLength="138" x="101" y="143.7314">[for (change in changes)]</text><polygon fill="#A80036" points="699.5,166.6641,709.5,170.6641,699.5,174.6641,703.5,170.6641" style="stroke: #A80036; stroke-width: 1.0;"/><line style="stroke: #A80036; stroke-width: 1.0;" x1="131" x2="705.5" y1="170.6641" y2="170.6641"/><text fill="#000000" font-family="sans-serif" font-size="13" lengthAdjust="spacingAndGlyphs" textLength="82" x="138" y="166.1592">getPath():path</text><rect fill="none" height="48.7031" style="stroke: #000000; stroke-width: 2.0;" width="656" x="23" y="186.0156"/><polygon fill="#EEEEEE" points="23,186.0156,84,186.0156,84,194.0156,74,204.0156,23,204.0156,23,186.0156" style="stroke: #000000; stroke-width: 2.0;"/><text fill="#000000" font-family="sans-serif" font-size="13" font-weight="bold" lengthAdjust="spacingAndGlyphs" textLength="16" x="38" y="200.5107">alt</text><text fill="#000000" font-family="sans-serif" font-size="11" font-weight="bold" lengthAdjust="spacingAndGlyphs" textLength="156" x="99" y="199.4346">[path contains pipeline path]</text><polygon fill="#A80036" points="620,222.3672,630,226.3672,620,230.3672,624,226.3672" style="stroke: #A80036; stroke-width: 1.0;"/><line style="stroke: #A80036; stroke-width: 1.0;" x1="131" x2="626" y1="226.3672" y2="226.3672"/><text fill="#000000" font-family="sans-serif" font-size="13" lengthAdjust="spacingAndGlyphs" textLength="54" x="138" y="221.8623">add(path)</text><polygon fill="#A80036" points="893,266.7188,903,270.7188,893,274.7188,897,270.7188" style="stroke: #A80036; stroke-width: 1.0;"/><line style="stroke: #A80036; stroke-width: 1.0;" x1="126" x2="899" y1="270.7188" y2="270.7188"/><text fill="#000000" font-family="sans-serif" font-size="13" lengthAdjust="spacingAndGlyphs" textLength="434" x="133" y="266.2139">runExecutableYaml(repoUrl,name,locations, branch, project, pullRequestId)</text></g></svg>