<?xml version="1.0" encoding="UTF-8" standalone="no"?><svg xmlns="http://www.w3.org/2000/svg" xmlns:xlink="http://www.w3.org/1999/xlink" contentScriptType="application/ecmascript" contentStyleType="text/css" height="651px" preserveAspectRatio="none" style="width:2298px;height:651px;" version="1.1" viewBox="0 0 2298 651" width="2298px" zoomAndPan="magnify"><defs><filter height="300%" id="fvilwquchvrg7" width="300%" x="-1" y="-1"><feGaussianBlur result="blurOut" stdDeviation="2.0"/><feColorMatrix in="blurOut" result="blurOut2" type="matrix" values="0 0 0 0 0 0 0 0 0 0 0 0 0 0 0 0 0 0 .4 0"/><feOffset dx="4.0" dy="4.0" in="blurOut2" result="blurOut3"/><feBlend in="SourceGraphic" in2="blurOut3" mode="normal"/></filter></defs><g><!--MD5=[96a69031cb5028f63488fb2297256f91]
cluster ADO--><path d="M284.2145,173.187 C303.1882,140.1254 326.5094,140.9252 347.3717,171.3069 C359.6634,152.5508 381.3225,151.5981 392.8616,172.1773 C408.5586,143.7807 435.4544,142.0545 454.7699,168.0595 C469.2269,140.287 491.2014,141.4056 510.7925,162.1284 C529.9018,136.3128 554.074,143.3967 567.5259,168.4393 C578.3657,140.0278 596.5574,140.721 616.356,159.0874 C634.3015,133.4622 652.4814,129.9147 671.7616,157.7031 C696.6563,127.9733 714.0176,137.0325 731.544,165.2984 C749.5059,141.2069 766.3303,131.9839 788.1411,161.213 C806.4715,138.6229 826.5877,139.8756 841.8988,164.6405 C862.8287,141.1255 880.6159,138.3871 898.4365,167.9523 C911.7895,145.2843 937.4035,142.5936 950.2233,168.5205 C966.0419,141.4086 990.0047,141.3146 1005.3668,168.9799 C1023.9466,139.4173 1052.0357,143.398 1065,174.5 C1068.3217,173.0847 1070.3681,174.6167 1069.7094,178.2287 C1095.3441,191.5983 1100.5496,211.1505 1076.4496,230.8861 C1102.9218,252.0684 1105.2732,271.5448 1074.4232,290.7879 C1102.1887,309.2394 1095.528,329.7807 1070.5476,344.4207 C1092.3843,361.207 1092.1071,377.3671 1071.9623,395.3202 C1097.4112,411.5677 1098.5071,431.3064 1075.209,450.4259 C1098.0826,474.0077 1094.621,503.2496 1058,509.5 C1061.7083,508.2441 1063.1608,509.8988 1063.2666,513.4483 C1042.701,539.1722 1023.8878,539.7293 1004.6063,512.0381 C994.4187,539.1661 966.1748,542.5383 948.0585,521.3098 C934.7064,542.3749 909.5572,541.542 897.194,520.1258 C878.7149,543.9468 860.2389,548.5509 841.565,520.3341 C823.817,543.1197 808.0786,542.5355 790.8143,519.7949 C775.9676,550.2055 749.3074,550.5972 730.9386,523.4596 C715.5406,551.0909 697.1911,550.3577 679.8542,525.3409 C664.5217,555.896 641.7717,553.3046 622.6378,529.3296 C600.101,548.5868 583.1222,549.3922 567.7912,521.0301 C554.4999,551.0759 524.8857,553.3102 506.9418,525.9629 C492.2316,551.1433 469.1652,547.6307 456.7108,523.6576 C433.5361,550.1495 415.2376,545.9107 401.9331,514.345 C387.3925,540.2843 360.567,539.1242 347.472,512.8376 C320.523,539.5404 292.3432,543.1393 275,502.5 C277.6008,499.9202 280.5971,500.7508 281.9448,503.9945 C259.5971,488.9216 260.1849,469.7144 281.4127,454.1762 C256.9984,440.3736 255.4295,418.0854 278.0317,401.2777 C254.7724,386.3287 254.1868,360.5687 278.1242,345.6983 C252.3354,328.0753 252.5783,301.5993 280.1465,285.777 C258.0555,272.8215 253.6307,252.862 275.5138,235.8279 C245.698,212.6263 249.3041,184.7675 282,167.5 C285.1937,168.0119 286.1407,170.6814 284.2145,173.187 " fill="#FFFFFF" filter="url(#fvilwquchvrg7)" style="stroke:#000000;stroke-width:1.5;"/><text fill="#000000" font-family="sans-serif" font-size="14" font-weight="bold" lengthAdjust="spacing" textLength="30" x="655" y="187.0332">ADO</text><!--MD5=[3fe050580c5498524022764d1cf2ac4a]
entity ADOBPEUI--><rect fill="#FEFECE" filter="url(#fvilwquchvrg7)" height="47.6094" style="stroke:#A80036;stroke-width:1.5;" width="245" x="659.5" y="203.5"/><rect fill="#FEFECE" height="10" style="stroke:#A80036;stroke-width:1.5;" width="15" x="884.5" y="208.5"/><rect fill="#FEFECE" height="2" style="stroke:#A80036;stroke-width:1.5;" width="4" x="882.5" y="210.5"/><rect fill="#FEFECE" height="2" style="stroke:#A80036;stroke-width:1.5;" width="4" x="882.5" y="214.5"/><text fill="#000000" font-family="sans-serif" font-size="14" lengthAdjust="spacing" textLength="205" x="674.5" y="238.0332">ADO COE Blueprint Execution UI</text><!--MD5=[aed3f4b62c649415c01bb447226abe59]
entity ADOP--><rect fill="#FEFECE" filter="url(#fvilwquchvrg7)" height="47.6094" style="stroke:#A80036;stroke-width:1.5;" width="124" x="562" y="445.5"/><rect fill="#FEFECE" height="10" style="stroke:#A80036;stroke-width:1.5;" width="15" x="666" y="450.5"/><rect fill="#FEFECE" height="2" style="stroke:#A80036;stroke-width:1.5;" width="4" x="664" y="452.5"/><rect fill="#FEFECE" height="2" style="stroke:#A80036;stroke-width:1.5;" width="4" x="664" y="456.5"/><text fill="#000000" font-family="sans-serif" font-size="14" lengthAdjust="spacing" textLength="84" x="577" y="480.0332">ADO Pipeline</text><!--MD5=[e924c9beafa2d3778b717a926d40b33b]
entity GITBP--><rect fill="#FEFECE" filter="url(#fvilwquchvrg7)" height="37.6094" rx="35" ry="35" style="stroke:#000000;stroke-width:1.5;" width="209" x="839.5" y="329.5"/><text fill="#000000" font-family="sans-serif" font-size="14" lengthAdjust="spacing" textLength="189" x="849.5" y="354.0332">ADO Blueprint GIT Repository</text><!--MD5=[f91d3cc291cdda5db2abdb96f2509dd9]
entity GITPROJECT--><rect fill="#FEFECE" filter="url(#fvilwquchvrg7)" height="37.6094" rx="35" ry="35" style="stroke:#000000;stroke-width:1.5;" width="197" x="299.5" y="329.5"/><text fill="#000000" font-family="sans-serif" font-size="14" lengthAdjust="spacing" textLength="177" x="309.5" y="354.0332">ADO Project GIT Repository</text><!--MD5=[1960c54823456ba091b74915ba4e0847]
entity GITAPP--><rect fill="#FEFECE" filter="url(#fvilwquchvrg7)" height="37.6094" rx="35" ry="35" style="stroke:#000000;stroke-width:1.5;" width="222" x="557" y="329.5"/><text fill="#000000" font-family="sans-serif" font-size="14" lengthAdjust="spacing" textLength="202" x="567" y="354.0332">ADO Application GIT Repository</text><!--MD5=[9588a41f81df83122e454b7a1572a85d]
entity DE--><ellipse cx="1392" cy="14" fill="#FEFECE" filter="url(#fvilwquchvrg7)" rx="8" ry="8" style="stroke:#A80036;stroke-width:1.5;"/><path d="M1392,22 L1392,49 M1379,30 L1405,30 M1392,49 L1379,64 M1392,49 L1405,64 " fill="none" filter="url(#fvilwquchvrg7)" style="stroke:#A80036;stroke-width:1.5;"/><text fill="#000000" font-family="sans-serif" font-size="14" lengthAdjust="spacing" textLength="109" x="1337.5" y="84.0332">Devops Engineer</text><!--MD5=[c9107ae21925a151a9cf0f84b871f142]
entity ADOBPECLI--><rect fill="#FEFECE" filter="url(#fvilwquchvrg7)" height="47.6094" style="stroke:#A80036;stroke-width:1.5;" width="220" x="1282" y="203.5"/><rect fill="#FEFECE" height="10" style="stroke:#A80036;stroke-width:1.5;" width="15" x="1482" y="208.5"/><rect fill="#FEFECE" height="2" style="stroke:#A80036;stroke-width:1.5;" width="4" x="1480" y="210.5"/><rect fill="#FEFECE" height="2" style="stroke:#A80036;stroke-width:1.5;" width="4" x="1480" y="214.5"/><text fill="#000000" font-family="sans-serif" font-size="14" lengthAdjust="spacing" textLength="180" x="1297" y="238.0332">COE Blueprint Execution CLI</text><!--MD5=[5d8636d2914506b563167829027b61ed]
entity BPMS--><rect fill="#FEFECE" filter="url(#fvilwquchvrg7)" height="47.6094" style="stroke:#A80036;stroke-width:1.5;" width="232" x="7" y="445.5"/><rect fill="#FEFECE" height="10" style="stroke:#A80036;stroke-width:1.5;" width="15" x="219" y="450.5"/><rect fill="#FEFECE" height="2" style="stroke:#A80036;stroke-width:1.5;" width="4" x="217" y="452.5"/><rect fill="#FEFECE" height="2" style="stroke:#A80036;stroke-width:1.5;" width="4" x="217" y="456.5"/><text fill="#000000" font-family="sans-serif" font-size="14" lengthAdjust="spacing" textLength="192" x="22" y="480.0332">Executable Yaml Micro-service</text><!--MD5=[8c9ae2b88bd12d07e6ae8c085d2ead40]
entity XLR--><rect fill="#FEFECE" filter="url(#fvilwquchvrg7)" height="47.6094" style="stroke:#A80036;stroke-width:1.5;" width="112" x="152" y="589.5"/><rect fill="#FEFECE" height="10" style="stroke:#A80036;stroke-width:1.5;" width="15" x="244" y="594.5"/><rect fill="#FEFECE" height="2" style="stroke:#A80036;stroke-width:1.5;" width="4" x="242" y="596.5"/><rect fill="#FEFECE" height="2" style="stroke:#A80036;stroke-width:1.5;" width="4" x="242" y="600.5"/><text fill="#000000" font-family="sans-serif" font-size="14" lengthAdjust="spacing" textLength="72" x="167" y="624.0332">XL Release</text><!--MD5=[3520fcd41a6691651eb47eacebe2c414]
entity XLD--><rect fill="#FEFECE" filter="url(#fvilwquchvrg7)" height="47.6094" style="stroke:#A80036;stroke-width:1.5;" width="104" x="487" y="589.5"/><rect fill="#FEFECE" height="10" style="stroke:#A80036;stroke-width:1.5;" width="15" x="571" y="594.5"/><rect fill="#FEFECE" height="2" style="stroke:#A80036;stroke-width:1.5;" width="4" x="569" y="596.5"/><rect fill="#FEFECE" height="2" style="stroke:#A80036;stroke-width:1.5;" width="4" x="569" y="600.5"/><text fill="#000000" font-family="sans-serif" font-size="14" lengthAdjust="spacing" textLength="64" x="502" y="624.0332">XL Deploy</text><!--MD5=[42f346b00b2ad47a9c3c50217d01de83]
link DE to GITBP--><path d="M1446.92,59.371 C1577.55,91.075 1887.73,181.138 1776,299.5 C1751.6,325.353 1274.09,339.805 1053.73,345.121 " fill="none" id="DE-to-GITBP" style="stroke:#A80036;stroke-width:1.0;"/><polygon fill="#A80036" points="1048.57,345.245,1057.6591,349.0382,1053.5687,345.1307,1057.4762,341.0403,1048.57,345.245" style="stroke:#A80036;stroke-width:1.0;"/><text fill="#000000" font-family="sans-serif" font-size="13" lengthAdjust="spacing" textLength="490" x="1800" y="232.9951">Modifies Blueprints to customize pipeline/deploy/release automation to project needs</text><!--MD5=[00ca53e70b2c96709a9147a3f446d5da]
link DE to ADOBPECLI--><path d="M1392,87.731 C1392,121.424 1392,168.411 1392,198.141 " fill="none" id="DE-to-ADOBPECLI" style="stroke:#A80036;stroke-width:1.0;"/><polygon fill="#A80036" points="1392,203.484,1396,194.484,1392,198.484,1388,194.484,1392,203.484" style="stroke:#A80036;stroke-width:1.0;"/><text fill="#000000" font-family="sans-serif" font-size="13" lengthAdjust="spacing" textLength="210" x="1393" y="131.9951">Executes blueprint to validate output</text><!--MD5=[ecfffc8f399223b1f37e3547b07cd313]
link DE to ADOBPEUI--><path d="M1337.33,63.087 C1230.14,94.629 991.817,164.759 865.048,202.062 " fill="none" id="DE-to-ADOBPEUI" style="stroke:#A80036;stroke-width:1.0;"/><polygon fill="#A80036" points="860.214,203.485,869.9771,204.782,865.0107,202.0737,867.719,197.1073,860.214,203.485" style="stroke:#A80036;stroke-width:1.0;"/><text fill="#000000" font-family="sans-serif" font-size="13" lengthAdjust="spacing" textLength="210" x="1143" y="131.9951">Executes blueprint to validate output</text><!--MD5=[f03914cf41ceaa9c76bad50ff72fa8a4]
link ADOBPECLI to GITBP--><path d="M1502.1,233.96 C1575.44,240.17 1662.51,253.395 1686,281.5 C1691.13,287.638 1691.47,293.663 1686,299.5 C1664.73,322.193 1254.8,337.926 1053.57,344.314 " fill="none" id="ADOBPECLI-to-GITBP" style="stroke:#A80036;stroke-width:1.0;"/><polygon fill="#A80036" points="1048.56,344.473,1057.6812,348.1882,1053.5575,344.3159,1057.4299,340.1922,1048.56,344.473" style="stroke:#A80036;stroke-width:1.0;"/><text fill="#000000" font-family="sans-serif" font-size="13" lengthAdjust="spacing" textLength="77" x="1690" y="295.9951">Interacts with</text><!--MD5=[9aba8add40e295c3001a58c732db5928]
link ADOBPECLI to GITPROJECT--><path d="M1281.76,243.169 C1222.16,252.145 1147.54,265.076 1082,281.5 C1057.46,287.65 1052.84,294.685 1028,299.5 C814.239,340.946 755.778,309.036 539,329.5 C526.854,330.647 514.141,332.022 501.532,333.494 " fill="none" id="ADOBPECLI-to-GITPROJECT" style="stroke:#A80036;stroke-width:1.0;"/><polygon fill="#A80036" points="496.518,334.085,505.9246,337.0032,501.4836,333.4993,504.9875,329.0583,496.518,334.085" style="stroke:#A80036;stroke-width:1.0;"/><text fill="#000000" font-family="sans-serif" font-size="13" lengthAdjust="spacing" textLength="261" x="1083" y="295.9951">Generates XL updates, then runs pull request</text><!--MD5=[a7b095c2047f901e22375c725410f05c]
link ADOBPECLI to GITAPP--><path d="M1385.86,251.52 C1380.19,267.878 1370.01,288.775 1353,299.5 C1303.01,331.013 880.874,324.401 822,329.5 C809.807,330.556 797.088,331.805 784.414,333.144 " fill="none" id="ADOBPECLI-to-GITAPP" style="stroke:#A80036;stroke-width:1.0;"/><polygon fill="#A80036" points="779.371,333.682,788.7443,336.7054,784.3428,333.152,787.8963,328.7505,779.371,333.682" style="stroke:#A80036;stroke-width:1.0;"/><text fill="#000000" font-family="sans-serif" font-size="13" lengthAdjust="spacing" textLength="291" x="1372" y="295.9951">Generates pipeline updates, then runs pull request</text><!--MD5=[ada7e2c3c418aab6eddf0ac360e001dc]
link ADOBPEUI to GITBP--><path d="M890.235,251.652 C905.642,259.013 919.971,268.714 931,281.5 C941.034,293.132 944.189,310.236 944.885,324.117 " fill="none" id="ADOBPEUI-to-GITBP" style="stroke:#A80036;stroke-width:1.0;"/><polygon fill="#A80036" points="945.042,329.454,948.7728,320.3391,944.8935,324.4562,940.7764,320.5768,945.042,329.454" style="stroke:#A80036;stroke-width:1.0;"/><text fill="#000000" font-family="sans-serif" font-size="13" lengthAdjust="spacing" textLength="77" x="942" y="295.9951">Interacts with</text><!--MD5=[f0632d1128dee201aea9a02c92d88037]
link ADOBPEUI to GITPROJECT--><path d="M659.351,250.877 C657.893,251.089 656.442,251.297 655,251.5 C589.533,260.731 403.331,232.449 359,281.5 C347.091,294.677 358.196,312.052 371.558,325.666 " fill="none" id="ADOBPEUI-to-GITPROJECT" style="stroke:#A80036;stroke-width:1.0;"/><polygon fill="#A80036" points="375.369,329.4,371.7389,320.2445,371.7972,325.9011,366.1407,325.9594,375.369,329.4" style="stroke:#A80036;stroke-width:1.0;"/><text fill="#000000" font-family="sans-serif" font-size="13" lengthAdjust="spacing" textLength="261" x="360" y="295.9951">Generates XL updates, then runs pull request</text><!--MD5=[8945b095ec0a450c58902d13084cd288]
link ADOBPEUI to GITAPP--><path d="M669.341,251.535 C655.477,258.927 643.034,268.668 634,281.5 C624.316,295.254 633.341,312.136 644.516,325.383 " fill="none" id="ADOBPEUI-to-GITAPP" style="stroke:#A80036;stroke-width:1.0;"/><polygon fill="#A80036" points="648.035,329.37,645.0801,319.9749,644.727,325.6207,639.0812,325.2676,648.035,329.37" style="stroke:#A80036;stroke-width:1.0;"/><text fill="#000000" font-family="sans-serif" font-size="13" lengthAdjust="spacing" textLength="291" x="635" y="295.9951">Generates pipeline updates, then runs pull request</text><!--MD5=[c1bbb9a79c8b7fd445716277f376c85f]
link GITPROJECT to BPMS--><path d="M299.173,360.054 C222.765,369.236 128.013,383.269 116,397.5 C106.18,409.133 107.403,425.961 111.328,440.315 " fill="none" id="GITPROJECT-to-BPMS" style="stroke:#A80036;stroke-width:1.0;"/><polygon fill="#A80036" points="112.882,445.477,114.1208,435.7064,111.4421,440.6888,106.4597,438.0102,112.882,445.477" style="stroke:#A80036;stroke-width:1.0;"/><text fill="#000000" font-family="sans-serif" font-size="13" lengthAdjust="spacing" textLength="354" x="117" y="411.9951">When a pull request completes executable yaml is executed.</text><!--MD5=[8da8663a9ab7da4513758c3476ce4e29]
link GITAPP to BPMS--><path d="M595.52,367.579 C567.672,375.47 535.891,385.645 508,397.5 C492.983,403.883 491.434,410.201 476,415.5 C470.371,417.433 344.327,436.139 244.446,450.787 " fill="none" id="GITAPP-to-BPMS" style="stroke:#A80036;stroke-width:1.0;"/><polygon fill="#A80036" points="239.41,451.526,248.8945,454.1801,244.3573,450.8017,247.7356,446.2644,239.41,451.526" style="stroke:#A80036;stroke-width:1.0;"/><text fill="#000000" font-family="sans-serif" font-size="13" lengthAdjust="spacing" textLength="354" x="509" y="411.9951">When a pull request completes executable yaml is executed.</text><!--MD5=[258ce8f19d17cec6727b4b94d1c19843]
link GITAPP to ADOP--><path d="M779.251,363.222 C820.164,370.745 859.576,381.813 872,397.5 C876.967,403.771 877.031,409.28 872,415.5 C849.636,443.149 756.745,457.008 691.241,463.471 " fill="none" id="GITAPP-to-ADOP" style="stroke:#A80036;stroke-width:1.0;"/><polygon fill="#A80036" points="686.179,463.961,695.5232,467.0733,691.1556,463.4782,694.7507,459.1106,686.179,463.961" style="stroke:#A80036;stroke-width:1.0;"/><text fill="#000000" font-family="sans-serif" font-size="13" lengthAdjust="spacing" textLength="136" x="877" y="411.9951">Starts pipeline instance</text><!--MD5=[2bc508acc1c6850c1569b0fcab182220]
link ADOP to XLD--><path d="M616.019,493.766 C609.146,512.306 598.255,538.5409 585,559.5 C579.292,568.5263 572.099,577.5851 565.109,585.5959 " fill="none" id="ADOP-to-XLD" style="stroke:#A80036;stroke-width:1.0;"/><polygon fill="#A80036" points="561.7,589.4396,570.6639,585.3593,565.0172,585.6984,564.678,580.0518,561.7,589.4396" style="stroke:#A80036;stroke-width:1.0;"/><text fill="#000000" font-family="sans-serif" font-size="13" lengthAdjust="spacing" textLength="164" x="596" y="555.9951">Creates application instance</text><!--MD5=[cbaeeb0952972422a7491b7080137906]
link ADOP to XLR--><path d="M561.853,474.406 C492.39,480.833 378.111,497.676 290,541.5 C268.239,552.3232 247.578,570.2792 232.439,585.4252 " fill="none" id="ADOP-to-XLR" style="stroke:#A80036;stroke-width:1.0;"/><polygon fill="#A80036" points="228.711,589.2093,237.8761,585.6035,232.2194,585.6468,232.1761,579.9901,228.711,589.2093" style="stroke:#A80036;stroke-width:1.0;"/><text fill="#000000" font-family="sans-serif" font-size="13" lengthAdjust="spacing" textLength="119" x="291" y="555.9951">Creates release plan</text><!--MD5=[f677efd285abee8650104715550665a1]
link ADO to BPMS--><path d="M266.5948,232.9935 C266.4581,233.0692 266.3199,233.1458 266.1803,233.2233 C265.6216,233.5333 265.0394,233.8582 264.4344,234.1978 C263.2244,234.877 261.9232,235.615 260.5377,236.4108 C257.7668,238.0023 254.6586,239.8249 251.2675,241.8705 C237.7032,250.0525 219.6131,261.8001 200.4789,276.5844 C162.2105,306.153 119.766,347.8685 101,397.5 C95.0669,413.192 100.8328,431.256 107.946,445.236 " fill="none" id="ADO-BPMS" style="stroke:#A80036;stroke-width:1.0;"/><text fill="#000000" font-family="sans-serif" font-size="13" lengthAdjust="spacing" textLength="120" x="145" y="353.9951">Changes ADO state.</text><!--MD5=[1ec21bb2c9a45788df368c11436587fb]
link BPMS to XLD--><path d="M170.071,493.581 C201.307,507.747 243.65,524.791 283,533.5 C340.386,546.2012 358.684,524.678 415,541.5 C416.123,541.8355 459.182,566.5457 494.244,586.7189 " fill="none" id="BPMS-to-XLD" style="stroke:#A80036;stroke-width:1.0;"/><polygon fill="#A80036" points="498.914,589.4061,493.109,581.4498,494.5805,586.9119,489.1184,588.3834,498.914,589.4061" style="stroke:#A80036;stroke-width:1.0;"/><text fill="#000000" font-family="sans-serif" font-size="13" lengthAdjust="spacing" textLength="128" x="447" y="555.9951">Changes configuration</text><!--MD5=[6cb1f08cc0196eee706a807e098c421b]
link BPMS to XLR--><path d="M115.926,493.636 C111.543,512.586 108.667,539.4449 120,559.5 C126.429,570.8772 136.387,580.0836 147.328,587.4297 " fill="none" id="BPMS-to-XLR" style="stroke:#A80036;stroke-width:1.0;"/><polygon fill="#A80036" points="151.73,590.2575,146.3201,582.0275,147.5234,587.5549,141.9959,588.7581,151.73,590.2575" style="stroke:#A80036;stroke-width:1.0;"/><text fill="#000000" font-family="sans-serif" font-size="13" lengthAdjust="spacing" textLength="128" x="121" y="555.9951">Changes configuration</text><!--MD5=[92d2baf1592771c15b41c468f90d235e]
@startuml COE_DE_Process_components.svg
actor DE as "Devops Engineer"
component ADOBPECLI as "COE Blueprint Execution CLI"
component BPMS as "Executable Yaml Micro-service"
cloud ADO {
    component ADOBPEUI as "ADO COE Blueprint Execution UI"
    component ADOP as "ADO Pipeline"
    storage GITBP as "ADO Blueprint GIT Repository"
    storage GITPROJECT as "ADO Project GIT Repository"
    storage GITAPP as "ADO Application GIT Repository"
}
component XLR as "XL Release"
component XLD as "XL Deploy"

DE -do-> GITBP: Modifies Blueprints to customize pipeline/deploy/release automation to project needs
DE -do-> ADOBPECLI: Executes blueprint to validate output
DE -do-> ADOBPEUI: Executes blueprint to validate output
ADOBPECLI -do-> GITBP: Interacts with
ADOBPECLI -do-> GITPROJECT: Generates XL updates, then runs pull request
ADOBPECLI -do-> GITAPP: Generates pipeline updates, then runs pull request
ADOBPEUI -do-> GITBP: Interacts with
ADOBPEUI -do-> GITPROJECT: Generates XL updates, then runs pull request
ADOBPEUI -do-> GITAPP: Generates pipeline updates, then runs pull request

GITPROJECT -do-> BPMS: When a pull request completes executable yaml is executed.
GITAPP -do-> BPMS: When a pull request completes executable yaml is executed.
GITAPP -do-> ADOP: Starts pipeline instance
ADOP -do-> XLD:  Creates application instance
ADOP -do-> XLR:  Creates release plan

BPMS -up- ADO: Changes ADO state.
BPMS -do-> XLD: Changes configuration
BPMS -do-> XLR: Changes configuration
@enduml

PlantUML version 1.2021.00(Sun Jan 10 03:25:05 MST 2021)
(GPL source distribution)
Java Runtime: OpenJDK Runtime Environment
JVM: OpenJDK 64-Bit Server VM
Default Encoding: Cp1252
Language: en
Country: US
--></g></svg>