<?xml version="1.0" encoding="UTF-8" standalone="no"?><svg xmlns="http://www.w3.org/2000/svg" xmlns:xlink="http://www.w3.org/1999/xlink" contentScriptType="application/ecmascript" contentStyleType="text/css" height="675px" preserveAspectRatio="none" style="width:2042px;height:675px;" version="1.1" viewBox="0 0 2042 675" width="2042px" zoomAndPan="magnify"><defs><filter height="300%" id="f4b6ptj" width="300%" x="-1" y="-1"><feGaussianBlur result="blurOut" stdDeviation="2.0"/><feColorMatrix in="blurOut" result="blurOut2" type="matrix" values="0 0 0 0 0 0 0 0 0 0 0 0 0 0 0 0 0 0 .4 0"/><feOffset dx="4.0" dy="4.0" in="blurOut2" result="blurOut3"/><feBlend in="SourceGraphic" in2="blurOut3" mode="normal"/></filter></defs><g><ellipse cx="1022.5" cy="20" fill="#000000" filter="url(#f4b6ptj)" rx="10" ry="10" style="stroke: none; stroke-width: 1.0;"/><rect fill="#FEFECE" filter="url(#f4b6ptj)" height="35.0938" rx="12.5" ry="12.5" style="stroke: #A80036; stroke-width: 1.5;" width="230" x="907.5" y="50"/><text fill="#000000" font-family="sans-serif" font-size="12" lengthAdjust="spacingAndGlyphs" textLength="210" x="917.5" y="72.457">Decompose project pipeline elements</text><rect fill="#000000" filter="url(#f4b6ptj)" height="6" rx="2.5" ry="2.5" style="stroke: #000000; stroke-width: 1.0;" width="2025" x="10" y="105.0938"/><rect fill="#FEFECE" filter="url(#f4b6ptj)" height="35.0938" rx="12.5" ry="12.5" style="stroke: #A80036; stroke-width: 1.5;" width="228" x="609.5" y="140.1406"/><text fill="#000000" font-family="sans-serif" font-size="12" lengthAdjust="spacingAndGlyphs" textLength="208" x="619.5" y="162.5977">Decompose static portions of pipeline</text><rect fill="#000000" filter="url(#f4b6ptj)" height="6" rx="2.5" ry="2.5" style="stroke: #000000; stroke-width: 1.0;" width="1399" x="24" y="204.2813"/><rect fill="#FEFECE" filter="url(#f4b6ptj)" height="35.0938" rx="12.5" ry="12.5" style="stroke: #A80036; stroke-width: 1.5;" width="260" x="127" y="230.2813"/><text fill="#000000" font-family="sans-serif" font-size="12" lengthAdjust="spacingAndGlyphs" textLength="240" x="137" y="252.7383">Determine environments required by project</text><rect fill="#FEFECE" filter="url(#f4b6ptj)" height="35.0938" rx="12.5" ry="12.5" style="stroke: #A80036; stroke-width: 1.5;" width="438" x="38" y="300.375"/><text fill="#000000" font-family="sans-serif" font-size="12" lengthAdjust="spacingAndGlyphs" textLength="418" x="48" y="322.832">Ensure blueprint definition has required templates to generate environments</text><rect fill="#FEFECE" filter="url(#f4b6ptj)" height="35.0938" rx="12.5" ry="12.5" style="stroke: #A80036; stroke-width: 1.5;" width="346" x="84" y="419.3867"/><text fill="#000000" font-family="sans-serif" font-size="12" lengthAdjust="spacingAndGlyphs" textLength="326" x="94" y="441.8438">Update environment blueprints to handle new requirements</text><polygon fill="#FEFECE" filter="url(#f4b6ptj)" points="180,370.4688,334,370.4688,346,382.4688,334,394.4688,180,394.4688,168,382.4688,180,370.4688" style="stroke: #A80036; stroke-width: 1.5;"/><text fill="#000000" font-family="sans-serif" font-size="11" lengthAdjust="spacingAndGlyphs" textLength="12" x="261" y="405.8877">no</text><text fill="#000000" font-family="sans-serif" font-size="11" lengthAdjust="spacingAndGlyphs" textLength="154" x="180" y="386.9697">has required blueprint templates</text><polygon fill="#FEFECE" filter="url(#f4b6ptj)" points="257,479.3984,269,491.3984,257,503.3984,245,491.3984,257,479.3984" style="stroke: #A80036; stroke-width: 1.5;"/><rect fill="#FEFECE" filter="url(#f4b6ptj)" height="35.0938" rx="12.5" ry="12.5" style="stroke: #A80036; stroke-width: 1.5;" width="312" x="565.5" y="230.2813"/><text fill="#000000" font-family="sans-serif" font-size="12" lengthAdjust="spacingAndGlyphs" textLength="292" x="575.5" y="252.7383">Determine infrustructure elements required by project</text><rect fill="#FEFECE" filter="url(#f4b6ptj)" height="35.0938" rx="12.5" ry="12.5" style="stroke: #A80036; stroke-width: 1.5;" width="435" x="504" y="300.375"/><text fill="#000000" font-family="sans-serif" font-size="12" lengthAdjust="spacingAndGlyphs" textLength="415" x="514" y="322.832">Ensure blueprint definition has required templates to generate infrustructure</text><rect fill="#FEFECE" filter="url(#f4b6ptj)" height="35.0938" rx="12.5" ry="12.5" style="stroke: #A80036; stroke-width: 1.5;" width="350" x="546.5" y="419.3867"/><text fill="#000000" font-family="sans-serif" font-size="12" lengthAdjust="spacingAndGlyphs" textLength="330" x="556.5" y="441.8438">Update infrustructure blueprints to handle new requirements</text><polygon fill="#FEFECE" filter="url(#f4b6ptj)" points="644.5,370.4688,798.5,370.4688,810.5,382.4688,798.5,394.4688,644.5,394.4688,632.5,382.4688,644.5,370.4688" style="stroke: #A80036; stroke-width: 1.5;"/><text fill="#000000" font-family="sans-serif" font-size="11" lengthAdjust="spacingAndGlyphs" textLength="12" x="725.5" y="405.8877">no</text><text fill="#000000" font-family="sans-serif" font-size="11" lengthAdjust="spacingAndGlyphs" textLength="154" x="644.5" y="386.9697">has required blueprint templates</text><polygon fill="#FEFECE" filter="url(#f4b6ptj)" points="721.5,479.3984,733.5,491.3984,721.5,503.3984,709.5,491.3984,721.5,479.3984" style="stroke: #A80036; stroke-width: 1.5;"/><rect fill="#FEFECE" filter="url(#f4b6ptj)" height="35.0938" rx="12.5" ry="12.5" style="stroke: #A80036; stroke-width: 1.5;" width="442" x="967" y="265.3281"/><text fill="#000000" font-family="sans-serif" font-size="12" lengthAdjust="spacingAndGlyphs" textLength="422" x="977" y="287.7852">Determine CI/CD or XL Release templates are update for a valid release plan</text><rect fill="#FEFECE" filter="url(#f4b6ptj)" height="35.0938" rx="12.5" ry="12.5" style="stroke: #A80036; stroke-width: 1.5;" width="207" x="1084.5" y="384.3398"/><text fill="#000000" font-family="sans-serif" font-size="12" lengthAdjust="spacingAndGlyphs" textLength="187" x="1094.5" y="406.7969">Update XL Release template yaml</text><polygon fill="#FEFECE" filter="url(#f4b6ptj)" points="1123.5,335.4219,1252.5,335.4219,1264.5,347.4219,1252.5,359.4219,1123.5,359.4219,1111.5,347.4219,1123.5,335.4219" style="stroke: #A80036; stroke-width: 1.5;"/><text fill="#000000" font-family="sans-serif" font-size="11" lengthAdjust="spacingAndGlyphs" textLength="12" x="1192" y="370.8408">no</text><text fill="#000000" font-family="sans-serif" font-size="11" lengthAdjust="spacingAndGlyphs" textLength="129" x="1123.5" y="351.9229">valid XL Release templates</text><polygon fill="#FEFECE" filter="url(#f4b6ptj)" points="1188,444.3516,1200,456.3516,1188,468.3516,1176,456.3516,1188,444.3516" style="stroke: #A80036; stroke-width: 1.5;"/><rect fill="#000000" filter="url(#f4b6ptj)" height="6" rx="2.5" ry="2.5" style="stroke: #000000; stroke-width: 1.0;" width="1399" x="24" y="523.3984"/><rect fill="#FEFECE" filter="url(#f4b6ptj)" height="35.0938" rx="12.5" ry="12.5" style="stroke: #A80036; stroke-width: 1.5;" width="281" x="583" y="558.4453"/><text fill="#000000" font-family="sans-serif" font-size="12" lengthAdjust="spacingAndGlyphs" textLength="261" x="593" y="580.9023">Execute test on static blueprints to 'devops' repo</text><rect fill="#FEFECE" filter="url(#f4b6ptj)" height="35.0938" rx="12.5" ry="12.5" style="stroke: #A80036; stroke-width: 1.5;" width="317" x="1577.5" y="131.0938"/><text fill="#000000" font-family="sans-serif" font-size="12" lengthAdjust="spacingAndGlyphs" textLength="297" x="1587.5" y="153.5508">Decompose to application specific portions of pipeline</text><rect fill="#FEFECE" filter="url(#f4b6ptj)" height="35.0938" rx="12.5" ry="12.5" style="stroke: #A80036; stroke-width: 1.5;" width="570" x="1451" y="195.2344"/><text fill="#000000" font-family="sans-serif" font-size="12" lengthAdjust="spacingAndGlyphs" textLength="550" x="1461" y="217.6914">Ensure app blueprint template has required executable yaml Git Repo, Build Definition, Branch Policy</text><rect fill="#FEFECE" filter="url(#f4b6ptj)" height="35.0938" rx="12.5" ry="12.5" style="stroke: #A80036; stroke-width: 1.5;" width="151" x="1660.5" y="314.2461"/><text fill="#000000" font-family="sans-serif" font-size="12" lengthAdjust="spacingAndGlyphs" textLength="131" x="1670.5" y="336.7031">Update executable yaml</text><polygon fill="#FEFECE" filter="url(#f4b6ptj)" points="1663.5,265.3281,1808.5,265.3281,1820.5,277.3281,1808.5,289.3281,1663.5,289.3281,1651.5,277.3281,1663.5,265.3281" style="stroke: #A80036; stroke-width: 1.5;"/><text fill="#000000" font-family="sans-serif" font-size="11" lengthAdjust="spacingAndGlyphs" textLength="12" x="1740" y="300.7471">no</text><text fill="#000000" font-family="sans-serif" font-size="11" lengthAdjust="spacingAndGlyphs" textLength="145" x="1663.5" y="281.8291">has executable yaml elements</text><polygon fill="#FEFECE" filter="url(#f4b6ptj)" points="1736,374.2578,1748,386.2578,1736,398.2578,1724,386.2578,1736,374.2578" style="stroke: #A80036; stroke-width: 1.5;"/><rect fill="#FEFECE" filter="url(#f4b6ptj)" height="35.0938" rx="12.5" ry="12.5" style="stroke: #A80036; stroke-width: 1.5;" width="375" x="1548.5" y="433.2578"/><text fill="#000000" font-family="sans-serif" font-size="12" lengthAdjust="spacingAndGlyphs" textLength="355" x="1558.5" y="455.7148">Ensure app blueprint template has templates for build definitions</text><rect fill="#FEFECE" filter="url(#f4b6ptj)" height="35.0938" rx="12.5" ry="12.5" style="stroke: #A80036; stroke-width: 1.5;" width="412" x="1530" y="503.3516"/><text fill="#000000" font-family="sans-serif" font-size="12" lengthAdjust="spacingAndGlyphs" textLength="392" x="1540" y="525.8086">Ensure app blueprint has templates for any required deployment scripts</text><rect fill="#FEFECE" filter="url(#f4b6ptj)" height="35.0938" rx="12.5" ry="12.5" style="stroke: #A80036; stroke-width: 1.5;" width="192" x="1640" y="567.4922"/><text fill="#000000" font-family="sans-serif" font-size="12" lengthAdjust="spacingAndGlyphs" textLength="172" x="1650" y="589.9492">Execute tests on app blueprints</text><rect fill="#000000" filter="url(#f4b6ptj)" height="6" rx="2.5" ry="2.5" style="stroke: #000000; stroke-width: 1.0;" width="2025" x="10" y="622.5859"/><ellipse cx="1022.5" cy="658.5859" fill="none" filter="url(#f4b6ptj)" rx="10" ry="10" style="stroke: #000000; stroke-width: 1.0;"/><ellipse cx="1023" cy="659.0859" fill="#000000" filter="url(#f4b6ptj)" rx="6" ry="6" style="stroke: none; stroke-width: 1.0;"/><line style="stroke: #A80036; stroke-width: 1.5;" x1="1022.5" x2="1022.5" y1="30" y2="50"/><polygon fill="#A80036" points="1018.5,40,1022.5,50,1026.5,40,1022.5,44" style="stroke: #A80036; stroke-width: 1.0;"/><line style="stroke: #A80036; stroke-width: 1.5;" x1="257" x2="257" y1="265.375" y2="300.375"/><polygon fill="#A80036" points="253,290.375,257,300.375,261,290.375,257,294.375" style="stroke: #A80036; stroke-width: 1.0;"/><line style="stroke: #A80036; stroke-width: 1.5;" x1="257" x2="257" y1="394.4688" y2="419.3867"/><polygon fill="#A80036" points="253,409.3867,257,419.3867,261,409.3867,257,413.3867" style="stroke: #A80036; stroke-width: 1.0;"/><line style="stroke: #A80036; stroke-width: 1.5;" x1="346" x2="440" y1="382.4688" y2="382.4688"/><polygon fill="#A80036" points="436,426.9336,440,436.9336,444,426.9336,440,430.9336" style="stroke: #A80036; stroke-width: 1.5;"/><line style="stroke: #A80036; stroke-width: 1.5;" x1="440" x2="440" y1="382.4688" y2="491.3984"/><line style="stroke: #A80036; stroke-width: 1.5;" x1="440" x2="269" y1="491.3984" y2="491.3984"/><polygon fill="#A80036" points="279,487.3984,269,491.3984,279,495.3984,275,491.3984" style="stroke: #A80036; stroke-width: 1.0;"/><line style="stroke: #A80036; stroke-width: 1.5;" x1="257" x2="257" y1="454.4805" y2="479.3984"/><polygon fill="#A80036" points="253,469.3984,257,479.3984,261,469.3984,257,473.3984" style="stroke: #A80036; stroke-width: 1.0;"/><line style="stroke: #A80036; stroke-width: 1.5;" x1="257" x2="257" y1="335.4688" y2="370.4688"/><polygon fill="#A80036" points="253,360.4688,257,370.4688,261,360.4688,257,364.4688" style="stroke: #A80036; stroke-width: 1.0;"/><line style="stroke: #A80036; stroke-width: 1.5;" x1="721.5" x2="721.5" y1="265.375" y2="300.375"/><polygon fill="#A80036" points="717.5,290.375,721.5,300.375,725.5,290.375,721.5,294.375" style="stroke: #A80036; stroke-width: 1.0;"/><line style="stroke: #A80036; stroke-width: 1.5;" x1="721.5" x2="721.5" y1="394.4688" y2="419.3867"/><polygon fill="#A80036" points="717.5,409.3867,721.5,419.3867,725.5,409.3867,721.5,413.3867" style="stroke: #A80036; stroke-width: 1.0;"/><line style="stroke: #A80036; stroke-width: 1.5;" x1="810.5" x2="906.5" y1="382.4688" y2="382.4688"/><polygon fill="#A80036" points="902.5,426.9336,906.5,436.9336,910.5,426.9336,906.5,430.9336" style="stroke: #A80036; stroke-width: 1.5;"/><line style="stroke: #A80036; stroke-width: 1.5;" x1="906.5" x2="906.5" y1="382.4688" y2="491.3984"/><line style="stroke: #A80036; stroke-width: 1.5;" x1="906.5" x2="733.5" y1="491.3984" y2="491.3984"/><polygon fill="#A80036" points="743.5,487.3984,733.5,491.3984,743.5,495.3984,739.5,491.3984" style="stroke: #A80036; stroke-width: 1.0;"/><line style="stroke: #A80036; stroke-width: 1.5;" x1="721.5" x2="721.5" y1="454.4805" y2="479.3984"/><polygon fill="#A80036" points="717.5,469.3984,721.5,479.3984,725.5,469.3984,721.5,473.3984" style="stroke: #A80036; stroke-width: 1.0;"/><line style="stroke: #A80036; stroke-width: 1.5;" x1="721.5" x2="721.5" y1="335.4688" y2="370.4688"/><polygon fill="#A80036" points="717.5,360.4688,721.5,370.4688,725.5,360.4688,721.5,364.4688" style="stroke: #A80036; stroke-width: 1.0;"/><line style="stroke: #A80036; stroke-width: 1.5;" x1="1188" x2="1188" y1="359.4219" y2="384.3398"/><polygon fill="#A80036" points="1184,374.3398,1188,384.3398,1192,374.3398,1188,378.3398" style="stroke: #A80036; stroke-width: 1.0;"/><line style="stroke: #A80036; stroke-width: 1.5;" x1="1264.5" x2="1301.5" y1="347.4219" y2="347.4219"/><polygon fill="#A80036" points="1297.5,391.8867,1301.5,401.8867,1305.5,391.8867,1301.5,395.8867" style="stroke: #A80036; stroke-width: 1.5;"/><line style="stroke: #A80036; stroke-width: 1.5;" x1="1301.5" x2="1301.5" y1="347.4219" y2="456.3516"/><line style="stroke: #A80036; stroke-width: 1.5;" x1="1301.5" x2="1200" y1="456.3516" y2="456.3516"/><polygon fill="#A80036" points="1210,452.3516,1200,456.3516,1210,460.3516,1206,456.3516" style="stroke: #A80036; stroke-width: 1.0;"/><line style="stroke: #A80036; stroke-width: 1.5;" x1="1188" x2="1188" y1="419.4336" y2="444.3516"/><polygon fill="#A80036" points="1184,434.3516,1188,444.3516,1192,434.3516,1188,438.3516" style="stroke: #A80036; stroke-width: 1.0;"/><line style="stroke: #A80036; stroke-width: 1.5;" x1="1188" x2="1188" y1="300.4219" y2="335.4219"/><polygon fill="#A80036" points="1184,325.4219,1188,335.4219,1192,325.4219,1188,329.4219" style="stroke: #A80036; stroke-width: 1.0;"/><line style="stroke: #A80036; stroke-width: 1.5;" x1="257" x2="257" y1="210.2813" y2="230.2813"/><polygon fill="#A80036" points="253,220.2813,257,230.2813,261,220.2813,257,224.2813" style="stroke: #A80036; stroke-width: 1.0;"/><line style="stroke: #A80036; stroke-width: 1.5;" x1="721.5" x2="721.5" y1="210.2813" y2="230.2813"/><polygon fill="#A80036" points="717.5,220.2813,721.5,230.2813,725.5,220.2813,721.5,224.2813" style="stroke: #A80036; stroke-width: 1.0;"/><line style="stroke: #A80036; stroke-width: 1.5;" x1="1188" x2="1188" y1="210.2813" y2="265.3281"/><polygon fill="#A80036" points="1184,255.3281,1188,265.3281,1192,255.3281,1188,259.3281" style="stroke: #A80036; stroke-width: 1.0;"/><line style="stroke: #A80036; stroke-width: 1.5;" x1="257" x2="257" y1="503.3984" y2="523.3984"/><polygon fill="#A80036" points="253,513.3984,257,523.3984,261,513.3984,257,517.3984" style="stroke: #A80036; stroke-width: 1.0;"/><line style="stroke: #A80036; stroke-width: 1.5;" x1="721.5" x2="721.5" y1="503.3984" y2="523.3984"/><polygon fill="#A80036" points="717.5,513.3984,721.5,523.3984,725.5,513.3984,721.5,517.3984" style="stroke: #A80036; stroke-width: 1.0;"/><line style="stroke: #A80036; stroke-width: 1.5;" x1="1188" x2="1188" y1="468.3516" y2="523.3984"/><polygon fill="#A80036" points="1184,513.3984,1188,523.3984,1192,513.3984,1188,517.3984" style="stroke: #A80036; stroke-width: 1.0;"/><line style="stroke: #A80036; stroke-width: 1.5;" x1="723.5" x2="723.5" y1="175.2344" y2="204.2813"/><polygon fill="#A80036" points="719.5,194.2813,723.5,204.2813,727.5,194.2813,723.5,198.2813" style="stroke: #A80036; stroke-width: 1.0;"/><line style="stroke: #A80036; stroke-width: 1.5;" x1="723.5" x2="723.5" y1="529.3984" y2="558.4453"/><polygon fill="#A80036" points="719.5,548.4453,723.5,558.4453,727.5,548.4453,723.5,552.4453" style="stroke: #A80036; stroke-width: 1.0;"/><line style="stroke: #A80036; stroke-width: 1.5;" x1="1736" x2="1736" y1="166.1875" y2="195.2344"/><polygon fill="#A80036" points="1732,185.2344,1736,195.2344,1740,185.2344,1736,189.2344" style="stroke: #A80036; stroke-width: 1.0;"/><line style="stroke: #A80036; stroke-width: 1.5;" x1="1736" x2="1736" y1="289.3281" y2="314.2461"/><polygon fill="#A80036" points="1732,304.2461,1736,314.2461,1740,304.2461,1736,308.2461" style="stroke: #A80036; stroke-width: 1.0;"/><line style="stroke: #A80036; stroke-width: 1.5;" x1="1820.5" x2="1832.5" y1="277.3281" y2="277.3281"/><polygon fill="#A80036" points="1828.5,321.793,1832.5,331.793,1836.5,321.793,1832.5,325.793" style="stroke: #A80036; stroke-width: 1.5;"/><line style="stroke: #A80036; stroke-width: 1.5;" x1="1832.5" x2="1832.5" y1="277.3281" y2="386.2578"/><line style="stroke: #A80036; stroke-width: 1.5;" x1="1832.5" x2="1748" y1="386.2578" y2="386.2578"/><polygon fill="#A80036" points="1758,382.2578,1748,386.2578,1758,390.2578,1754,386.2578" style="stroke: #A80036; stroke-width: 1.0;"/><line style="stroke: #A80036; stroke-width: 1.5;" x1="1736" x2="1736" y1="349.3398" y2="374.2578"/><polygon fill="#A80036" points="1732,364.2578,1736,374.2578,1740,364.2578,1736,368.2578" style="stroke: #A80036; stroke-width: 1.0;"/><line style="stroke: #A80036; stroke-width: 1.5;" x1="1736" x2="1736" y1="230.3281" y2="265.3281"/><polygon fill="#A80036" points="1732,255.3281,1736,265.3281,1740,255.3281,1736,259.3281" style="stroke: #A80036; stroke-width: 1.0;"/><line style="stroke: #A80036; stroke-width: 1.5;" x1="1736" x2="1736" y1="398.2578" y2="433.2578"/><polygon fill="#A80036" points="1732,423.2578,1736,433.2578,1740,423.2578,1736,427.2578" style="stroke: #A80036; stroke-width: 1.0;"/><line style="stroke: #A80036; stroke-width: 1.5;" x1="1736" x2="1736" y1="468.3516" y2="503.3516"/><polygon fill="#A80036" points="1732,493.3516,1736,503.3516,1740,493.3516,1736,497.3516" style="stroke: #A80036; stroke-width: 1.0;"/><line style="stroke: #A80036; stroke-width: 1.5;" x1="1736" x2="1736" y1="538.4453" y2="567.4922"/><polygon fill="#A80036" points="1732,557.4922,1736,567.4922,1740,557.4922,1736,561.4922" style="stroke: #A80036; stroke-width: 1.0;"/><line style="stroke: #A80036; stroke-width: 1.5;" x1="723.5" x2="723.5" y1="111.0938" y2="140.1406"/><polygon fill="#A80036" points="719.5,130.1406,723.5,140.1406,727.5,130.1406,723.5,134.1406" style="stroke: #A80036; stroke-width: 1.0;"/><line style="stroke: #A80036; stroke-width: 1.5;" x1="1736" x2="1736" y1="111.0938" y2="131.0938"/><polygon fill="#A80036" points="1732,121.0938,1736,131.0938,1740,121.0938,1736,125.0938" style="stroke: #A80036; stroke-width: 1.0;"/><line style="stroke: #A80036; stroke-width: 1.5;" x1="723.5" x2="723.5" y1="593.5391" y2="622.5859"/><polygon fill="#A80036" points="719.5,612.5859,723.5,622.5859,727.5,612.5859,723.5,616.5859" style="stroke: #A80036; stroke-width: 1.0;"/><line style="stroke: #A80036; stroke-width: 1.5;" x1="1736" x2="1736" y1="602.5859" y2="622.5859"/><polygon fill="#A80036" points="1732,612.5859,1736,622.5859,1740,612.5859,1736,616.5859" style="stroke: #A80036; stroke-width: 1.0;"/><line style="stroke: #A80036; stroke-width: 1.5;" x1="1022.5" x2="1022.5" y1="85.0938" y2="105.0938"/><polygon fill="#A80036" points="1018.5,95.0938,1022.5,105.0938,1026.5,95.0938,1022.5,99.0938" style="stroke: #A80036; stroke-width: 1.0;"/><line style="stroke: #A80036; stroke-width: 1.5;" x1="1022.5" x2="1022.5" y1="628.5859" y2="648.5859"/><polygon fill="#A80036" points="1018.5,638.5859,1022.5,648.5859,1026.5,638.5859,1022.5,642.5859" style="stroke: #A80036; stroke-width: 1.0;"/></g></svg>