<?xml version="1.0" encoding="UTF-8" standalone="no"?><svg xmlns="http://www.w3.org/2000/svg" xmlns:xlink="http://www.w3.org/1999/xlink" contentScriptType="application/ecmascript" contentStyleType="text/css" height="242px" preserveAspectRatio="none" style="width:237px;height:242px;" version="1.1" viewBox="0 0 237 242" width="237px" zoomAndPan="magnify"><defs><filter height="300%" id="fpb4pie" width="300%" x="-1" y="-1"><feGaussianBlur result="blurOut" stdDeviation="2.0"/><feColorMatrix in="blurOut" result="blurOut2" type="matrix" values="0 0 0 0 0 0 0 0 0 0 0 0 0 0 0 0 0 0 .4 0"/><feOffset dx="4.0" dy="4.0" in="blurOut2" result="blurOut3"/><feBlend in="SourceGraphic" in2="blurOut3" mode="normal"/></filter></defs><g><ellipse cx="120" cy="20" fill="#000000" filter="url(#fpb4pie)" rx="10" ry="10" style="stroke: none; stroke-width: 1.0;"/><rect fill="#FEFECE" filter="url(#fpb4pie)" height="35.0938" rx="12.5" ry="12.5" style="stroke: #A80036; stroke-width: 1.5;" width="159" x="40.5" y="50"/><text fill="#000000" font-family="sans-serif" font-size="12" lengthAdjust="spacingAndGlyphs" textLength="139" x="50.5" y="72.457">Start blueprint application</text><rect fill="#FEFECE" filter="url(#fpb4pie)" height="35.0938" rx="12.5" ry="12.5" style="stroke: #A80036; stroke-width: 1.5;" width="154" x="43" y="105.0938"/><text fill="#000000" font-family="sans-serif" font-size="12" lengthAdjust="spacingAndGlyphs" textLength="134" x="53" y="127.5508">Select required blueprint</text><rect fill="#FEFECE" filter="url(#fpb4pie)" height="35.0938" rx="12.5" ry="12.5" style="stroke: #A80036; stroke-width: 1.5;" width="220" x="10" y="160.1875"/><text fill="#000000" font-family="sans-serif" font-size="12" lengthAdjust="spacingAndGlyphs" textLength="200" x="20" y="182.6445">Answer selected blueprint questions</text><ellipse cx="120" cy="225.2813" fill="none" filter="url(#fpb4pie)" rx="10" ry="10" style="stroke: #000000; stroke-width: 1.0;"/><ellipse cx="120.5" cy="225.7813" fill="#000000" filter="url(#fpb4pie)" rx="6" ry="6" style="stroke: none; stroke-width: 1.0;"/><line style="stroke: #A80036; stroke-width: 1.5;" x1="120" x2="120" y1="30" y2="50"/><polygon fill="#A80036" points="116,40,120,50,124,40,120,44" style="stroke: #A80036; stroke-width: 1.0;"/><line style="stroke: #A80036; stroke-width: 1.5;" x1="120" x2="120" y1="85.0938" y2="105.0938"/><polygon fill="#A80036" points="116,95.0938,120,105.0938,124,95.0938,120,99.0938" style="stroke: #A80036; stroke-width: 1.0;"/><line style="stroke: #A80036; stroke-width: 1.5;" x1="120" x2="120" y1="140.1875" y2="160.1875"/><polygon fill="#A80036" points="116,150.1875,120,160.1875,124,150.1875,120,154.1875" style="stroke: #A80036; stroke-width: 1.0;"/><line style="stroke: #A80036; stroke-width: 1.5;" x1="120" x2="120" y1="195.2813" y2="215.2813"/><polygon fill="#A80036" points="116,205.2813,120,215.2813,124,205.2813,120,209.2813" style="stroke: #A80036; stroke-width: 1.0;"/></g></svg>