<?xml version="1.0" encoding="UTF-8" standalone="no"?><svg xmlns="http://www.w3.org/2000/svg" xmlns:xlink="http://www.w3.org/1999/xlink" contentScriptType="application/ecmascript" contentStyleType="text/css" height="254px" preserveAspectRatio="none" style="width:248px;height:254px;" version="1.1" viewBox="0 0 248 254" width="248px" zoomAndPan="magnify"><defs><filter height="300%" id="f3wc98idb76hp" width="300%" x="-1" y="-1"><feGaussianBlur result="blurOut" stdDeviation="2.0"/><feColorMatrix in="blurOut" result="blurOut2" type="matrix" values="0 0 0 0 0 0 0 0 0 0 0 0 0 0 0 0 0 0 .4 0"/><feOffset dx="4.0" dy="4.0" in="blurOut2" result="blurOut3"/><feBlend in="SourceGraphic" in2="blurOut3" mode="normal"/></filter></defs><g><ellipse cx="121" cy="20" fill="#000000" filter="url(#f3wc98idb76hp)" rx="10" ry="10" style="stroke:none;stroke-width:1.0;"/><rect fill="#FEFECE" filter="url(#f3wc98idb76hp)" height="35.0938" rx="12.5" ry="12.5" style="stroke:#A80036;stroke-width:1.5;" width="159" x="41.5" y="50"/><text fill="#000000" font-family="sans-serif" font-size="12" lengthAdjust="spacing" textLength="139" x="51.5" y="72.457">Start blueprint application</text><rect fill="#FEFECE" filter="url(#f3wc98idb76hp)" height="35.0938" rx="12.5" ry="12.5" style="stroke:#A80036;stroke-width:1.5;" width="154" x="44" y="105.0938"/><text fill="#000000" font-family="sans-serif" font-size="12" lengthAdjust="spacing" textLength="134" x="54" y="127.5508">Select required blueprint</text><rect fill="#FEFECE" filter="url(#f3wc98idb76hp)" height="35.0938" rx="12.5" ry="12.5" style="stroke:#A80036;stroke-width:1.5;" width="220" x="11" y="160.1875"/><text fill="#000000" font-family="sans-serif" font-size="12" lengthAdjust="spacing" textLength="200" x="21" y="182.6445">Answer selected blueprint questions</text><ellipse cx="121" cy="226.2813" fill="#FFFFFF" filter="url(#f3wc98idb76hp)" rx="11" ry="11" style="stroke:#000000;stroke-width:1.0;"/><ellipse cx="121" cy="226.2813" fill="#000000" rx="6" ry="6" style="stroke:#7F7F7F;stroke-width:1.0;"/><line style="stroke:#A80036;stroke-width:1.5;" x1="121" x2="121" y1="30" y2="50"/><polygon fill="#A80036" points="117,40,121,50,125,40,121,44" style="stroke:#A80036;stroke-width:1.0;"/><line style="stroke:#A80036;stroke-width:1.5;" x1="121" x2="121" y1="85.0938" y2="105.0938"/><polygon fill="#A80036" points="117,95.0938,121,105.0938,125,95.0938,121,99.0938" style="stroke:#A80036;stroke-width:1.0;"/><line style="stroke:#A80036;stroke-width:1.5;" x1="121" x2="121" y1="140.1875" y2="160.1875"/><polygon fill="#A80036" points="117,150.1875,121,160.1875,125,150.1875,121,154.1875" style="stroke:#A80036;stroke-width:1.0;"/><line style="stroke:#A80036;stroke-width:1.5;" x1="121" x2="121" y1="195.2813" y2="215.2813"/><polygon fill="#A80036" points="117,205.2813,121,215.2813,125,205.2813,121,209.2813" style="stroke:#A80036;stroke-width:1.0;"/><!--MD5=[6b4c5da607efac9a59936c19bedf111f]
@startuml COE_AD_Process_activities.svg
start
:Start blueprint application;
:Select required blueprint;
:Answer selected blueprint questions;
stop
@enduml

PlantUML version 1.2021.00(Sun Jan 10 03:25:05 MST 2021)
(GPL source distribution)
Java Runtime: OpenJDK Runtime Environment
JVM: OpenJDK 64-Bit Server VM
Default Encoding: Cp1252
Language: en
Country: US
--></g></svg>