<?xml version="1.0" encoding="UTF-8" standalone="no"?><svg xmlns="http://www.w3.org/2000/svg" xmlns:xlink="http://www.w3.org/1999/xlink" contentScriptType="application/ecmascript" contentStyleType="text/css" height="651px" preserveAspectRatio="none" style="width:1816px;height:651px;" version="1.1" viewBox="0 0 1816 651" width="1816px" zoomAndPan="magnify"><defs><filter height="300%" id="f1s8vi1oofwsjz" width="300%" x="-1" y="-1"><feGaussianBlur result="blurOut" stdDeviation="2.0"/><feColorMatrix in="blurOut" result="blurOut2" type="matrix" values="0 0 0 0 0 0 0 0 0 0 0 0 0 0 0 0 0 0 .4 0"/><feOffset dx="4.0" dy="4.0" in="blurOut2" result="blurOut3"/><feBlend in="SourceGraphic" in2="blurOut3" mode="normal"/></filter></defs><g><!--MD5=[96a69031cb5028f63488fb2297256f91]
cluster ADO--><path d="M284.2145,173.187 C303.1882,140.1254 326.5094,140.9252 347.3717,171.3069 C359.6634,152.5508 381.3225,151.5981 392.8616,172.1773 C408.5586,143.7807 435.4544,142.0545 454.7699,168.0595 C469.2269,140.287 491.2014,141.4056 510.7925,162.1284 C529.9018,136.3128 554.074,143.3967 567.5259,168.4393 C578.3657,140.0278 596.5574,140.721 616.356,159.0874 C634.3015,133.4622 652.4814,129.9147 671.7616,157.7031 C696.6563,127.9733 714.0176,137.0325 731.544,165.2984 C749.5059,141.2069 766.3303,131.9839 788.1411,161.213 C806.4715,138.6229 826.5877,139.8756 841.8988,164.6405 C862.8287,141.1255 880.6159,138.3871 898.4365,167.9523 C911.7895,145.2843 937.4035,142.5936 950.2233,168.5205 C966.0419,141.4086 990.0047,141.3146 1005.3668,168.9799 C1023.9466,139.4173 1052.0357,143.398 1065,174.5 C1068.3217,173.0847 1070.3681,174.6167 1069.7094,178.2287 C1095.3441,191.5983 1100.5496,211.1505 1076.4496,230.8861 C1102.9218,252.0684 1105.2732,271.5448 1074.4232,290.7879 C1102.1887,309.2394 1095.528,329.7807 1070.5476,344.4207 C1092.3843,361.207 1092.1071,377.3671 1071.9623,395.3202 C1097.4112,411.5677 1098.5071,431.3064 1075.209,450.4259 C1098.0826,474.0077 1094.621,503.2496 1058,509.5 C1061.7083,508.2441 1063.1608,509.8988 1063.2666,513.4483 C1042.701,539.1722 1023.8878,539.7293 1004.6063,512.0381 C994.4187,539.1661 966.1748,542.5383 948.0585,521.3098 C934.7064,542.3749 909.5572,541.542 897.194,520.1258 C878.7149,543.9468 860.2389,548.5509 841.565,520.3341 C823.817,543.1197 808.0786,542.5355 790.8143,519.7949 C775.9676,550.2055 749.3074,550.5972 730.9386,523.4596 C715.5406,551.0909 697.1911,550.3577 679.8542,525.3409 C664.5217,555.896 641.7717,553.3046 622.6378,529.3296 C600.101,548.5868 583.1222,549.3922 567.7912,521.0301 C554.4999,551.0759 524.8857,553.3102 506.9418,525.9629 C492.2316,551.1433 469.1652,547.6307 456.7108,523.6576 C433.5361,550.1495 415.2376,545.9107 401.9331,514.345 C387.3925,540.2843 360.567,539.1242 347.472,512.8376 C320.523,539.5404 292.3432,543.1393 275,502.5 C277.6008,499.9202 280.5971,500.7508 281.9448,503.9945 C259.5971,488.9216 260.1849,469.7144 281.4127,454.1762 C256.9984,440.3736 255.4295,418.0854 278.0317,401.2777 C254.7724,386.3287 254.1868,360.5687 278.1242,345.6983 C252.3354,328.0753 252.5783,301.5993 280.1465,285.777 C258.0555,272.8215 253.6307,252.862 275.5138,235.8279 C245.698,212.6263 249.3041,184.7675 282,167.5 C285.1937,168.0119 286.1407,170.6814 284.2145,173.187 " fill="#FFFFFF" filter="url(#f1s8vi1oofwsjz)" style="stroke:#000000;stroke-width:1.5;"/><text fill="#000000" font-family="sans-serif" font-size="14" font-weight="bold" lengthAdjust="spacing" textLength="30" x="655" y="187.0332">ADO</text><!--MD5=[3fe050580c5498524022764d1cf2ac4a]
entity ADOBPEUI--><rect fill="#FEFECE" filter="url(#f1s8vi1oofwsjz)" height="47.6094" style="stroke:#A80036;stroke-width:1.5;" width="245" x="635.5" y="203.5"/><rect fill="#FEFECE" height="10" style="stroke:#A80036;stroke-width:1.5;" width="15" x="860.5" y="208.5"/><rect fill="#FEFECE" height="2" style="stroke:#A80036;stroke-width:1.5;" width="4" x="858.5" y="210.5"/><rect fill="#FEFECE" height="2" style="stroke:#A80036;stroke-width:1.5;" width="4" x="858.5" y="214.5"/><text fill="#000000" font-family="sans-serif" font-size="14" lengthAdjust="spacing" textLength="205" x="650.5" y="238.0332">ADO COE Blueprint Execution UI</text><!--MD5=[aed3f4b62c649415c01bb447226abe59]
entity ADOP--><rect fill="#FEFECE" filter="url(#f1s8vi1oofwsjz)" height="47.6094" style="stroke:#A80036;stroke-width:1.5;" width="124" x="562" y="445.5"/><rect fill="#FEFECE" height="10" style="stroke:#A80036;stroke-width:1.5;" width="15" x="666" y="450.5"/><rect fill="#FEFECE" height="2" style="stroke:#A80036;stroke-width:1.5;" width="4" x="664" y="452.5"/><rect fill="#FEFECE" height="2" style="stroke:#A80036;stroke-width:1.5;" width="4" x="664" y="456.5"/><text fill="#000000" font-family="sans-serif" font-size="14" lengthAdjust="spacing" textLength="84" x="577" y="480.0332">ADO Pipeline</text><!--MD5=[e924c9beafa2d3778b717a926d40b33b]
entity GITBP--><rect fill="#FEFECE" filter="url(#f1s8vi1oofwsjz)" height="37.6094" rx="35" ry="35" style="stroke:#000000;stroke-width:1.5;" width="209" x="839.5" y="329.5"/><text fill="#000000" font-family="sans-serif" font-size="14" lengthAdjust="spacing" textLength="189" x="849.5" y="354.0332">ADO Blueprint GIT Repository</text><!--MD5=[f91d3cc291cdda5db2abdb96f2509dd9]
entity GITPROJECT--><rect fill="#FEFECE" filter="url(#f1s8vi1oofwsjz)" height="37.6094" rx="35" ry="35" style="stroke:#000000;stroke-width:1.5;" width="197" x="299.5" y="329.5"/><text fill="#000000" font-family="sans-serif" font-size="14" lengthAdjust="spacing" textLength="177" x="309.5" y="354.0332">ADO Project GIT Repository</text><!--MD5=[1960c54823456ba091b74915ba4e0847]
entity GITAPP--><rect fill="#FEFECE" filter="url(#f1s8vi1oofwsjz)" height="37.6094" rx="35" ry="35" style="stroke:#000000;stroke-width:1.5;" width="222" x="582" y="329.5"/><text fill="#000000" font-family="sans-serif" font-size="14" lengthAdjust="spacing" textLength="202" x="592" y="354.0332">ADO Application GIT Repository</text><!--MD5=[0bbf5511d91d17fcdd97aa38a0263a02]
entity AD--><ellipse cx="1072" cy="14" fill="#FEFECE" filter="url(#f1s8vi1oofwsjz)" rx="8" ry="8" style="stroke:#A80036;stroke-width:1.5;"/><path d="M1072,22 L1072,49 M1059,30 L1085,30 M1072,49 L1059,64 M1072,49 L1085,64 " fill="none" filter="url(#f1s8vi1oofwsjz)" style="stroke:#A80036;stroke-width:1.5;"/><text fill="#000000" font-family="sans-serif" font-size="14" lengthAdjust="spacing" textLength="138" x="1003" y="84.0332">Application Developer</text><!--MD5=[c9107ae21925a151a9cf0f84b871f142]
entity ADOBPECLI--><rect fill="#FEFECE" filter="url(#f1s8vi1oofwsjz)" height="47.6094" style="stroke:#A80036;stroke-width:1.5;" width="220" x="1332" y="203.5"/><rect fill="#FEFECE" height="10" style="stroke:#A80036;stroke-width:1.5;" width="15" x="1532" y="208.5"/><rect fill="#FEFECE" height="2" style="stroke:#A80036;stroke-width:1.5;" width="4" x="1530" y="210.5"/><rect fill="#FEFECE" height="2" style="stroke:#A80036;stroke-width:1.5;" width="4" x="1530" y="214.5"/><text fill="#000000" font-family="sans-serif" font-size="14" lengthAdjust="spacing" textLength="180" x="1347" y="238.0332">COE Blueprint Execution CLI</text><!--MD5=[5d8636d2914506b563167829027b61ed]
entity BPMS--><rect fill="#FEFECE" filter="url(#f1s8vi1oofwsjz)" height="47.6094" style="stroke:#A80036;stroke-width:1.5;" width="232" x="7" y="445.5"/><rect fill="#FEFECE" height="10" style="stroke:#A80036;stroke-width:1.5;" width="15" x="219" y="450.5"/><rect fill="#FEFECE" height="2" style="stroke:#A80036;stroke-width:1.5;" width="4" x="217" y="452.5"/><rect fill="#FEFECE" height="2" style="stroke:#A80036;stroke-width:1.5;" width="4" x="217" y="456.5"/><text fill="#000000" font-family="sans-serif" font-size="14" lengthAdjust="spacing" textLength="192" x="22" y="480.0332">Executable Yaml Micro-service</text><!--MD5=[8c9ae2b88bd12d07e6ae8c085d2ead40]
entity XLR--><rect fill="#FEFECE" filter="url(#f1s8vi1oofwsjz)" height="47.6094" style="stroke:#A80036;stroke-width:1.5;" width="112" x="244" y="589.5"/><rect fill="#FEFECE" height="10" style="stroke:#A80036;stroke-width:1.5;" width="15" x="336" y="594.5"/><rect fill="#FEFECE" height="2" style="stroke:#A80036;stroke-width:1.5;" width="4" x="334" y="596.5"/><rect fill="#FEFECE" height="2" style="stroke:#A80036;stroke-width:1.5;" width="4" x="334" y="600.5"/><text fill="#000000" font-family="sans-serif" font-size="14" lengthAdjust="spacing" textLength="72" x="259" y="624.0332">XL Release</text><!--MD5=[3520fcd41a6691651eb47eacebe2c414]
entity XLD--><rect fill="#FEFECE" filter="url(#f1s8vi1oofwsjz)" height="47.6094" style="stroke:#A80036;stroke-width:1.5;" width="104" x="404" y="589.5"/><rect fill="#FEFECE" height="10" style="stroke:#A80036;stroke-width:1.5;" width="15" x="488" y="594.5"/><rect fill="#FEFECE" height="2" style="stroke:#A80036;stroke-width:1.5;" width="4" x="486" y="596.5"/><rect fill="#FEFECE" height="2" style="stroke:#A80036;stroke-width:1.5;" width="4" x="486" y="600.5"/><text fill="#000000" font-family="sans-serif" font-size="14" lengthAdjust="spacing" textLength="64" x="419" y="624.0332">XL Deploy</text><!--MD5=[0037ddb84cb09fdbeca62d314d65e0e0]
link AD to ADOBPECLI--><path d="M1141.03,72.408 C1188.06,90.485 1251.29,116.306 1305,143.5 C1339.15,160.789 1376.18,183.48 1403.12,200.766 " fill="none" id="AD-to-ADOBPECLI" style="stroke:#A80036;stroke-width:1.0;"/><polygon fill="#A80036" points="1407.36,203.492,1401.9486,195.263,1403.1529,200.7902,1397.6257,201.9944,1407.36,203.492" style="stroke:#A80036;stroke-width:1.0;"/><text fill="#000000" font-family="sans-serif" font-size="13" lengthAdjust="spacing" textLength="108" x="1287" y="131.9951">Executes blueprint</text><!--MD5=[19473294bea4332d1541ea2e448d0b9a]
link AD to ADOBPEUI--><path d="M1002.652,81.742 C981.121,92.85 957.423,105.408 936,117.5 C887.936,144.628 834.057,178.059 798.295,200.691 " fill="none" id="AD-to-ADOBPEUI" style="stroke:#A80036;stroke-width:1.0;"/><polygon fill="#A80036" points="794.026,203.396,803.7693,201.9578,798.2495,200.7199,799.4874,195.2001,794.026,203.396" style="stroke:#A80036;stroke-width:1.0;"/><text fill="#000000" font-family="sans-serif" font-size="13" lengthAdjust="spacing" textLength="108" x="937" y="131.9951">Executes blueprint</text><!--MD5=[f63f0a9f1a91f20ad99a35b6e15994e6]
link AD to GITAPP--><path d="M1078.07,87.677 C1083.91,143.817 1084.85,244.346 1028,299.5 C1026.98,300.486 905.585,317.708 809.233,331.244 " fill="none" id="AD-to-GITAPP" style="stroke:#A80036;stroke-width:1.0;"/><polygon fill="#A80036" points="804.086,331.967,813.555,334.6758,809.0374,331.2713,812.4419,326.7536,804.086,331.967" style="stroke:#A80036;stroke-width:1.0;"/><text fill="#000000" font-family="sans-serif" font-size="13" lengthAdjust="spacing" textLength="223" x="1082" y="232.9951">Modifies app code and run pull request</text><!--MD5=[f03914cf41ceaa9c76bad50ff72fa8a4]
link ADOBPECLI to GITBP--><path d="M1552.17,234.737 C1622.54,241.287 1704.64,254.601 1727,281.5 C1732.11,287.652 1732.48,293.673 1727,299.5 C1704.31,323.619 1264.13,338.796 1053.94,344.696 " fill="none" id="ADOBPECLI-to-GITBP" style="stroke:#A80036;stroke-width:1.0;"/><polygon fill="#A80036" points="1048.71,344.842,1057.8099,348.6093,1053.7083,344.7134,1057.6042,340.6119,1048.71,344.842" style="stroke:#A80036;stroke-width:1.0;"/><text fill="#000000" font-family="sans-serif" font-size="13" lengthAdjust="spacing" textLength="77" x="1731" y="295.9951">Interacts with</text><!--MD5=[9aba8add40e295c3001a58c732db5928]
link ADOBPECLI to GITPROJECT--><path d="M1331.71,247.045 C1322.68,248.555 1313.68,250.055 1305,251.5 C1224.13,264.953 1203.72,267.202 1123,281.5 C1080.69,288.995 1070.63,294.104 1028,299.5 C822.983,325.451 769.884,311.69 564,329.5 C543.899,331.239 522.457,333.363 501.89,335.534 " fill="none" id="ADOBPECLI-to-GITPROJECT" style="stroke:#A80036;stroke-width:1.0;"/><polygon fill="#A80036" points="496.681,336.086,506.0526,339.1147,501.6531,335.5588,505.2091,331.1593,496.681,336.086" style="stroke:#A80036;stroke-width:1.0;"/><text fill="#000000" font-family="sans-serif" font-size="13" lengthAdjust="spacing" textLength="261" x="1124" y="295.9951">Generates XL updates, then runs pull request</text><!--MD5=[a7b095c2047f901e22375c725410f05c]
link ADOBPECLI to GITAPP--><path d="M1433.03,251.67 C1425.33,268.105 1412.52,289.032 1394,299.5 C1338.59,330.811 885.353,323.43 822,329.5 C817.793,329.903 813.514,330.343 809.194,330.813 " fill="none" id="ADOBPECLI-to-GITAPP" style="stroke:#A80036;stroke-width:1.0;"/><polygon fill="#A80036" points="804.106,331.377,813.4922,334.3601,809.0755,330.8256,812.61,326.4089,804.106,331.377" style="stroke:#A80036;stroke-width:1.0;"/><text fill="#000000" font-family="sans-serif" font-size="13" lengthAdjust="spacing" textLength="291" x="1414" y="295.9951">Generates pipeline updates, then runs pull request</text><!--MD5=[ada7e2c3c418aab6eddf0ac360e001dc]
link ADOBPEUI to GITBP--><path d="M880.804,247.847 C899.713,255.628 917.428,266.456 931,281.5 C941.29,292.906 944.438,310.016 945.066,323.956 " fill="none" id="ADOBPEUI-to-GITBP" style="stroke:#A80036;stroke-width:1.0;"/><polygon fill="#A80036" points="945.194,329.32,948.9768,320.2266,945.074,324.3214,940.9792,320.4186,945.194,329.32" style="stroke:#A80036;stroke-width:1.0;"/><text fill="#000000" font-family="sans-serif" font-size="13" lengthAdjust="spacing" textLength="77" x="942" y="295.9951">Interacts with</text><!--MD5=[f0632d1128dee201aea9a02c92d88037]
link ADOBPEUI to GITPROJECT--><path d="M635.348,250.858 C633.891,251.076 632.441,251.29 631,251.5 C571.043,260.237 400.418,236.361 360,281.5 C348.23,294.645 359.058,312.021 372.122,325.644 " fill="none" id="ADOBPEUI-to-GITPROJECT" style="stroke:#A80036;stroke-width:1.0;"/><polygon fill="#A80036" points="375.849,329.381,372.3246,320.1843,372.3178,325.8412,366.6609,325.8343,375.849,329.381" style="stroke:#A80036;stroke-width:1.0;"/><text fill="#000000" font-family="sans-serif" font-size="13" lengthAdjust="spacing" textLength="261" x="361" y="295.9951">Generates XL updates, then runs pull request</text><!--MD5=[8945b095ec0a450c58902d13084cd288]
link ADOBPEUI to GITAPP--><path d="M668.233,251.606 C654.69,258.983 642.448,268.702 634,281.5 C623.307,297.7 637.524,313.979 654.676,326.317 " fill="none" id="ADOBPEUI-to-GITAPP" style="stroke:#A80036;stroke-width:1.0;"/><polygon fill="#A80036" points="659.087,329.366,653.9579,320.9581,654.9739,326.523,649.4091,327.539,659.087,329.366" style="stroke:#A80036;stroke-width:1.0;"/><text fill="#000000" font-family="sans-serif" font-size="13" lengthAdjust="spacing" textLength="291" x="635" y="295.9951">Generates pipeline updates, then runs pull request</text><!--MD5=[c1bbb9a79c8b7fd445716277f376c85f]
link GITPROJECT to BPMS--><path d="M299.173,360.054 C222.765,369.236 128.013,383.269 116,397.5 C106.18,409.133 107.403,425.961 111.328,440.315 " fill="none" id="GITPROJECT-to-BPMS" style="stroke:#A80036;stroke-width:1.0;"/><polygon fill="#A80036" points="112.882,445.477,114.1208,435.7064,111.4421,440.6888,106.4597,438.0102,112.882,445.477" style="stroke:#A80036;stroke-width:1.0;"/><text fill="#000000" font-family="sans-serif" font-size="13" lengthAdjust="spacing" textLength="354" x="117" y="411.9951">When a pull request completes executable yaml is executed.</text><!--MD5=[8da8663a9ab7da4513758c3476ce4e29]
link GITAPP to BPMS--><path d="M604.449,367.546 C573.387,375.159 538.622,385.158 508,397.5 C492.865,403.6 491.434,410.201 476,415.5 C470.371,417.433 344.327,436.139 244.446,450.787 " fill="none" id="GITAPP-to-BPMS" style="stroke:#A80036;stroke-width:1.0;"/><polygon fill="#A80036" points="239.41,451.526,248.8945,454.1801,244.3573,450.8017,247.7356,446.2644,239.41,451.526" style="stroke:#A80036;stroke-width:1.0;"/><text fill="#000000" font-family="sans-serif" font-size="13" lengthAdjust="spacing" textLength="354" x="509" y="411.9951">When a pull request completes executable yaml is executed.</text><!--MD5=[258ce8f19d17cec6727b4b94d1c19843]
link GITAPP to ADOP--><path d="M802.904,367.604 C834.213,375.127 862.453,385.055 872,397.5 C876.869,403.847 877.031,409.28 872,415.5 C849.636,443.149 756.745,457.008 691.241,463.471 " fill="none" id="GITAPP-to-ADOP" style="stroke:#A80036;stroke-width:1.0;"/><polygon fill="#A80036" points="686.179,463.961,695.5232,467.0733,691.1556,463.4782,694.7507,459.1106,686.179,463.961" style="stroke:#A80036;stroke-width:1.0;"/><text fill="#000000" font-family="sans-serif" font-size="13" lengthAdjust="spacing" textLength="136" x="877" y="411.9951">Starts pipeline instance</text><!--MD5=[2bc508acc1c6850c1569b0fcab182220]
link ADOP to XLD--><path d="M619.001,493.758 C613.651,513.564 603.341,541.5796 585,559.5 C565.355,578.695 537.791,591.2854 513.183,599.3555 " fill="none" id="ADOP-to-XLD" style="stroke:#A80036;stroke-width:1.0;"/><polygon fill="#A80036" points="508.304,600.9098,518.0934,601.9902,513.0682,599.3926,515.6659,594.3674,508.304,600.9098" style="stroke:#A80036;stroke-width:1.0;"/><text fill="#000000" font-family="sans-serif" font-size="13" lengthAdjust="spacing" textLength="164" x="600" y="555.9951">Creates application instance</text><!--MD5=[cbaeeb0952972422a7491b7080137906]
link ADOP to XLR--><path d="M564.962,493.552 C532.421,506.73 491.534,524.066 456,541.5 C441.35,548.6875 438.635,552.2827 424,559.5 C403.784,569.4698 381.234,579.4372 360.966,587.9938 " fill="none" id="ADOP-to-XLR" style="stroke:#A80036;stroke-width:1.0;"/><polygon fill="#A80036" points="356.138,590.0238,365.9848,590.2243,360.7474,588.0865,362.8852,582.8492,356.138,590.0238" style="stroke:#A80036;stroke-width:1.0;"/><text fill="#000000" font-family="sans-serif" font-size="13" lengthAdjust="spacing" textLength="119" x="457" y="555.9951">Creates release plan</text><!--MD5=[f677efd285abee8650104715550665a1]
link ADO to BPMS--><path d="M266.5948,232.9935 C266.4581,233.0692 266.3199,233.1458 266.1803,233.2233 C265.6216,233.5333 265.0394,233.8582 264.4344,234.1978 C263.2244,234.877 261.9232,235.615 260.5377,236.4108 C257.7668,238.0023 254.6586,239.8249 251.2675,241.8705 C237.7032,250.0525 219.6131,261.8001 200.4789,276.5844 C162.2105,306.153 119.766,347.8685 101,397.5 C95.0669,413.192 100.8328,431.256 107.946,445.236 " fill="none" id="ADO-BPMS" style="stroke:#A80036;stroke-width:1.0;"/><text fill="#000000" font-family="sans-serif" font-size="13" lengthAdjust="spacing" textLength="120" x="145" y="353.9951">Changes ADO state.</text><!--MD5=[1ec21bb2c9a45788df368c11436587fb]
link BPMS to XLD--><path d="M165.867,493.514 C191.496,507.328 224.674,525.306 254,541.5 C268.285,549.388 271.017,553.036 286,559.5 C306.458,568.3261 357.772,584.0154 398.71,596.0412 " fill="none" id="BPMS-to-XLD" style="stroke:#A80036;stroke-width:1.0;"/><polygon fill="#A80036" points="403.648,597.4889,396.1374,591.1178,398.8501,596.0818,393.8861,598.7945,403.648,597.4889" style="stroke:#A80036;stroke-width:1.0;"/><text fill="#000000" font-family="sans-serif" font-size="13" lengthAdjust="spacing" textLength="128" x="287" y="555.9951">Changes configuration</text><!--MD5=[6cb1f08cc0196eee706a807e098c421b]
link BPMS to XLR--><path d="M114.843,493.7 C109.573,513.201 106.017,540.8062 120,559.5 C134.449,578.8173 192.425,593.5222 238.729,602.4862 " fill="none" id="BPMS-to-XLR" style="stroke:#A80036;stroke-width:1.0;"/><polygon fill="#A80036" points="243.741,603.4431,235.6502,597.8271,238.8296,602.5059,234.1508,605.6853,243.741,603.4431" style="stroke:#A80036;stroke-width:1.0;"/><text fill="#000000" font-family="sans-serif" font-size="13" lengthAdjust="spacing" textLength="128" x="121" y="555.9951">Changes configuration</text><!--MD5=[a9a56efed1b3edd684a1822c95f5c875]
@startuml COE_AD_Process_components.svg
actor AD as "Application Developer"
component ADOBPECLI as "COE Blueprint Execution CLI"
component BPMS as "Executable Yaml Micro-service"
cloud ADO {
    component ADOBPEUI as "ADO COE Blueprint Execution UI"
    component ADOP as "ADO Pipeline"
    storage GITBP as "ADO Blueprint GIT Repository"
    storage GITPROJECT as "ADO Project GIT Repository"
    storage GITAPP as "ADO Application GIT Repository"
}
AD -do-> ADOBPECLI: Executes blueprint
AD -do-> ADOBPEUI: Executes blueprint
AD -do-> GITAPP: Modifies app code and run pull request
ADOBPECLI -do-> GITBP: Interacts with
ADOBPECLI -do-> GITPROJECT: Generates XL updates, then runs pull request
ADOBPECLI -do-> GITAPP: Generates pipeline updates, then runs pull request
ADOBPEUI -do-> GITBP: Interacts with
ADOBPEUI -do-> GITPROJECT: Generates XL updates, then runs pull request
ADOBPEUI -do-> GITAPP: Generates pipeline updates, then runs pull request
component XLR as "XL Release"
component XLD as "XL Deploy"

GITPROJECT -do-> BPMS: When a pull request completes executable yaml is executed.
GITAPP -do-> BPMS: When a pull request completes executable yaml is executed.
GITAPP -do-> ADOP: Starts pipeline instance
ADOP -do-> XLD:  Creates application instance
ADOP -do-> XLR:  Creates release plan

BPMS -up- ADO: Changes ADO state.
BPMS -do-> XLD: Changes configuration
BPMS -do-> XLR: Changes configuration
@enduml

PlantUML version 1.2021.00(Sun Jan 10 03:25:05 MST 2021)
(GPL source distribution)
Java Runtime: OpenJDK Runtime Environment
JVM: OpenJDK 64-Bit Server VM
Default Encoding: Cp1252
Language: en
Country: US
--></g></svg>