<?xml version="1.0" encoding="UTF-8" standalone="no"?><svg xmlns="http://www.w3.org/2000/svg" xmlns:xlink="http://www.w3.org/1999/xlink" contentScriptType="application/ecmascript" contentStyleType="text/css" height="621px" preserveAspectRatio="none" style="width:2291px;height:621px;" version="1.1" viewBox="0 0 2291 621" width="2291px" zoomAndPan="magnify"><defs><filter height="300%" id="fq7dqus" width="300%" x="-1" y="-1"><feGaussianBlur result="blurOut" stdDeviation="2.0"/><feColorMatrix in="blurOut" result="blurOut2" type="matrix" values="0 0 0 0 0 0 0 0 0 0 0 0 0 0 0 0 0 0 .4 0"/><feOffset dx="4.0" dy="4.0" in="blurOut2" result="blurOut3"/><feBlend in="SourceGraphic" in2="blurOut3" mode="normal"/></filter></defs><g><!--cluster ADO--><path d="M245,172 C245,169 247,167 250,167 C253,167 255,169 255,172 C255,169 257,167 260,167 C263,167 265,169 265,172 C265,169 267,167 270,167 C273,167 275,169 275,172 C275,169 277,167 280,167 C283,167 285,169 285,172 C285,169 287,167 290,167 C293,167 295,169 295,172 C295,169 297,167 300,167 C303,167 305,169 305,172 C305,169 307,167 310,167 C313,167 315,169 315,172 C315,169 317,167 320,167 C323,167 325,169 325,172 C325,169 327,167 330,167 C333,167 335,169 335,172 C335,169 337,167 340,167 C343,167 345,169 345,172 C345,169 347,167 350,167 C353,167 355,169 355,172 C355,169 357,167 360,167 C363,167 365,169 365,172 C365,169 367,167 370,167 C373,167 375,169 375,172 C375,169 377,167 380,167 C383,167 385,169 385,172 C385,169 387,167 390,167 C393,167 395,169 395,172 C395,169 397,167 400,167 C403,167 405,169 405,172 C405,169 407,167 410,167 C413,167 415,169 415,172 C415,169 417,167 420,167 C423,167 425,169 425,172 C425,169 427,167 430,167 C433,167 435,169 435,172 C435,169 437,167 440,167 C443,167 445,169 445,172 C445,169 447,167 450,167 C453,167 455,169 455,172 C455,169 457,167 460,167 C463,167 465,169 465,172 C465,169 467,167 470,167 C473,167 475,169 475,172 C475,169 477,167 480,167 C483,167 485,169 485,172 C485,169 487,167 490,167 C493,167 495,169 495,172 C495,169 497,167 500,167 C503,167 505,169 505,172 C505,169 507,167 510,167 C513,167 515,169 515,172 C515,169 517,167 520,167 C523,167 525,169 525,172 C525,169 527,167 530,167 C533,167 535,169 535,172 C535,169 537,167 540,167 C543,167 545,169 545,172 C545,169 547,167 550,167 C553,167 555,169 555,172 C555,169 557,167 560,167 C563,167 565,169 565,172 C565,169 567,167 570,167 C573,167 575,169 575,172 C575,169 577,167 580,167 C583,167 585,169 585,172 C585,169 587,167 590,167 C593,167 595,169 595,172 C595,169 597,167 600,167 C603,167 605,169 605,172 C605,169 607,167 610,167 C613,167 615,169 615,172 C615,169 617,167 620,167 C623,167 625,169 625,172 C625,169 627,167 630,167 C633,167 635,169 635,172 C635,169 637,167 640,167 C643,167 645,169 645,172 C645,169 647,167 650,167 C653,167 655,169 655,172 C655,169 657,167 660,167 C663,167 665,169 665,172 C665,169 667,167 670,167 C673,167 675,169 675,172 C675,169 677,167 680,167 C683,167 685,169 685,172 C685,169 687,167 690,167 C693,167 695,169 695,172 C695,169 697,167 700,167 C703,167 705,169 705,172 C705,169 707,167 710,167 C713,167 715,169 715,172 C715,169 717,167 720,167 C723,167 725,169 725,172 C725,169 727,167 730,167 C733,167 735,169 735,172 C735,169 737,167 740,167 C743,167 745,169 745,172 C745,169 747,167 750,167 C753,167 755,169 755,172 C755,169 757,167 760,167 C763,167 765,169 765,172 C765,169 767,167 770,167 C773,167 775,169 775,172 C775,169 777,167 780,167 C783,167 785,169 785,172 C785,169 787,167 790,167 C793,167 795,169 795,172 C795,169 797,167 800,167 C803,167 805,169 805,172 C805,169 807,167 810,167 C813,167 815,169 815,172 C815,169 817,167 820,167 C823,167 825,169 825,172 C825,169 827,167 830,167 C833,167 835,169 835,172 C835,169 837,167 840,167 C843,167 845,169 845,172 C845,169 847,167 850,167 C853,167 855,169 855,172 C855,169 857,167 860,167 C863,167 865,169 865,172 C865,169 867,167 870,167 C873,167 875,169 875,172 C875,169 877,167 880,167 C883,167 885,169 885,172 C885,169 887,167 890,167 C893,167 895,169 895,172 C895,169 897,167 900,167 C903,167 905,169 905,172 C905,169 907,167 910,167 C913,167 915,169 915,172 C915,169 917,167 920,167 C923,167 925,169 925,172 C925,169 927,167 930,167 C933,167 935,169 935,172 C935,169 937,167 940,167 C943,167 945,169 945,172 C945,169 947,167 950,167 C953,167 955,169 955,172 C955,169 957,167 960,167 C963,167 965,169 965,172 C965,169 967,167 970,167 C973,167 975,169 975,172 C975,169 977,167 980,167 C983,167 985,169 985,172 C985,169 987,167 990,167 C993,167 995,169 995,172 C995,169 997,167 1000,167 C1003,167 1005,169 1005,172 C1005,169 1007,167 1010,167 C1013,167 1015,169 1015,172 C1015,169 1017,167 1020,167 C1023,167 1025,169 1025,172 C1025,169 1027,167 1030,167 C1033,167 1035,169 1035,172 C1035,169 1037,167 1040,167 C1043,167 1045,169 1045,172 C1045,169 1047,167 1050,167 C1053,167 1055,169 1055,172 C1055,169 1057,167 1060,167 C1063,167 1065,169 1065,172 C1065,169 1067,167 1070,167 C1073,167 1075,169 1075,172 C1078,172 1080,174 1080,177 C1080,180 1078,182 1075,182 C1078,182 1080,184 1080,187 C1080,190 1078,192 1075,192 C1078,192 1080,194 1080,197 C1080,200 1078,202 1075,202 C1078,202 1080,204 1080,207 C1080,210 1078,212 1075,212 C1078,212 1080,214 1080,217 C1080,220 1078,222 1075,222 C1078,222 1080,224 1080,227 C1080,230 1078,232 1075,232 C1078,232 1080,234 1080,237 C1080,240 1078,242 1075,242 C1078,242 1080,244 1080,247 C1080,250 1078,252 1075,252 C1078,252 1080,254 1080,257 C1080,260 1078,262 1075,262 C1078,262 1080,264 1080,267 C1080,270 1078,272 1075,272 C1078,272 1080,274 1080,277 C1080,280 1078,282 1075,282 C1078,282 1080,284 1080,287 C1080,290 1078,292 1075,292 C1078,292 1080,294 1080,297 C1080,300 1078,302 1075,302 C1078,302 1080,304 1080,307 C1080,310 1078,312 1075,312 C1078,312 1080,314 1080,317 C1080,320 1078,322 1075,322 C1078,322 1080,324 1080,327 C1080,330 1078,332 1075,332 C1078,332 1080,334 1080,337 C1080,340 1078,342 1075,342 C1078,342 1080,344 1080,347 C1080,350 1078,352 1075,352 C1078,352 1080,354 1080,357 C1080,360 1078,362 1075,362 C1078,362 1080,364 1080,367 C1080,370 1078,372 1075,372 C1078,372 1080,374 1080,377 C1080,380 1078,382 1075,382 C1078,382 1080,384 1080,387 C1080,390 1078,392 1075,392 C1078,392 1080,394 1080,397 C1080,400 1078,402 1075,402 C1078,402 1080,404 1080,407 C1080,410 1078,412 1075,412 C1078,412 1080,414 1080,417 C1080,420 1078,422 1075,422 C1078,422 1080,424 1080,427 C1080,430 1078,432 1075,432 C1078,432 1080,434 1080,437 C1080,440 1078,442 1075,442 C1078,442 1080,444 1080,447 C1080,450 1078,452 1075,452 C1078,452 1080,454 1080,457 C1080,460 1078,462 1075,462 C1078,462 1080,464 1080,467 C1080,470 1078,472 1075,472 C1078,472 1080,474 1080,477 C1080,480 1078,482 1075,482 C1078,482 1080,484 1080,487 C1080,490 1078,492 1075,492 C1075,495 1072,497 1070,497 C1067,497 1065,495 1065,492 C1065,495 1062,497 1060,497 C1057,497 1055,495 1055,492 C1055,495 1052,497 1050,497 C1047,497 1045,495 1045,492 C1045,495 1042,497 1040,497 C1037,497 1035,495 1035,492 C1035,495 1032,497 1030,497 C1027,497 1025,495 1025,492 C1025,495 1022,497 1020,497 C1017,497 1015,495 1015,492 C1015,495 1012,497 1010,497 C1007,497 1005,495 1005,492 C1005,495 1002,497 1000,497 C997,497 995,495 995,492 C995,495 992,497 990,497 C987,497 985,495 985,492 C985,495 982,497 980,497 C977,497 975,495 975,492 C975,495 972,497 970,497 C967,497 965,495 965,492 C965,495 962,497 960,497 C957,497 955,495 955,492 C955,495 952,497 950,497 C947,497 945,495 945,492 C945,495 942,497 940,497 C937,497 935,495 935,492 C935,495 932,497 930,497 C927,497 925,495 925,492 C925,495 922,497 920,497 C917,497 915,495 915,492 C915,495 912,497 910,497 C907,497 905,495 905,492 C905,495 902,497 900,497 C897,497 895,495 895,492 C895,495 892,497 890,497 C887,497 885,495 885,492 C885,495 882,497 880,497 C877,497 875,495 875,492 C875,495 872,497 870,497 C867,497 865,495 865,492 C865,495 862,497 860,497 C857,497 855,495 855,492 C855,495 852,497 850,497 C847,497 845,495 845,492 C845,495 842,497 840,497 C837,497 835,495 835,492 C835,495 832,497 830,497 C827,497 825,495 825,492 C825,495 822,497 820,497 C817,497 815,495 815,492 C815,495 812,497 810,497 C807,497 805,495 805,492 C805,495 802,497 800,497 C797,497 795,495 795,492 C795,495 792,497 790,497 C787,497 785,495 785,492 C785,495 782,497 780,497 C777,497 775,495 775,492 C775,495 772,497 770,497 C767,497 765,495 765,492 C765,495 762,497 760,497 C757,497 755,495 755,492 C755,495 752,497 750,497 C747,497 745,495 745,492 C745,495 742,497 740,497 C737,497 735,495 735,492 C735,495 732,497 730,497 C727,497 725,495 725,492 C725,495 722,497 720,497 C717,497 715,495 715,492 C715,495 712,497 710,497 C707,497 705,495 705,492 C705,495 702,497 700,497 C697,497 695,495 695,492 C695,495 692,497 690,497 C687,497 685,495 685,492 C685,495 682,497 680,497 C677,497 675,495 675,492 C675,495 672,497 670,497 C667,497 665,495 665,492 C665,495 662,497 660,497 C657,497 655,495 655,492 C655,495 652,497 650,497 C647,497 645,495 645,492 C645,495 642,497 640,497 C637,497 635,495 635,492 C635,495 632,497 630,497 C627,497 625,495 625,492 C625,495 622,497 620,497 C617,497 615,495 615,492 C615,495 612,497 610,497 C607,497 605,495 605,492 C605,495 602,497 600,497 C597,497 595,495 595,492 C595,495 592,497 590,497 C587,497 585,495 585,492 C585,495 582,497 580,497 C577,497 575,495 575,492 C575,495 572,497 570,497 C567,497 565,495 565,492 C565,495 562,497 560,497 C557,497 555,495 555,492 C555,495 552,497 550,497 C547,497 545,495 545,492 C545,495 542,497 540,497 C537,497 535,495 535,492 C535,495 532,497 530,497 C527,497 525,495 525,492 C525,495 522,497 520,497 C517,497 515,495 515,492 C515,495 512,497 510,497 C507,497 505,495 505,492 C505,495 502,497 500,497 C497,497 495,495 495,492 C495,495 492,497 490,497 C487,497 485,495 485,492 C485,495 482,497 480,497 C477,497 475,495 475,492 C475,495 472,497 470,497 C467,497 465,495 465,492 C465,495 462,497 460,497 C457,497 455,495 455,492 C455,495 452,497 450,497 C447,497 445,495 445,492 C445,495 442,497 440,497 C437,497 435,495 435,492 C435,495 432,497 430,497 C427,497 425,495 425,492 C425,495 422,497 420,497 C417,497 415,495 415,492 C415,495 412,497 410,497 C407,497 405,495 405,492 C405,495 402,497 400,497 C397,497 395,495 395,492 C395,495 392,497 390,497 C387,497 385,495 385,492 C385,495 382,497 380,497 C377,497 375,495 375,492 C375,495 372,497 370,497 C367,497 365,495 365,492 C365,495 362,497 360,497 C357,497 355,495 355,492 C355,495 352,497 350,497 C347,497 345,495 345,492 C345,495 342,497 340,497 C337,497 335,495 335,492 C335,495 332,497 330,497 C327,497 325,495 325,492 C325,495 322,497 320,497 C317,497 315,495 315,492 C315,495 312,497 310,497 C307,497 305,495 305,492 C305,495 302,497 300,497 C297,497 295,495 295,492 C295,495 292,497 290,497 C287,497 285,495 285,492 C285,495 282,497 280,497 C277,497 275,495 275,492 C275,495 272,497 270,497 C267,497 265,495 265,492 C265,495 262,497 260,497 C257,497 255,495 255,492 C255,495 252,497 250,497 C247,497 245,495 245,492 C242,492 240,490 240,487 C240,484 242,482 245,482 C242,482 240,480 240,477 C240,474 242,472 245,472 C242,472 240,470 240,467 C240,464 242,462 245,462 C242,462 240,460 240,457 C240,454 242,452 245,452 C242,452 240,450 240,447 C240,444 242,442 245,442 C242,442 240,440 240,437 C240,434 242,432 245,432 C242,432 240,430 240,427 C240,424 242,422 245,422 C242,422 240,420 240,417 C240,414 242,412 245,412 C242,412 240,410 240,407 C240,404 242,402 245,402 C242,402 240,400 240,397 C240,394 242,392 245,392 C242,392 240,390 240,387 C240,384 242,382 245,382 C242,382 240,380 240,377 C240,374 242,372 245,372 C242,372 240,370 240,367 C240,364 242,362 245,362 C242,362 240,360 240,357 C240,354 242,352 245,352 C242,352 240,350 240,347 C240,344 242,342 245,342 C242,342 240,340 240,337 C240,334 242,332 245,332 C242,332 240,330 240,327 C240,324 242,322 245,322 C242,322 240,320 240,317 C240,314 242,312 245,312 C242,312 240,310 240,307 C240,304 242,302 245,302 C242,302 240,300 240,297 C240,294 242,292 245,292 C242,292 240,290 240,287 C240,284 242,282 245,282 C242,282 240,280 240,277 C240,274 242,272 245,272 C242,272 240,270 240,267 C240,264 242,262 245,262 C242,262 240,260 240,257 C240,254 242,252 245,252 C242,252 240,250 240,247 C240,244 242,242 245,242 C242,242 240,240 240,237 C240,234 242,232 245,232 C242,232 240,230 240,227 C240,224 242,222 245,222 C242,222 240,220 240,217 C240,214 242,212 245,212 C242,212 240,210 240,207 C240,204 242,202 245,202 C242,202 240,200 240,197 C240,194 242,192 245,192 C242,192 240,190 240,187 C240,184 242,182 245,182 C242,182 240,180 240,177 C240,174 242,172 245,172 " fill="#FFFFFF" filter="url(#fq7dqus)" style="stroke: #000000; stroke-width: 2.0;"/><text fill="#000000" font-family="sans-serif" font-size="14" font-weight="bold" lengthAdjust="spacingAndGlyphs" textLength="30" x="643" y="192.5332">ADO</text><!--entity ADOBPMUI--><rect fill="#FEFECE" filter="url(#fq7dqus)" height="37.6094" style="stroke: #A80036; stroke-width: 1.5;" width="373" x="285.5" y="209"/><rect fill="#FEFECE" height="5" style="stroke: #A80036; stroke-width: 1.5;" width="10" x="280.5" y="214"/><rect fill="#FEFECE" height="5" style="stroke: #A80036; stroke-width: 1.5;" width="10" x="280.5" y="236.6094"/><text fill="#000000" font-family="sans-serif" font-size="14" lengthAdjust="spacingAndGlyphs" textLength="230" x="295.5" y="233.5332">ADO COE Blueprint Management UI:</text><text fill="#000000" font-family="sans-serif" font-size="14" font-weight="bold" lengthAdjust="spacingAndGlyphs" textLength="119" x="529.5" y="233.5332">Not implemented</text><!--entity ADOBPEUI--><rect fill="#FEFECE" filter="url(#fq7dqus)" height="37.6094" style="stroke: #A80036; stroke-width: 1.5;" width="356" x="694" y="209"/><rect fill="#FEFECE" height="5" style="stroke: #A80036; stroke-width: 1.5;" width="10" x="689" y="214"/><rect fill="#FEFECE" height="5" style="stroke: #A80036; stroke-width: 1.5;" width="10" x="689" y="236.6094"/><text fill="#000000" font-family="sans-serif" font-size="14" lengthAdjust="spacingAndGlyphs" textLength="209" x="704" y="233.5332">ADO COE Blueprint Execution UI:</text><text fill="#000000" font-family="sans-serif" font-size="14" font-weight="bold" lengthAdjust="spacingAndGlyphs" textLength="119" x="921" y="233.5332">Not implemented</text><!--entity ADOP--><rect fill="#FEFECE" filter="url(#fq7dqus)" height="37.6094" style="stroke: #A80036; stroke-width: 1.5;" width="104" x="561" y="441"/><rect fill="#FEFECE" height="5" style="stroke: #A80036; stroke-width: 1.5;" width="10" x="556" y="446"/><rect fill="#FEFECE" height="5" style="stroke: #A80036; stroke-width: 1.5;" width="10" x="556" y="468.6094"/><text fill="#000000" font-family="sans-serif" font-size="14" lengthAdjust="spacingAndGlyphs" textLength="84" x="571" y="465.5332">ADO Pipeline</text><!--entity GITBP--><rect fill="#FEFECE" filter="url(#fq7dqus)" height="37.6094" rx="35" ry="35" style="stroke: #000000; stroke-width: 1.5;" width="209" x="840.5" y="325"/><text fill="#000000" font-family="sans-serif" font-size="14" lengthAdjust="spacingAndGlyphs" textLength="189" x="850.5" y="349.5332">ADO Blueprint GIT Repository</text><!--entity GITPROJECT--><rect fill="#FEFECE" filter="url(#fq7dqus)" height="37.6094" rx="35" ry="35" style="stroke: #000000; stroke-width: 1.5;" width="197" x="285.5" y="325"/><text fill="#000000" font-family="sans-serif" font-size="14" lengthAdjust="spacingAndGlyphs" textLength="177" x="295.5" y="349.5332">ADO Project GIT Repository</text><!--entity GITAPP--><rect fill="#FEFECE" filter="url(#fq7dqus)" height="37.6094" rx="35" ry="35" style="stroke: #000000; stroke-width: 1.5;" width="222" x="551" y="325"/><text fill="#000000" font-family="sans-serif" font-size="14" lengthAdjust="spacingAndGlyphs" textLength="202" x="561" y="349.5332">ADO Application GIT Repository</text><!--entity DE--><ellipse cx="1059" cy="18" fill="#FEFECE" filter="url(#fq7dqus)" rx="8" ry="8" style="stroke: #A80036; stroke-width: 2.0;"/><path d="M1059,26 L1059,53 M1046,34 L1072,34 M1059,53 L1046,68 M1059,53 L1072,68 " fill="#FEFECE" filter="url(#fq7dqus)" style="stroke: #A80036; stroke-width: 2.0;"/><text fill="#000000" font-family="sans-serif" font-size="14" lengthAdjust="spacingAndGlyphs" textLength="109" x="1004.5" y="89.5332">Devops Engineer</text><!--entity ADOBPECLI--><rect fill="#FEFECE" filter="url(#fq7dqus)" height="37.6094" style="stroke: #A80036; stroke-width: 1.5;" width="200" x="1188" y="209"/><rect fill="#FEFECE" height="5" style="stroke: #A80036; stroke-width: 1.5;" width="10" x="1183" y="214"/><rect fill="#FEFECE" height="5" style="stroke: #A80036; stroke-width: 1.5;" width="10" x="1183" y="236.6094"/><text fill="#000000" font-family="sans-serif" font-size="14" lengthAdjust="spacingAndGlyphs" textLength="180" x="1198" y="233.5332">COE Blueprint Execution CLI</text><!--entity BPMS--><rect fill="#FEFECE" filter="url(#fq7dqus)" height="37.6094" style="stroke: #A80036; stroke-width: 1.5;" width="212" x="6" y="441"/><rect fill="#FEFECE" height="5" style="stroke: #A80036; stroke-width: 1.5;" width="10" x="1" y="446"/><rect fill="#FEFECE" height="5" style="stroke: #A80036; stroke-width: 1.5;" width="10" x="1" y="468.6094"/><text fill="#000000" font-family="sans-serif" font-size="14" lengthAdjust="spacingAndGlyphs" textLength="192" x="16" y="465.5332">Executable Yaml Micro-service</text><!--entity XLR--><rect fill="#FEFECE" filter="url(#fq7dqus)" height="37.6094" style="stroke: #A80036; stroke-width: 1.5;" width="92" x="151" y="575"/><rect fill="#FEFECE" height="5" style="stroke: #A80036; stroke-width: 1.5;" width="10" x="146" y="580"/><rect fill="#FEFECE" height="5" style="stroke: #A80036; stroke-width: 1.5;" width="10" x="146" y="602.6094"/><text fill="#000000" font-family="sans-serif" font-size="14" lengthAdjust="spacingAndGlyphs" textLength="72" x="161" y="599.5332">XL Release</text><!--entity XLD--><rect fill="#FEFECE" filter="url(#fq7dqus)" height="37.6094" style="stroke: #A80036; stroke-width: 1.5;" width="84" x="486" y="575"/><rect fill="#FEFECE" height="5" style="stroke: #A80036; stroke-width: 1.5;" width="10" x="481" y="580"/><rect fill="#FEFECE" height="5" style="stroke: #A80036; stroke-width: 1.5;" width="10" x="481" y="602.6094"/><text fill="#000000" font-family="sans-serif" font-size="14" lengthAdjust="spacingAndGlyphs" textLength="64" x="496" y="599.5332">XL Deploy</text><path d="M1004.264,50.61 C914.79,51.152 733.419,60.714 596,123 C553.247,142.378 513.486,180.755 491.019,205.081 " fill="none" style="stroke: #A80036; stroke-width: 1.0;"/><polygon fill="#A80036" points="487.564,208.86,496.5894,204.9176,490.9382,205.1701,490.6856,199.5189,487.564,208.86" style="stroke: #A80036; stroke-width: 1.0;"/><text fill="#000000" font-family="sans-serif" font-size="13" lengthAdjust="spacingAndGlyphs" textLength="328" x="597" y="137.4951">Manage blueprint permissions and project specific filters.</text><path d="M1113.79,52.428 C1310.26,57.456 1957.68,89.635 1764,295 C1740.05,320.397 1272.31,335.049 1054.66,340.516 " fill="none" style="stroke: #A80036; stroke-width: 1.0;"/><polygon fill="#A80036" points="1049.57,340.644,1058.6699,344.4113,1054.5683,340.5154,1058.4642,336.4139,1049.57,340.644" style="stroke: #A80036; stroke-width: 1.0;"/><text fill="#000000" font-family="sans-serif" font-size="13" lengthAdjust="spacingAndGlyphs" textLength="490" x="1800" y="233.4951">Modifies Blueprints to customize pipeline/deploy/release automation to project needs</text><path d="M1113.75,85.844 C1131.1,97.226 1150.14,110.252 1167,123 C1202.44,149.8 1240.98,183.85 1264.82,205.54 " fill="none" style="stroke: #A80036; stroke-width: 1.0;"/><polygon fill="#A80036" points="1268.51,208.912,1264.5603,199.8898,1264.8174,205.5408,1259.1664,205.7979,1268.51,208.912" style="stroke: #A80036; stroke-width: 1.0;"/><text fill="#000000" font-family="sans-serif" font-size="13" lengthAdjust="spacingAndGlyphs" textLength="210" x="1189" y="137.4951">Executes blueprint to validate output</text><path d="M1004.461,82.545 C986.475,94.064 966.997,108.008 951,123 C924.478,147.856 900.193,182.365 885.744,204.69 " fill="none" style="stroke: #A80036; stroke-width: 1.0;"/><polygon fill="#A80036" points="882.988,208.986,891.2145,203.5708,885.6879,204.7776,884.4811,199.251,882.988,208.986" style="stroke: #A80036; stroke-width: 1.0;"/><text fill="#000000" font-family="sans-serif" font-size="13" lengthAdjust="spacingAndGlyphs" textLength="210" x="952" y="137.4951">Executes blueprint to validate output</text><path d="M1388.17,231.544 C1515.09,236.581 1712.77,251.451 1672,295 C1630.79,339.02 1247.62,344.094 1054.78,343.817 " fill="none" style="stroke: #A80036; stroke-width: 1.0;"/><polygon fill="#A80036" points="1049.69,343.809,1058.6785,347.8347,1054.69,343.8233,1058.7014,339.8347,1049.69,343.809" style="stroke: #A80036; stroke-width: 1.0;"/><text fill="#000000" font-family="sans-serif" font-size="13" lengthAdjust="spacingAndGlyphs" textLength="77" x="1678" y="291.4951">Interacts with</text><path d="M1194.87,247.019 C1155.49,255.231 1109.28,265.653 1068,277 C1043.61,283.706 1038.83,290.172 1014,295 C803.744,335.877 746.302,305.481 533,325 C518.43,326.333 503.083,327.948 488,329.656 " fill="none" style="stroke: #A80036; stroke-width: 1.0;"/><polygon fill="#A80036" points="482.897,330.238,492.2926,333.1915,487.8647,329.671,491.3853,325.2431,482.897,330.238" style="stroke: #A80036; stroke-width: 1.0;"/><text fill="#000000" font-family="sans-serif" font-size="13" lengthAdjust="spacingAndGlyphs" textLength="261" x="1069" y="291.4951">Generates XL updates, then runs pull request</text><path d="M1316.96,247.136 C1335.38,260.846 1353.31,279.833 1339,295 C1299.59,336.771 880.224,320.141 823,325 C808.522,326.229 793.332,327.695 778.305,329.253 " fill="none" style="stroke: #A80036; stroke-width: 1.0;"/><polygon fill="#A80036" points="773.217,329.784,782.5833,332.829,778.19,329.2654,781.7536,324.8721,773.217,329.784" style="stroke: #A80036; stroke-width: 1.0;"/><text fill="#000000" font-family="sans-serif" font-size="13" lengthAdjust="spacingAndGlyphs" textLength="291" x="1346" y="291.4951">Generates pipeline updates, then runs pull request</text><path d="M892.07,247.3 C900.533,255.751 910.019,266.279 917,277 C925.634,290.26 932.598,306.626 937.421,319.743 " fill="none" style="stroke: #A80036; stroke-width: 1.0;"/><polygon fill="#A80036" points="939.227,324.78,939.9558,314.9581,937.54,320.0732,932.4249,317.6574,939.227,324.78" style="stroke: #A80036; stroke-width: 1.0;"/><text fill="#000000" font-family="sans-serif" font-size="13" lengthAdjust="spacingAndGlyphs" textLength="77" x="928" y="291.4951">Interacts with</text><path d="M693.868,245.377 C687.84,245.925 681.87,246.468 676,247 C638.782,250.376 366.219,249.421 341,277 C328.664,290.49 340.934,307.887 355.478,321.433 " fill="none" style="stroke: #A80036; stroke-width: 1.0;"/><polygon fill="#A80036" points="359.211,324.789,355.1921,315.7974,355.4926,321.4463,349.8437,321.7469,359.211,324.789" style="stroke: #A80036; stroke-width: 1.0;"/><text fill="#000000" font-family="sans-serif" font-size="13" lengthAdjust="spacingAndGlyphs" textLength="261" x="342" y="291.4951">Generates XL updates, then runs pull request</text><path d="M693.722,245.738 C657.989,252.804 627.768,262.82 616,277 C604.241,291.168 616.791,308.246 631.732,321.48 " fill="none" style="stroke: #A80036; stroke-width: 1.0;"/><polygon fill="#A80036" points="635.569,324.758,631.324,315.8709,631.7673,321.5104,626.1278,321.9537,635.569,324.758" style="stroke: #A80036; stroke-width: 1.0;"/><text fill="#000000" font-family="sans-serif" font-size="13" lengthAdjust="spacingAndGlyphs" textLength="291" x="617" y="291.4951">Generates pipeline updates, then runs pull request</text><path d="M285.38,356.329 C212.647,365.694 124.422,379.585 113,393 C103.1414,404.579 103.235,421.888 105.6119,435.876 " fill="none" style="stroke: #A80036; stroke-width: 1.0;"/><polygon fill="#A80036" points="106.577,440.862,108.7942,431.266,105.627,435.9531,100.9399,432.7859,106.577,440.862" style="stroke: #A80036; stroke-width: 1.0;"/><text fill="#000000" font-family="sans-serif" font-size="13" lengthAdjust="spacingAndGlyphs" textLength="354" x="114" y="407.4951">When a pull request completes executable yaml is executed.</text><path d="M591.285,363.104 C563.867,371.029 532.512,381.22 505,393 C489.999,399.423 488.478,405.832 473,411 C449.618,418.808 320.742,434.917 223.588,446.316 " fill="none" style="stroke: #A80036; stroke-width: 1.0;"/><polygon fill="#A80036" points="218.404,446.923,227.8081,449.8492,223.3701,446.3415,226.8778,441.9035,218.404,446.923" style="stroke: #A80036; stroke-width: 1.0;"/><text fill="#000000" font-family="sans-serif" font-size="13" lengthAdjust="spacingAndGlyphs" textLength="354" x="506" y="407.4951">When a pull request completes executable yaml is executed.</text><path d="M773.172,358.224 C815.287,365.717 856.205,376.898 869,393 C873.977,399.263 874.109,404.844 869,411 C844.267,440.801 738.024,452.212 670.419,456.5 " fill="none" style="stroke: #A80036; stroke-width: 1.0;"/><polygon fill="#A80036" points="665.216,456.821,674.4457,460.2581,670.2065,456.5125,673.952,452.2733,665.216,456.821" style="stroke: #A80036; stroke-width: 1.0;"/><text fill="#000000" font-family="sans-serif" font-size="13" lengthAdjust="spacingAndGlyphs" textLength="136" x="874" y="407.4951">Starts pipeline instance</text><path d="M606.531,479.283 C599.828,496.943 588.332,524.0245 574,545 C567.733,554.1727 559.676,563.2332 552.061,570.9692 " fill="none" style="stroke: #A80036; stroke-width: 1.0;"/><polygon fill="#A80036" points="548.368,574.6551,557.5635,571.1276,551.9066,571.1226,551.9115,565.4658,548.368,574.6551" style="stroke: #A80036; stroke-width: 1.0;"/><text fill="#000000" font-family="sans-serif" font-size="13" lengthAdjust="spacingAndGlyphs" textLength="164" x="586" y="541.4951">Creates application instance</text><path d="M560.837,463.596 C493.011,468.661 372.208,483.529 279,527 C255.793,537.8237 233.423,556.5724 217.928,571.3276 " fill="none" style="stroke: #A80036; stroke-width: 1.0;"/><polygon fill="#A80036" points="214.14,574.9856,223.3928,571.6114,217.7369,571.5125,217.8358,565.8565,214.14,574.9856" style="stroke: #A80036; stroke-width: 1.0;"/><text fill="#000000" font-family="sans-serif" font-size="13" lengthAdjust="spacingAndGlyphs" textLength="119" x="280" y="541.4951">Creates release plan</text><path d="M241.7506,234.0186 C241.6235,234.0986 241.495,234.1796 241.3653,234.2615 C241.1058,234.4253 240.8412,234.5928 240.5715,234.7639 C239.4929,235.4485 238.3333,236.1917 237.099,236.9922 C234.6305,238.5932 231.8631,240.4234 228.8464,242.4725 C216.7794,250.6689 200.7227,262.3681 183.8421,276.9103 C150.081,305.9945 113.0245,346.4505 98,393 C92.8911,408.829 97.7574,427.404 103.1045,440.809 " fill="none" style="stroke: #A80036; stroke-width: 1.0;"/><text fill="#000000" font-family="sans-serif" font-size="13" lengthAdjust="spacingAndGlyphs" textLength="120" x="137" y="349.4951">Changes ADO state.</text><path d="M151.052,479.104 C182.252,492.659 227.478,510.3 269,519 C327.828,531.3256 346.333,510.055 404,527 C419.656,531.6002 421.654,537.225 436,545 C452.939,554.18 471.781,564.067 487.98,572.4681 " fill="none" style="stroke: #A80036; stroke-width: 1.0;"/><polygon fill="#A80036" points="492.475,574.7965,486.3236,567.1049,488.0354,572.4965,482.6437,574.2083,492.475,574.7965" style="stroke: #A80036; stroke-width: 1.0;"/><text fill="#000000" font-family="sans-serif" font-size="13" lengthAdjust="spacingAndGlyphs" textLength="128" x="437" y="541.4951">Changes configuration</text><path d="M106.023,479.108 C101.2331,497.13 97.0816,524.9229 109,545 C117.373,559.1041 131.508,569.3291 146.028,576.6196 " fill="none" style="stroke: #A80036; stroke-width: 1.0;"/><polygon fill="#A80036" points="150.541,578.789,144.1619,571.2852,146.0344,576.6232,140.6965,578.4957,150.541,578.789" style="stroke: #A80036; stroke-width: 1.0;"/><text fill="#000000" font-family="sans-serif" font-size="13" lengthAdjust="spacingAndGlyphs" textLength="128" x="110" y="541.4951">Changes configuration</text></g></svg>