<?xml version="1.0" encoding="UTF-8" standalone="no"?><svg xmlns="http://www.w3.org/2000/svg" xmlns:xlink="http://www.w3.org/1999/xlink" contentScriptType="application/ecmascript" contentStyleType="text/css" height="687px" preserveAspectRatio="none" style="width:2009px;height:687px;" version="1.1" viewBox="0 0 2009 687" width="2009px" zoomAndPan="magnify"><defs><filter height="300%" id="ft1o9p17vnxn7" width="300%" x="-1" y="-1"><feGaussianBlur result="blurOut" stdDeviation="2.0"/><feColorMatrix in="blurOut" result="blurOut2" type="matrix" values="0 0 0 0 0 0 0 0 0 0 0 0 0 0 0 0 0 0 .4 0"/><feOffset dx="4.0" dy="4.0" in="blurOut2" result="blurOut3"/><feBlend in="SourceGraphic" in2="blurOut3" mode="normal"/></filter></defs><g><ellipse cx="1001.5" cy="20" fill="#000000" filter="url(#ft1o9p17vnxn7)" rx="10" ry="10" style="stroke:none;stroke-width:1.0;"/><rect fill="#FEFECE" filter="url(#ft1o9p17vnxn7)" height="35.0938" rx="12.5" ry="12.5" style="stroke:#A80036;stroke-width:1.5;" width="230" x="886.5" y="50"/><text fill="#000000" font-family="sans-serif" font-size="12" lengthAdjust="spacing" textLength="210" x="896.5" y="72.457">Decompose project pipeline elements</text><rect fill="#000000" filter="url(#ft1o9p17vnxn7)" height="6" rx="2.5" ry="2.5" style="stroke:#000000;stroke-width:1.0;" width="1981" x="11" y="105.0938"/><rect fill="#FEFECE" filter="url(#ft1o9p17vnxn7)" height="35.0938" rx="12.5" ry="12.5" style="stroke:#A80036;stroke-width:1.5;" width="228" x="588.5" y="140.1406"/><text fill="#000000" font-family="sans-serif" font-size="12" lengthAdjust="spacing" textLength="208" x="598.5" y="162.5977">Decompose static portions of pipeline</text><rect fill="#000000" filter="url(#ft1o9p17vnxn7)" height="6" rx="2.5" ry="2.5" style="stroke:#000000;stroke-width:1.0;" width="1377" x="23" y="204.2813"/><rect fill="#FEFECE" filter="url(#ft1o9p17vnxn7)" height="35.0938" rx="12.5" ry="12.5" style="stroke:#A80036;stroke-width:1.5;" width="260" x="124" y="230.2813"/><text fill="#000000" font-family="sans-serif" font-size="12" lengthAdjust="spacing" textLength="240" x="134" y="252.7383">Determine environments required by project</text><rect fill="#FEFECE" filter="url(#ft1o9p17vnxn7)" height="35.0938" rx="12.5" ry="12.5" style="stroke:#A80036;stroke-width:1.5;" width="438" x="35" y="300.375"/><text fill="#000000" font-family="sans-serif" font-size="12" lengthAdjust="spacing" textLength="418" x="45" y="322.832">Ensure blueprint definition has required templates to generate environments</text><rect fill="#FEFECE" filter="url(#ft1o9p17vnxn7)" height="35.0938" rx="12.5" ry="12.5" style="stroke:#A80036;stroke-width:1.5;" width="346" x="81" y="419.3867"/><text fill="#000000" font-family="sans-serif" font-size="12" lengthAdjust="spacing" textLength="326" x="91" y="441.8438">Update environment blueprints to handle new requirements</text><polygon fill="#FEFECE" filter="url(#ft1o9p17vnxn7)" points="177,370.4688,331,370.4688,343,382.4688,331,394.4688,177,394.4688,165,382.4688,177,370.4688" style="stroke:#A80036;stroke-width:1.5;"/><text fill="#000000" font-family="sans-serif" font-size="11" lengthAdjust="spacing" textLength="12" x="258" y="405.8877">no</text><text fill="#000000" font-family="sans-serif" font-size="11" lengthAdjust="spacing" textLength="154" x="177" y="386.9697">has required blueprint templates</text><polygon fill="#FEFECE" filter="url(#ft1o9p17vnxn7)" points="254,479.3984,266,491.3984,254,503.3984,242,491.3984,254,479.3984" style="stroke:#A80036;stroke-width:1.5;"/><rect fill="#FEFECE" filter="url(#ft1o9p17vnxn7)" height="35.0938" rx="12.5" ry="12.5" style="stroke:#A80036;stroke-width:1.5;" width="312" x="544.5" y="230.2813"/><text fill="#000000" font-family="sans-serif" font-size="12" lengthAdjust="spacing" textLength="292" x="554.5" y="252.7383">Determine infrustructure elements required by project</text><rect fill="#FEFECE" filter="url(#ft1o9p17vnxn7)" height="35.0938" rx="12.5" ry="12.5" style="stroke:#A80036;stroke-width:1.5;" width="435" x="483" y="300.375"/><text fill="#000000" font-family="sans-serif" font-size="12" lengthAdjust="spacing" textLength="415" x="493" y="322.832">Ensure blueprint definition has required templates to generate infrustructure</text><rect fill="#FEFECE" filter="url(#ft1o9p17vnxn7)" height="35.0938" rx="12.5" ry="12.5" style="stroke:#A80036;stroke-width:1.5;" width="350" x="525.5" y="419.3867"/><text fill="#000000" font-family="sans-serif" font-size="12" lengthAdjust="spacing" textLength="330" x="535.5" y="441.8438">Update infrustructure blueprints to handle new requirements</text><polygon fill="#FEFECE" filter="url(#ft1o9p17vnxn7)" points="623.5,370.4688,777.5,370.4688,789.5,382.4688,777.5,394.4688,623.5,394.4688,611.5,382.4688,623.5,370.4688" style="stroke:#A80036;stroke-width:1.5;"/><text fill="#000000" font-family="sans-serif" font-size="11" lengthAdjust="spacing" textLength="12" x="704.5" y="405.8877">no</text><text fill="#000000" font-family="sans-serif" font-size="11" lengthAdjust="spacing" textLength="154" x="623.5" y="386.9697">has required blueprint templates</text><polygon fill="#FEFECE" filter="url(#ft1o9p17vnxn7)" points="700.5,479.3984,712.5,491.3984,700.5,503.3984,688.5,491.3984,700.5,479.3984" style="stroke:#A80036;stroke-width:1.5;"/><rect fill="#FEFECE" filter="url(#ft1o9p17vnxn7)" height="35.0938" rx="12.5" ry="12.5" style="stroke:#A80036;stroke-width:1.5;" width="442" x="946" y="265.3281"/><text fill="#000000" font-family="sans-serif" font-size="12" lengthAdjust="spacing" textLength="422" x="956" y="287.7852">Determine CI/CD or XL Release templates are update for a valid release plan</text><rect fill="#FEFECE" filter="url(#ft1o9p17vnxn7)" height="35.0938" rx="12.5" ry="12.5" style="stroke:#A80036;stroke-width:1.5;" width="207" x="1063.5" y="384.3398"/><text fill="#000000" font-family="sans-serif" font-size="12" lengthAdjust="spacing" textLength="187" x="1073.5" y="406.7969">Update XL Release template yaml</text><polygon fill="#FEFECE" filter="url(#ft1o9p17vnxn7)" points="1102.5,335.4219,1231.5,335.4219,1243.5,347.4219,1231.5,359.4219,1102.5,359.4219,1090.5,347.4219,1102.5,335.4219" style="stroke:#A80036;stroke-width:1.5;"/><text fill="#000000" font-family="sans-serif" font-size="11" lengthAdjust="spacing" textLength="12" x="1171" y="370.8408">no</text><text fill="#000000" font-family="sans-serif" font-size="11" lengthAdjust="spacing" textLength="129" x="1102.5" y="351.9229">valid XL Release templates</text><polygon fill="#FEFECE" filter="url(#ft1o9p17vnxn7)" points="1167,444.3516,1179,456.3516,1167,468.3516,1155,456.3516,1167,444.3516" style="stroke:#A80036;stroke-width:1.5;"/><rect fill="#000000" filter="url(#ft1o9p17vnxn7)" height="6" rx="2.5" ry="2.5" style="stroke:#000000;stroke-width:1.0;" width="1377" x="23" y="523.3984"/><rect fill="#FEFECE" filter="url(#ft1o9p17vnxn7)" height="35.0938" rx="12.5" ry="12.5" style="stroke:#A80036;stroke-width:1.5;" width="281" x="562" y="558.4453"/><text fill="#000000" font-family="sans-serif" font-size="12" lengthAdjust="spacing" textLength="261" x="572" y="580.9023">Execute test on static blueprints to 'devops' repo</text><rect fill="#FEFECE" filter="url(#ft1o9p17vnxn7)" height="35.0938" rx="12.5" ry="12.5" style="stroke:#A80036;stroke-width:1.5;" width="317" x="1536.5" y="131.0938"/><text fill="#000000" font-family="sans-serif" font-size="12" lengthAdjust="spacing" textLength="297" x="1546.5" y="153.5508">Decompose to application specific portions of pipeline</text><rect fill="#FEFECE" filter="url(#ft1o9p17vnxn7)" height="35.0938" rx="12.5" ry="12.5" style="stroke:#A80036;stroke-width:1.5;" width="570" x="1410" y="195.2344"/><text fill="#000000" font-family="sans-serif" font-size="12" lengthAdjust="spacing" textLength="550" x="1420" y="217.6914">Ensure app blueprint template has required executable yaml Git Repo, Build Definition, Branch Policy</text><rect fill="#FEFECE" filter="url(#ft1o9p17vnxn7)" height="35.0938" rx="12.5" ry="12.5" style="stroke:#A80036;stroke-width:1.5;" width="151" x="1619.5" y="314.2461"/><text fill="#000000" font-family="sans-serif" font-size="12" lengthAdjust="spacing" textLength="131" x="1629.5" y="336.7031">Update executable yaml</text><polygon fill="#FEFECE" filter="url(#ft1o9p17vnxn7)" points="1622.5,265.3281,1767.5,265.3281,1779.5,277.3281,1767.5,289.3281,1622.5,289.3281,1610.5,277.3281,1622.5,265.3281" style="stroke:#A80036;stroke-width:1.5;"/><text fill="#000000" font-family="sans-serif" font-size="11" lengthAdjust="spacing" textLength="12" x="1699" y="300.7471">no</text><text fill="#000000" font-family="sans-serif" font-size="11" lengthAdjust="spacing" textLength="145" x="1622.5" y="281.8291">has executable yaml elements</text><polygon fill="#FEFECE" filter="url(#ft1o9p17vnxn7)" points="1695,374.2578,1707,386.2578,1695,398.2578,1683,386.2578,1695,374.2578" style="stroke:#A80036;stroke-width:1.5;"/><rect fill="#FEFECE" filter="url(#ft1o9p17vnxn7)" height="35.0938" rx="12.5" ry="12.5" style="stroke:#A80036;stroke-width:1.5;" width="375" x="1507.5" y="433.2578"/><text fill="#000000" font-family="sans-serif" font-size="12" lengthAdjust="spacing" textLength="355" x="1517.5" y="455.7148">Ensure app blueprint template has templates for build definitions</text><rect fill="#FEFECE" filter="url(#ft1o9p17vnxn7)" height="35.0938" rx="12.5" ry="12.5" style="stroke:#A80036;stroke-width:1.5;" width="412" x="1489" y="503.3516"/><text fill="#000000" font-family="sans-serif" font-size="12" lengthAdjust="spacing" textLength="392" x="1499" y="525.8086">Ensure app blueprint has templates for any required deployment scripts</text><rect fill="#FEFECE" filter="url(#ft1o9p17vnxn7)" height="35.0938" rx="12.5" ry="12.5" style="stroke:#A80036;stroke-width:1.5;" width="192" x="1599" y="567.4922"/><text fill="#000000" font-family="sans-serif" font-size="12" lengthAdjust="spacing" textLength="172" x="1609" y="589.9492">Execute tests on app blueprints</text><rect fill="#000000" filter="url(#ft1o9p17vnxn7)" height="6" rx="2.5" ry="2.5" style="stroke:#000000;stroke-width:1.0;" width="1981" x="11" y="622.5859"/><ellipse cx="1001.5" cy="659.5859" fill="#FFFFFF" filter="url(#ft1o9p17vnxn7)" rx="11" ry="11" style="stroke:#000000;stroke-width:1.0;"/><ellipse cx="1001.5" cy="659.5859" fill="#000000" rx="6" ry="6" style="stroke:#7F7F7F;stroke-width:1.0;"/><line style="stroke:#A80036;stroke-width:1.5;" x1="1001.5" x2="1001.5" y1="30" y2="50"/><polygon fill="#A80036" points="997.5,40,1001.5,50,1005.5,40,1001.5,44" style="stroke:#A80036;stroke-width:1.0;"/><line style="stroke:#A80036;stroke-width:1.5;" x1="254" x2="254" y1="265.375" y2="300.375"/><polygon fill="#A80036" points="250,290.375,254,300.375,258,290.375,254,294.375" style="stroke:#A80036;stroke-width:1.0;"/><line style="stroke:#A80036;stroke-width:1.5;" x1="254" x2="254" y1="394.4688" y2="419.3867"/><polygon fill="#A80036" points="250,409.3867,254,419.3867,258,409.3867,254,413.3867" style="stroke:#A80036;stroke-width:1.0;"/><line style="stroke:#A80036;stroke-width:1.5;" x1="343" x2="437" y1="382.4688" y2="382.4688"/><polygon fill="#A80036" points="433,426.9336,437,436.9336,441,426.9336,437,430.9336" style="stroke:#A80036;stroke-width:1.5;"/><line style="stroke:#A80036;stroke-width:1.5;" x1="437" x2="437" y1="382.4688" y2="491.3984"/><line style="stroke:#A80036;stroke-width:1.5;" x1="437" x2="266" y1="491.3984" y2="491.3984"/><polygon fill="#A80036" points="276,487.3984,266,491.3984,276,495.3984,272,491.3984" style="stroke:#A80036;stroke-width:1.0;"/><line style="stroke:#A80036;stroke-width:1.5;" x1="254" x2="254" y1="454.4805" y2="479.3984"/><polygon fill="#A80036" points="250,469.3984,254,479.3984,258,469.3984,254,473.3984" style="stroke:#A80036;stroke-width:1.0;"/><line style="stroke:#A80036;stroke-width:1.5;" x1="254" x2="254" y1="335.4688" y2="370.4688"/><polygon fill="#A80036" points="250,360.4688,254,370.4688,258,360.4688,254,364.4688" style="stroke:#A80036;stroke-width:1.0;"/><line style="stroke:#A80036;stroke-width:1.5;" x1="700.5" x2="700.5" y1="265.375" y2="300.375"/><polygon fill="#A80036" points="696.5,290.375,700.5,300.375,704.5,290.375,700.5,294.375" style="stroke:#A80036;stroke-width:1.0;"/><line style="stroke:#A80036;stroke-width:1.5;" x1="700.5" x2="700.5" y1="394.4688" y2="419.3867"/><polygon fill="#A80036" points="696.5,409.3867,700.5,419.3867,704.5,409.3867,700.5,413.3867" style="stroke:#A80036;stroke-width:1.0;"/><line style="stroke:#A80036;stroke-width:1.5;" x1="789.5" x2="885.5" y1="382.4688" y2="382.4688"/><polygon fill="#A80036" points="881.5,426.9336,885.5,436.9336,889.5,426.9336,885.5,430.9336" style="stroke:#A80036;stroke-width:1.5;"/><line style="stroke:#A80036;stroke-width:1.5;" x1="885.5" x2="885.5" y1="382.4688" y2="491.3984"/><line style="stroke:#A80036;stroke-width:1.5;" x1="885.5" x2="712.5" y1="491.3984" y2="491.3984"/><polygon fill="#A80036" points="722.5,487.3984,712.5,491.3984,722.5,495.3984,718.5,491.3984" style="stroke:#A80036;stroke-width:1.0;"/><line style="stroke:#A80036;stroke-width:1.5;" x1="700.5" x2="700.5" y1="454.4805" y2="479.3984"/><polygon fill="#A80036" points="696.5,469.3984,700.5,479.3984,704.5,469.3984,700.5,473.3984" style="stroke:#A80036;stroke-width:1.0;"/><line style="stroke:#A80036;stroke-width:1.5;" x1="700.5" x2="700.5" y1="335.4688" y2="370.4688"/><polygon fill="#A80036" points="696.5,360.4688,700.5,370.4688,704.5,360.4688,700.5,364.4688" style="stroke:#A80036;stroke-width:1.0;"/><line style="stroke:#A80036;stroke-width:1.5;" x1="1167" x2="1167" y1="359.4219" y2="384.3398"/><polygon fill="#A80036" points="1163,374.3398,1167,384.3398,1171,374.3398,1167,378.3398" style="stroke:#A80036;stroke-width:1.0;"/><line style="stroke:#A80036;stroke-width:1.5;" x1="1243.5" x2="1280.5" y1="347.4219" y2="347.4219"/><polygon fill="#A80036" points="1276.5,391.8867,1280.5,401.8867,1284.5,391.8867,1280.5,395.8867" style="stroke:#A80036;stroke-width:1.5;"/><line style="stroke:#A80036;stroke-width:1.5;" x1="1280.5" x2="1280.5" y1="347.4219" y2="456.3516"/><line style="stroke:#A80036;stroke-width:1.5;" x1="1280.5" x2="1179" y1="456.3516" y2="456.3516"/><polygon fill="#A80036" points="1189,452.3516,1179,456.3516,1189,460.3516,1185,456.3516" style="stroke:#A80036;stroke-width:1.0;"/><line style="stroke:#A80036;stroke-width:1.5;" x1="1167" x2="1167" y1="419.4336" y2="444.3516"/><polygon fill="#A80036" points="1163,434.3516,1167,444.3516,1171,434.3516,1167,438.3516" style="stroke:#A80036;stroke-width:1.0;"/><line style="stroke:#A80036;stroke-width:1.5;" x1="1167" x2="1167" y1="300.4219" y2="335.4219"/><polygon fill="#A80036" points="1163,325.4219,1167,335.4219,1171,325.4219,1167,329.4219" style="stroke:#A80036;stroke-width:1.0;"/><line style="stroke:#A80036;stroke-width:1.5;" x1="254" x2="254" y1="210.2813" y2="230.2813"/><polygon fill="#A80036" points="250,220.2813,254,230.2813,258,220.2813,254,224.2813" style="stroke:#A80036;stroke-width:1.0;"/><line style="stroke:#A80036;stroke-width:1.5;" x1="700.5" x2="700.5" y1="210.2813" y2="230.2813"/><polygon fill="#A80036" points="696.5,220.2813,700.5,230.2813,704.5,220.2813,700.5,224.2813" style="stroke:#A80036;stroke-width:1.0;"/><line style="stroke:#A80036;stroke-width:1.5;" x1="1167" x2="1167" y1="210.2813" y2="265.3281"/><polygon fill="#A80036" points="1163,255.3281,1167,265.3281,1171,255.3281,1167,259.3281" style="stroke:#A80036;stroke-width:1.0;"/><line style="stroke:#A80036;stroke-width:1.5;" x1="254" x2="254" y1="503.3984" y2="523.3984"/><polygon fill="#A80036" points="250,513.3984,254,523.3984,258,513.3984,254,517.3984" style="stroke:#A80036;stroke-width:1.0;"/><line style="stroke:#A80036;stroke-width:1.5;" x1="700.5" x2="700.5" y1="503.3984" y2="523.3984"/><polygon fill="#A80036" points="696.5,513.3984,700.5,523.3984,704.5,513.3984,700.5,517.3984" style="stroke:#A80036;stroke-width:1.0;"/><line style="stroke:#A80036;stroke-width:1.5;" x1="1167" x2="1167" y1="468.3516" y2="523.3984"/><polygon fill="#A80036" points="1163,513.3984,1167,523.3984,1171,513.3984,1167,517.3984" style="stroke:#A80036;stroke-width:1.0;"/><line style="stroke:#A80036;stroke-width:1.5;" x1="702.5" x2="702.5" y1="175.2344" y2="204.2813"/><polygon fill="#A80036" points="698.5,194.2813,702.5,204.2813,706.5,194.2813,702.5,198.2813" style="stroke:#A80036;stroke-width:1.0;"/><line style="stroke:#A80036;stroke-width:1.5;" x1="702.5" x2="702.5" y1="529.3984" y2="558.4453"/><polygon fill="#A80036" points="698.5,548.4453,702.5,558.4453,706.5,548.4453,702.5,552.4453" style="stroke:#A80036;stroke-width:1.0;"/><line style="stroke:#A80036;stroke-width:1.5;" x1="1695" x2="1695" y1="166.1875" y2="195.2344"/><polygon fill="#A80036" points="1691,185.2344,1695,195.2344,1699,185.2344,1695,189.2344" style="stroke:#A80036;stroke-width:1.0;"/><line style="stroke:#A80036;stroke-width:1.5;" x1="1695" x2="1695" y1="289.3281" y2="314.2461"/><polygon fill="#A80036" points="1691,304.2461,1695,314.2461,1699,304.2461,1695,308.2461" style="stroke:#A80036;stroke-width:1.0;"/><line style="stroke:#A80036;stroke-width:1.5;" x1="1779.5" x2="1791.5" y1="277.3281" y2="277.3281"/><polygon fill="#A80036" points="1787.5,321.793,1791.5,331.793,1795.5,321.793,1791.5,325.793" style="stroke:#A80036;stroke-width:1.5;"/><line style="stroke:#A80036;stroke-width:1.5;" x1="1791.5" x2="1791.5" y1="277.3281" y2="386.2578"/><line style="stroke:#A80036;stroke-width:1.5;" x1="1791.5" x2="1707" y1="386.2578" y2="386.2578"/><polygon fill="#A80036" points="1717,382.2578,1707,386.2578,1717,390.2578,1713,386.2578" style="stroke:#A80036;stroke-width:1.0;"/><line style="stroke:#A80036;stroke-width:1.5;" x1="1695" x2="1695" y1="349.3398" y2="374.2578"/><polygon fill="#A80036" points="1691,364.2578,1695,374.2578,1699,364.2578,1695,368.2578" style="stroke:#A80036;stroke-width:1.0;"/><line style="stroke:#A80036;stroke-width:1.5;" x1="1695" x2="1695" y1="230.3281" y2="265.3281"/><polygon fill="#A80036" points="1691,255.3281,1695,265.3281,1699,255.3281,1695,259.3281" style="stroke:#A80036;stroke-width:1.0;"/><line style="stroke:#A80036;stroke-width:1.5;" x1="1695" x2="1695" y1="398.2578" y2="433.2578"/><polygon fill="#A80036" points="1691,423.2578,1695,433.2578,1699,423.2578,1695,427.2578" style="stroke:#A80036;stroke-width:1.0;"/><line style="stroke:#A80036;stroke-width:1.5;" x1="1695" x2="1695" y1="468.3516" y2="503.3516"/><polygon fill="#A80036" points="1691,493.3516,1695,503.3516,1699,493.3516,1695,497.3516" style="stroke:#A80036;stroke-width:1.0;"/><line style="stroke:#A80036;stroke-width:1.5;" x1="1695" x2="1695" y1="538.4453" y2="567.4922"/><polygon fill="#A80036" points="1691,557.4922,1695,567.4922,1699,557.4922,1695,561.4922" style="stroke:#A80036;stroke-width:1.0;"/><line style="stroke:#A80036;stroke-width:1.5;" x1="702.5" x2="702.5" y1="111.0938" y2="140.1406"/><polygon fill="#A80036" points="698.5,130.1406,702.5,140.1406,706.5,130.1406,702.5,134.1406" style="stroke:#A80036;stroke-width:1.0;"/><line style="stroke:#A80036;stroke-width:1.5;" x1="1695" x2="1695" y1="111.0938" y2="131.0938"/><polygon fill="#A80036" points="1691,121.0938,1695,131.0938,1699,121.0938,1695,125.0938" style="stroke:#A80036;stroke-width:1.0;"/><line style="stroke:#A80036;stroke-width:1.5;" x1="702.5" x2="702.5" y1="593.5391" y2="622.5859"/><polygon fill="#A80036" points="698.5,612.5859,702.5,622.5859,706.5,612.5859,702.5,616.5859" style="stroke:#A80036;stroke-width:1.0;"/><line style="stroke:#A80036;stroke-width:1.5;" x1="1695" x2="1695" y1="602.5859" y2="622.5859"/><polygon fill="#A80036" points="1691,612.5859,1695,622.5859,1699,612.5859,1695,616.5859" style="stroke:#A80036;stroke-width:1.0;"/><line style="stroke:#A80036;stroke-width:1.5;" x1="1001.5" x2="1001.5" y1="85.0938" y2="105.0938"/><polygon fill="#A80036" points="997.5,95.0938,1001.5,105.0938,1005.5,95.0938,1001.5,99.0938" style="stroke:#A80036;stroke-width:1.0;"/><line style="stroke:#A80036;stroke-width:1.5;" x1="1001.5" x2="1001.5" y1="628.5859" y2="648.5859"/><polygon fill="#A80036" points="997.5,638.5859,1001.5,648.5859,1005.5,638.5859,1001.5,642.5859" style="stroke:#A80036;stroke-width:1.0;"/><!--MD5=[c6781eec499e47b921e1454266506b58]
@startuml COE_DE_Process_activities.svg
start
:Decompose project pipeline elements;
fork
  :Decompose static portions of pipeline;
  fork
    :Determine environments required by project;
    :Ensure blueprint definition has required templates to generate environments;
    if (has required blueprint templates) then (no)
       :Update environment blueprints to handle new requirements;
    endif
  fork again
    :Determine infrustructure elements required by project;
    :Ensure blueprint definition has required templates to generate infrustructure;
    if (has required blueprint templates) then (no)
       :Update infrustructure blueprints to handle new requirements;
    endif
  fork again
    :Determine CI/CD or XL Release templates are update for a valid release plan;
    if (valid XL Release templates) then (no)
       :Update XL Release template yaml;
    endif
  end fork
  :Execute test on static blueprints to 'devops' repo;
fork again
  :Decompose to application specific portions of pipeline;
    :Ensure app blueprint template has required executable yaml Git Repo, Build Definition, Branch Policy;
    if (has executable yaml elements) then (no)
       :Update executable yaml;
    endif
    :Ensure app blueprint template has templates for build definitions;
    :Ensure app blueprint has templates for any required deployment scripts;
    :Execute tests on app blueprints;
end fork

stop
@enduml

PlantUML version 1.2021.00(Sun Jan 10 03:25:05 MST 2021)
(GPL source distribution)
Java Runtime: OpenJDK Runtime Environment
JVM: OpenJDK 64-Bit Server VM
Default Encoding: Cp1252
Language: en
Country: US
--></g></svg>