<?xml version="1.0" encoding="UTF-8" standalone="no"?><svg xmlns="http://www.w3.org/2000/svg" xmlns:xlink="http://www.w3.org/1999/xlink" contentScriptType="application/ecmascript" contentStyleType="text/css" height="621px" preserveAspectRatio="none" style="width:1793px;height:621px;" version="1.1" viewBox="0 0 1793 621" width="1793px" zoomAndPan="magnify"><defs><filter height="300%" id="fh9xpcw" width="300%" x="-1" y="-1"><feGaussianBlur result="blurOut" stdDeviation="2.0"/><feColorMatrix in="blurOut" result="blurOut2" type="matrix" values="0 0 0 0 0 0 0 0 0 0 0 0 0 0 0 0 0 0 .4 0"/><feOffset dx="4.0" dy="4.0" in="blurOut2" result="blurOut3"/><feBlend in="SourceGraphic" in2="blurOut3" mode="normal"/></filter></defs><g><!--cluster ADO--><path d="M254,172 C254,169 256,167 259,167 C262,167 264,169 264,172 C264,169 266,167 269,167 C272,167 274,169 274,172 C274,169 276,167 279,167 C282,167 284,169 284,172 C284,169 286,167 289,167 C292,167 294,169 294,172 C294,169 296,167 299,167 C302,167 304,169 304,172 C304,169 306,167 309,167 C312,167 314,169 314,172 C314,169 316,167 319,167 C322,167 324,169 324,172 C324,169 326,167 329,167 C332,167 334,169 334,172 C334,169 336,167 339,167 C342,167 344,169 344,172 C344,169 346,167 349,167 C352,167 354,169 354,172 C354,169 356,167 359,167 C362,167 364,169 364,172 C364,169 366,167 369,167 C372,167 374,169 374,172 C374,169 376,167 379,167 C382,167 384,169 384,172 C384,169 386,167 389,167 C392,167 394,169 394,172 C394,169 396,167 399,167 C402,167 404,169 404,172 C404,169 406,167 409,167 C412,167 414,169 414,172 C414,169 416,167 419,167 C422,167 424,169 424,172 C424,169 426,167 429,167 C432,167 434,169 434,172 C434,169 436,167 439,167 C442,167 444,169 444,172 C444,169 446,167 449,167 C452,167 454,169 454,172 C454,169 456,167 459,167 C462,167 464,169 464,172 C464,169 466,167 469,167 C472,167 474,169 474,172 C474,169 476,167 479,167 C482,167 484,169 484,172 C484,169 486,167 489,167 C492,167 494,169 494,172 C494,169 496,167 499,167 C502,167 504,169 504,172 C504,169 506,167 509,167 C512,167 514,169 514,172 C514,169 516,167 519,167 C522,167 524,169 524,172 C524,169 526,167 529,167 C532,167 534,169 534,172 C534,169 536,167 539,167 C542,167 544,169 544,172 C544,169 546,167 549,167 C552,167 554,169 554,172 C554,169 556,167 559,167 C562,167 564,169 564,172 C564,169 566,167 569,167 C572,167 574,169 574,172 C574,169 576,167 579,167 C582,167 584,169 584,172 C584,169 586,167 589,167 C592,167 594,169 594,172 C594,169 596,167 599,167 C602,167 604,169 604,172 C604,169 606,167 609,167 C612,167 614,169 614,172 C614,169 616,167 619,167 C622,167 624,169 624,172 C624,169 626,167 629,167 C632,167 634,169 634,172 C634,169 636,167 639,167 C642,167 644,169 644,172 C644,169 646,167 649,167 C652,167 654,169 654,172 C654,169 656,167 659,167 C662,167 664,169 664,172 C664,169 666,167 669,167 C672,167 674,169 674,172 C674,169 676,167 679,167 C682,167 684,169 684,172 C684,169 686,167 689,167 C692,167 694,169 694,172 C694,169 696,167 699,167 C702,167 704,169 704,172 C704,169 706,167 709,167 C712,167 714,169 714,172 C714,169 716,167 719,167 C722,167 724,169 724,172 C724,169 726,167 729,167 C732,167 734,169 734,172 C734,169 736,167 739,167 C742,167 744,169 744,172 C744,169 746,167 749,167 C752,167 754,169 754,172 C754,169 756,167 759,167 C762,167 764,169 764,172 C764,169 766,167 769,167 C772,167 774,169 774,172 C774,169 776,167 779,167 C782,167 784,169 784,172 C784,169 786,167 789,167 C792,167 794,169 794,172 C794,169 796,167 799,167 C802,167 804,169 804,172 C804,169 806,167 809,167 C812,167 814,169 814,172 C814,169 816,167 819,167 C822,167 824,169 824,172 C824,169 826,167 829,167 C832,167 834,169 834,172 C834,169 836,167 839,167 C842,167 844,169 844,172 C844,169 846,167 849,167 C852,167 854,169 854,172 C854,169 856,167 859,167 C862,167 864,169 864,172 C864,169 866,167 869,167 C872,167 874,169 874,172 C874,169 876,167 879,167 C882,167 884,169 884,172 C884,169 886,167 889,167 C892,167 894,169 894,172 C894,169 896,167 899,167 C902,167 904,169 904,172 C904,169 906,167 909,167 C912,167 914,169 914,172 C914,169 916,167 919,167 C922,167 924,169 924,172 C924,169 926,167 929,167 C932,167 934,169 934,172 C934,169 936,167 939,167 C942,167 944,169 944,172 C944,169 946,167 949,167 C952,167 954,169 954,172 C954,169 956,167 959,167 C962,167 964,169 964,172 C964,169 966,167 969,167 C972,167 974,169 974,172 C974,169 976,167 979,167 C982,167 984,169 984,172 C984,169 986,167 989,167 C992,167 994,169 994,172 C994,169 996,167 999,167 C1002,167 1004,169 1004,172 C1004,169 1006,167 1009,167 C1012,167 1014,169 1014,172 C1014,169 1016,167 1019,167 C1022,167 1024,169 1024,172 C1024,169 1026,167 1029,167 C1032,167 1034,169 1034,172 C1034,169 1036,167 1039,167 C1042,167 1044,169 1044,172 C1044,169 1046,167 1049,167 C1052,167 1054,169 1054,172 C1057,172 1059,174 1059,177 C1059,180 1057,182 1054,182 C1057,182 1059,184 1059,187 C1059,190 1057,192 1054,192 C1057,192 1059,194 1059,197 C1059,200 1057,202 1054,202 C1057,202 1059,204 1059,207 C1059,210 1057,212 1054,212 C1057,212 1059,214 1059,217 C1059,220 1057,222 1054,222 C1057,222 1059,224 1059,227 C1059,230 1057,232 1054,232 C1057,232 1059,234 1059,237 C1059,240 1057,242 1054,242 C1057,242 1059,244 1059,247 C1059,250 1057,252 1054,252 C1057,252 1059,254 1059,257 C1059,260 1057,262 1054,262 C1057,262 1059,264 1059,267 C1059,270 1057,272 1054,272 C1057,272 1059,274 1059,277 C1059,280 1057,282 1054,282 C1057,282 1059,284 1059,287 C1059,290 1057,292 1054,292 C1057,292 1059,294 1059,297 C1059,300 1057,302 1054,302 C1057,302 1059,304 1059,307 C1059,310 1057,312 1054,312 C1057,312 1059,314 1059,317 C1059,320 1057,322 1054,322 C1057,322 1059,324 1059,327 C1059,330 1057,332 1054,332 C1057,332 1059,334 1059,337 C1059,340 1057,342 1054,342 C1057,342 1059,344 1059,347 C1059,350 1057,352 1054,352 C1057,352 1059,354 1059,357 C1059,360 1057,362 1054,362 C1057,362 1059,364 1059,367 C1059,370 1057,372 1054,372 C1057,372 1059,374 1059,377 C1059,380 1057,382 1054,382 C1057,382 1059,384 1059,387 C1059,390 1057,392 1054,392 C1057,392 1059,394 1059,397 C1059,400 1057,402 1054,402 C1057,402 1059,404 1059,407 C1059,410 1057,412 1054,412 C1057,412 1059,414 1059,417 C1059,420 1057,422 1054,422 C1057,422 1059,424 1059,427 C1059,430 1057,432 1054,432 C1057,432 1059,434 1059,437 C1059,440 1057,442 1054,442 C1057,442 1059,444 1059,447 C1059,450 1057,452 1054,452 C1057,452 1059,454 1059,457 C1059,460 1057,462 1054,462 C1057,462 1059,464 1059,467 C1059,470 1057,472 1054,472 C1057,472 1059,474 1059,477 C1059,480 1057,482 1054,482 C1057,482 1059,484 1059,487 C1059,490 1057,492 1054,492 C1054,495 1051,497 1049,497 C1046,497 1044,495 1044,492 C1044,495 1041,497 1039,497 C1036,497 1034,495 1034,492 C1034,495 1031,497 1029,497 C1026,497 1024,495 1024,492 C1024,495 1021,497 1019,497 C1016,497 1014,495 1014,492 C1014,495 1011,497 1009,497 C1006,497 1004,495 1004,492 C1004,495 1001,497 999,497 C996,497 994,495 994,492 C994,495 991,497 989,497 C986,497 984,495 984,492 C984,495 981,497 979,497 C976,497 974,495 974,492 C974,495 971,497 969,497 C966,497 964,495 964,492 C964,495 961,497 959,497 C956,497 954,495 954,492 C954,495 951,497 949,497 C946,497 944,495 944,492 C944,495 941,497 939,497 C936,497 934,495 934,492 C934,495 931,497 929,497 C926,497 924,495 924,492 C924,495 921,497 919,497 C916,497 914,495 914,492 C914,495 911,497 909,497 C906,497 904,495 904,492 C904,495 901,497 899,497 C896,497 894,495 894,492 C894,495 891,497 889,497 C886,497 884,495 884,492 C884,495 881,497 879,497 C876,497 874,495 874,492 C874,495 871,497 869,497 C866,497 864,495 864,492 C864,495 861,497 859,497 C856,497 854,495 854,492 C854,495 851,497 849,497 C846,497 844,495 844,492 C844,495 841,497 839,497 C836,497 834,495 834,492 C834,495 831,497 829,497 C826,497 824,495 824,492 C824,495 821,497 819,497 C816,497 814,495 814,492 C814,495 811,497 809,497 C806,497 804,495 804,492 C804,495 801,497 799,497 C796,497 794,495 794,492 C794,495 791,497 789,497 C786,497 784,495 784,492 C784,495 781,497 779,497 C776,497 774,495 774,492 C774,495 771,497 769,497 C766,497 764,495 764,492 C764,495 761,497 759,497 C756,497 754,495 754,492 C754,495 751,497 749,497 C746,497 744,495 744,492 C744,495 741,497 739,497 C736,497 734,495 734,492 C734,495 731,497 729,497 C726,497 724,495 724,492 C724,495 721,497 719,497 C716,497 714,495 714,492 C714,495 711,497 709,497 C706,497 704,495 704,492 C704,495 701,497 699,497 C696,497 694,495 694,492 C694,495 691,497 689,497 C686,497 684,495 684,492 C684,495 681,497 679,497 C676,497 674,495 674,492 C674,495 671,497 669,497 C666,497 664,495 664,492 C664,495 661,497 659,497 C656,497 654,495 654,492 C654,495 651,497 649,497 C646,497 644,495 644,492 C644,495 641,497 639,497 C636,497 634,495 634,492 C634,495 631,497 629,497 C626,497 624,495 624,492 C624,495 621,497 619,497 C616,497 614,495 614,492 C614,495 611,497 609,497 C606,497 604,495 604,492 C604,495 601,497 599,497 C596,497 594,495 594,492 C594,495 591,497 589,497 C586,497 584,495 584,492 C584,495 581,497 579,497 C576,497 574,495 574,492 C574,495 571,497 569,497 C566,497 564,495 564,492 C564,495 561,497 559,497 C556,497 554,495 554,492 C554,495 551,497 549,497 C546,497 544,495 544,492 C544,495 541,497 539,497 C536,497 534,495 534,492 C534,495 531,497 529,497 C526,497 524,495 524,492 C524,495 521,497 519,497 C516,497 514,495 514,492 C514,495 511,497 509,497 C506,497 504,495 504,492 C504,495 501,497 499,497 C496,497 494,495 494,492 C494,495 491,497 489,497 C486,497 484,495 484,492 C484,495 481,497 479,497 C476,497 474,495 474,492 C474,495 471,497 469,497 C466,497 464,495 464,492 C464,495 461,497 459,497 C456,497 454,495 454,492 C454,495 451,497 449,497 C446,497 444,495 444,492 C444,495 441,497 439,497 C436,497 434,495 434,492 C434,495 431,497 429,497 C426,497 424,495 424,492 C424,495 421,497 419,497 C416,497 414,495 414,492 C414,495 411,497 409,497 C406,497 404,495 404,492 C404,495 401,497 399,497 C396,497 394,495 394,492 C394,495 391,497 389,497 C386,497 384,495 384,492 C384,495 381,497 379,497 C376,497 374,495 374,492 C374,495 371,497 369,497 C366,497 364,495 364,492 C364,495 361,497 359,497 C356,497 354,495 354,492 C354,495 351,497 349,497 C346,497 344,495 344,492 C344,495 341,497 339,497 C336,497 334,495 334,492 C334,495 331,497 329,497 C326,497 324,495 324,492 C324,495 321,497 319,497 C316,497 314,495 314,492 C314,495 311,497 309,497 C306,497 304,495 304,492 C304,495 301,497 299,497 C296,497 294,495 294,492 C294,495 291,497 289,497 C286,497 284,495 284,492 C284,495 281,497 279,497 C276,497 274,495 274,492 C274,495 271,497 269,497 C266,497 264,495 264,492 C264,495 261,497 259,497 C256,497 254,495 254,492 C251,492 249,490 249,487 C249,484 251,482 254,482 C251,482 249,480 249,477 C249,474 251,472 254,472 C251,472 249,470 249,467 C249,464 251,462 254,462 C251,462 249,460 249,457 C249,454 251,452 254,452 C251,452 249,450 249,447 C249,444 251,442 254,442 C251,442 249,440 249,437 C249,434 251,432 254,432 C251,432 249,430 249,427 C249,424 251,422 254,422 C251,422 249,420 249,417 C249,414 251,412 254,412 C251,412 249,410 249,407 C249,404 251,402 254,402 C251,402 249,400 249,397 C249,394 251,392 254,392 C251,392 249,390 249,387 C249,384 251,382 254,382 C251,382 249,380 249,377 C249,374 251,372 254,372 C251,372 249,370 249,367 C249,364 251,362 254,362 C251,362 249,360 249,357 C249,354 251,352 254,352 C251,352 249,350 249,347 C249,344 251,342 254,342 C251,342 249,340 249,337 C249,334 251,332 254,332 C251,332 249,330 249,327 C249,324 251,322 254,322 C251,322 249,320 249,317 C249,314 251,312 254,312 C251,312 249,310 249,307 C249,304 251,302 254,302 C251,302 249,300 249,297 C249,294 251,292 254,292 C251,292 249,290 249,287 C249,284 251,282 254,282 C251,282 249,280 249,277 C249,274 251,272 254,272 C251,272 249,270 249,267 C249,264 251,262 254,262 C251,262 249,260 249,257 C249,254 251,252 254,252 C251,252 249,250 249,247 C249,244 251,242 254,242 C251,242 249,240 249,237 C249,234 251,232 254,232 C251,232 249,230 249,227 C249,224 251,222 254,222 C251,222 249,220 249,217 C249,214 251,212 254,212 C251,212 249,210 249,207 C249,204 251,202 254,202 C251,202 249,200 249,197 C249,194 251,192 254,192 C251,192 249,190 249,187 C249,184 251,182 254,182 C251,182 249,180 249,177 C249,174 251,172 254,172 " fill="#FFFFFF" filter="url(#fh9xpcw)" style="stroke: #000000; stroke-width: 2.0;"/><text fill="#000000" font-family="sans-serif" font-size="14" font-weight="bold" lengthAdjust="spacingAndGlyphs" textLength="30" x="639" y="192.5332">ADO</text><!--entity ADOBPEUI--><rect fill="#FEFECE" filter="url(#fh9xpcw)" height="37.6094" style="stroke: #A80036; stroke-width: 1.5;" width="356" x="537" y="209"/><rect fill="#FEFECE" height="5" style="stroke: #A80036; stroke-width: 1.5;" width="10" x="532" y="214"/><rect fill="#FEFECE" height="5" style="stroke: #A80036; stroke-width: 1.5;" width="10" x="532" y="236.6094"/><text fill="#000000" font-family="sans-serif" font-size="14" lengthAdjust="spacingAndGlyphs" textLength="209" x="547" y="233.5332">ADO COE Blueprint Execution UI:</text><text fill="#000000" font-family="sans-serif" font-size="14" font-weight="bold" lengthAdjust="spacingAndGlyphs" textLength="119" x="764" y="233.5332">Not implemented</text><!--entity ADOP--><rect fill="#FEFECE" filter="url(#fh9xpcw)" height="37.6094" style="stroke: #A80036; stroke-width: 1.5;" width="104" x="561" y="441"/><rect fill="#FEFECE" height="5" style="stroke: #A80036; stroke-width: 1.5;" width="10" x="556" y="446"/><rect fill="#FEFECE" height="5" style="stroke: #A80036; stroke-width: 1.5;" width="10" x="556" y="468.6094"/><text fill="#000000" font-family="sans-serif" font-size="14" lengthAdjust="spacingAndGlyphs" textLength="84" x="571" y="465.5332">ADO Pipeline</text><!--entity GITBP--><rect fill="#FEFECE" filter="url(#fh9xpcw)" height="37.6094" rx="35" ry="35" style="stroke: #000000; stroke-width: 1.5;" width="209" x="823.5" y="325"/><text fill="#000000" font-family="sans-serif" font-size="14" lengthAdjust="spacingAndGlyphs" textLength="189" x="833.5" y="349.5332">ADO Blueprint GIT Repository</text><!--entity GITPROJECT--><rect fill="#FEFECE" filter="url(#fh9xpcw)" height="37.6094" rx="35" ry="35" style="stroke: #000000; stroke-width: 1.5;" width="197" x="283.5" y="325"/><text fill="#000000" font-family="sans-serif" font-size="14" lengthAdjust="spacingAndGlyphs" textLength="177" x="293.5" y="349.5332">ADO Project GIT Repository</text><!--entity GITAPP--><rect fill="#FEFECE" filter="url(#fh9xpcw)" height="37.6094" rx="35" ry="35" style="stroke: #000000; stroke-width: 1.5;" width="222" x="566" y="325"/><text fill="#000000" font-family="sans-serif" font-size="14" lengthAdjust="spacingAndGlyphs" textLength="202" x="576" y="349.5332">ADO Application GIT Repository</text><!--entity AD--><ellipse cx="1056" cy="18" fill="#FEFECE" filter="url(#fh9xpcw)" rx="8" ry="8" style="stroke: #A80036; stroke-width: 2.0;"/><path d="M1056,26 L1056,53 M1043,34 L1069,34 M1056,53 L1043,68 M1056,53 L1069,68 " fill="#FEFECE" filter="url(#fh9xpcw)" style="stroke: #A80036; stroke-width: 2.0;"/><text fill="#000000" font-family="sans-serif" font-size="14" lengthAdjust="spacingAndGlyphs" textLength="138" x="987" y="89.5332">Application Developer</text><!--entity ADOBPECLI--><rect fill="#FEFECE" filter="url(#fh9xpcw)" height="37.6094" style="stroke: #A80036; stroke-width: 1.5;" width="200" x="1316" y="209"/><rect fill="#FEFECE" height="5" style="stroke: #A80036; stroke-width: 1.5;" width="10" x="1311" y="214"/><rect fill="#FEFECE" height="5" style="stroke: #A80036; stroke-width: 1.5;" width="10" x="1311" y="236.6094"/><text fill="#000000" font-family="sans-serif" font-size="14" lengthAdjust="spacingAndGlyphs" textLength="180" x="1326" y="233.5332">COE Blueprint Execution CLI</text><!--entity BPMS--><rect fill="#FEFECE" filter="url(#fh9xpcw)" height="37.6094" style="stroke: #A80036; stroke-width: 1.5;" width="212" x="6" y="441"/><rect fill="#FEFECE" height="5" style="stroke: #A80036; stroke-width: 1.5;" width="10" x="1" y="446"/><rect fill="#FEFECE" height="5" style="stroke: #A80036; stroke-width: 1.5;" width="10" x="1" y="468.6094"/><text fill="#000000" font-family="sans-serif" font-size="14" lengthAdjust="spacingAndGlyphs" textLength="192" x="16" y="465.5332">Executable Yaml Micro-service</text><!--entity XLR--><rect fill="#FEFECE" filter="url(#fh9xpcw)" height="37.6094" style="stroke: #A80036; stroke-width: 1.5;" width="92" x="248" y="575"/><rect fill="#FEFECE" height="5" style="stroke: #A80036; stroke-width: 1.5;" width="10" x="243" y="580"/><rect fill="#FEFECE" height="5" style="stroke: #A80036; stroke-width: 1.5;" width="10" x="243" y="602.6094"/><text fill="#000000" font-family="sans-serif" font-size="14" lengthAdjust="spacingAndGlyphs" textLength="72" x="258" y="599.5332">XL Release</text><!--entity XLD--><rect fill="#FEFECE" filter="url(#fh9xpcw)" height="37.6094" style="stroke: #A80036; stroke-width: 1.5;" width="84" x="398" y="575"/><rect fill="#FEFECE" height="5" style="stroke: #A80036; stroke-width: 1.5;" width="10" x="393" y="580"/><rect fill="#FEFECE" height="5" style="stroke: #A80036; stroke-width: 1.5;" width="10" x="393" y="602.6094"/><text fill="#000000" font-family="sans-serif" font-size="14" lengthAdjust="spacingAndGlyphs" textLength="64" x="408" y="599.5332">XL Deploy</text><path d="M1125.06,77.158 C1172.11,95.417 1235.34,121.503 1289,149 C1322.74,166.29 1359.46,189.34 1384.7,205.893 " fill="none" style="stroke: #A80036; stroke-width: 1.0;"/><polygon fill="#A80036" points="1388.96,208.698,1383.6535,200.4009,1384.7875,205.943,1379.2455,207.077,1388.96,208.698" style="stroke: #A80036; stroke-width: 1.0;"/><text fill="#000000" font-family="sans-serif" font-size="13" lengthAdjust="spacingAndGlyphs" textLength="108" x="1271" y="137.4951">Executes blueprint</text><path d="M986.994,87.015 C917.145,122.963 811.567,177.3 754.676,206.58 " fill="none" style="stroke: #A80036; stroke-width: 1.0;"/><polygon fill="#A80036" points="749.995,208.99,759.8279,208.4297,754.4411,206.7026,756.1681,201.3159,749.995,208.99" style="stroke: #A80036; stroke-width: 1.0;"/><text fill="#000000" font-family="sans-serif" font-size="13" lengthAdjust="spacingAndGlyphs" textLength="108" x="918" y="137.4951">Executes blueprint</text><path d="M1061.78,93.067 C1066.81,147.65 1066.27,242.67 1012,295 C1010.98,295.983 889.582,313.206 793.232,326.743 " fill="none" style="stroke: #A80036; stroke-width: 1.0;"/><polygon fill="#A80036" points="788.085,327.466,797.5533,330.1775,793.0366,326.7717,796.4424,322.255,788.085,327.466" style="stroke: #A80036; stroke-width: 1.0;"/><text fill="#000000" font-family="sans-serif" font-size="13" lengthAdjust="spacingAndGlyphs" textLength="223" x="1065" y="233.4951">Modifies app code and run pull request</text><path d="M1516.31,231.826 C1591.73,236.316 1686.17,247.799 1711,277 C1716.18,283.094 1716.48,289.173 1711,295 C1688.31,319.119 1248.13,334.296 1037.94,340.196 " fill="none" style="stroke: #A80036; stroke-width: 1.0;"/><polygon fill="#A80036" points="1032.71,340.342,1041.8099,344.1093,1037.7083,340.2134,1041.6042,336.1119,1032.71,340.342" style="stroke: #A80036; stroke-width: 1.0;"/><text fill="#000000" font-family="sans-serif" font-size="13" lengthAdjust="spacingAndGlyphs" textLength="77" x="1715" y="291.4951">Interacts with</text><path d="M1315.67,243.726 C1255.15,252.822 1176.55,265.012 1107,277 C1064.65,284.299 1054.63,289.604 1012,295 C806.983,320.951 753.884,307.19 548,325 C527.899,326.739 506.457,328.863 485.89,331.034 " fill="none" style="stroke: #A80036; stroke-width: 1.0;"/><polygon fill="#A80036" points="480.681,331.586,490.0526,334.6147,485.6531,331.0588,489.2091,326.6593,480.681,331.586" style="stroke: #A80036; stroke-width: 1.0;"/><text fill="#000000" font-family="sans-serif" font-size="13" lengthAdjust="spacingAndGlyphs" textLength="261" x="1108" y="291.4951">Generates XL updates, then runs pull request</text><path d="M1410.97,247.012 C1405.58,262.63 1395.35,284.35 1378,295 C1323.76,328.287 869.353,318.93 806,325 C801.793,325.403 797.514,325.843 793.194,326.313 " fill="none" style="stroke: #A80036; stroke-width: 1.0;"/><polygon fill="#A80036" points="788.106,326.877,797.4922,329.8601,793.0755,326.3256,796.61,321.9089,788.106,326.877" style="stroke: #A80036; stroke-width: 1.0;"/><text fill="#000000" font-family="sans-serif" font-size="13" lengthAdjust="spacingAndGlyphs" textLength="291" x="1396" y="291.4951">Generates pipeline updates, then runs pull request</text><path d="M836.472,247.03 C871.227,254.537 902.977,264.473 915,277 C925.803,288.256 928.871,305.738 929.336,319.882 " fill="none" style="stroke: #A80036; stroke-width: 1.0;"/><polygon fill="#A80036" points="929.398,324.925,933.2846,315.8754,929.3351,319.9254,925.2852,315.976,929.398,324.925" style="stroke: #A80036; stroke-width: 1.0;"/><text fill="#000000" font-family="sans-serif" font-size="13" lengthAdjust="spacingAndGlyphs" textLength="77" x="926" y="291.4951">Interacts with</text><path d="M536.778,246.911 C445.065,257.007 350.914,269.134 344,277 C332.351,290.253 343.174,307.624 356.205,321.219 " fill="none" style="stroke: #A80036; stroke-width: 1.0;"/><polygon fill="#A80036" points="359.922,324.946,356.3995,315.7486,356.3915,321.4055,350.7346,321.3975,359.922,324.946" style="stroke: #A80036; stroke-width: 1.0;"/><text fill="#000000" font-family="sans-serif" font-size="13" lengthAdjust="spacingAndGlyphs" textLength="261" x="345" y="291.4951">Generates XL updates, then runs pull request</text><path d="M652.996,247.111 C639.157,254.164 626.177,263.831 618,277 C607.836,293.37 621.779,309.536 638.654,321.772 " fill="none" style="stroke: #A80036; stroke-width: 1.0;"/><polygon fill="#A80036" points="642.994,324.795,637.8962,316.3681,638.8915,321.9367,633.3229,322.932,642.994,324.795" style="stroke: #A80036; stroke-width: 1.0;"/><text fill="#000000" font-family="sans-serif" font-size="13" lengthAdjust="spacingAndGlyphs" textLength="291" x="619" y="291.4951">Generates pipeline updates, then runs pull request</text><path d="M283.173,355.554 C206.765,364.736 112.013,378.769 100,393 C89.9433,404.913 93.6856,422.414 99.5453,436.402 " fill="none" style="stroke: #A80036; stroke-width: 1.0;"/><polygon fill="#A80036" points="101.5968,440.998,101.5826,431.1492,99.5595,436.4319,94.2768,434.4088,101.5968,440.998" style="stroke: #A80036; stroke-width: 1.0;"/><text fill="#000000" font-family="sans-serif" font-size="13" lengthAdjust="spacingAndGlyphs" textLength="354" x="101" y="407.4951">When a pull request completes executable yaml is executed.</text><path d="M588.449,363.046 C557.387,370.659 522.622,380.658 492,393 C476.865,399.1 475.465,405.794 460,411 C437.747,418.491 316.342,434.339 223.125,445.779 " fill="none" style="stroke: #A80036; stroke-width: 1.0;"/><polygon fill="#A80036" points="218.149,446.388,227.5689,449.2628,223.1118,445.7794,226.5952,441.3223,218.149,446.388" style="stroke: #A80036; stroke-width: 1.0;"/><text fill="#000000" font-family="sans-serif" font-size="13" lengthAdjust="spacingAndGlyphs" textLength="354" x="493" y="407.4951">When a pull request completes executable yaml is executed.</text><path d="M786.904,363.104 C818.213,370.627 846.453,380.555 856,393 C860.869,399.347 861.079,404.819 856,411 C832.963,439.033 734.703,450.966 670.405,455.843 " fill="none" style="stroke: #A80036; stroke-width: 1.0;"/><polygon fill="#A80036" points="665.065,456.238,674.3354,459.5636,670.0514,455.8694,673.7456,451.5854,665.065,456.238" style="stroke: #A80036; stroke-width: 1.0;"/><text fill="#000000" font-family="sans-serif" font-size="13" lengthAdjust="spacingAndGlyphs" textLength="136" x="861" y="407.4951">Starts pipeline instance</text><path d="M608.961,479.206 C603.872,498.105 593.353,527.3274 574,545 C550.036,566.8835 515.395,578.9466 487.338,585.506 " fill="none" style="stroke: #A80036; stroke-width: 1.0;"/><polygon fill="#A80036" points="482.18,586.6678,491.8389,588.5926,487.0578,585.5692,490.0812,580.7881,482.18,586.6678" style="stroke: #A80036; stroke-width: 1.0;"/><text fill="#000000" font-family="sans-serif" font-size="13" lengthAdjust="spacingAndGlyphs" textLength="164" x="590" y="541.4951">Creates application instance</text><path d="M561.495,479.133 C527.844,491.491 483.214,508.852 445,527 C430.26,534 427.708,537.9332 413,545 C391.065,555.5388 366.182,565.8235 344.861,574.1521 " fill="none" style="stroke: #A80036; stroke-width: 1.0;"/><polygon fill="#A80036" points="340.087,576.0074,349.9247,576.4752,344.7473,574.196,347.0265,569.0186,340.087,576.0074" style="stroke: #A80036; stroke-width: 1.0;"/><text fill="#000000" font-family="sans-serif" font-size="13" lengthAdjust="spacingAndGlyphs" textLength="119" x="446" y="541.4951">Creates release plan</text><path d="M250.9996,233.066 C250.7323,233.2068 250.4589,233.3511 250.1797,233.499 C249.6212,233.7948 249.0391,234.1048 248.4342,234.4289 C247.2245,235.0771 245.9238,235.7818 244.539,236.5419 C241.7693,238.0623 238.6629,239.8048 235.2747,241.7625 C221.7217,249.593 203.6578,260.8653 184.5829,275.1289 C146.433,303.656 104.239,344.148 86,393 C79.9264,409.268 88.4306,427.637 97.2967,440.858 " fill="none" style="stroke: #A80036; stroke-width: 1.0;"/><text fill="#000000" font-family="sans-serif" font-size="13" lengthAdjust="spacingAndGlyphs" textLength="120" x="129" y="349.4951">Changes ADO state.</text><path d="M148.934,479.046 C175.306,492.068 211.534,510.235 243,527 C257.401,534.673 259.956,538.6795 275,545 C313.536,561.1905 359.315,574.0367 392.865,582.3496 " fill="none" style="stroke: #A80036; stroke-width: 1.0;"/><polygon fill="#A80036" points="397.724,583.5431,389.9365,577.5137,392.868,582.3516,388.0301,585.2832,397.724,583.5431" style="stroke: #A80036; stroke-width: 1.0;"/><text fill="#000000" font-family="sans-serif" font-size="13" lengthAdjust="spacingAndGlyphs" textLength="128" x="276" y="541.4951">Changes configuration</text><path d="M105.2326,479.096 C99.5783,497.631 94.5345,526.3023 109,545 C125.293,566.0595 193.865,579.5789 242.764,586.7354 " fill="none" style="stroke: #A80036; stroke-width: 1.0;"/><polygon fill="#A80036" points="247.73,587.4503,239.3907,582.2104,242.7809,586.7389,238.2524,590.129,247.73,587.4503" style="stroke: #A80036; stroke-width: 1.0;"/><text fill="#000000" font-family="sans-serif" font-size="13" lengthAdjust="spacingAndGlyphs" textLength="128" x="110" y="541.4951">Changes configuration</text></g></svg>