<?xml version="1.0" encoding="UTF-8" standalone="no"?><svg xmlns="http://www.w3.org/2000/svg" xmlns:xlink="http://www.w3.org/1999/xlink" contentScriptType="application/ecmascript" contentStyleType="text/css" height="280px" preserveAspectRatio="none" style="width:230px;height:280px;" version="1.1" viewBox="0 0 230 280" width="230px" zoomAndPan="magnify"><defs><filter height="300%" id="flblmbz" width="300%" x="-1" y="-1"><feGaussianBlur result="blurOut" stdDeviation="2.0"/><feColorMatrix in="blurOut" result="blurOut2" type="matrix" values="0 0 0 0 0 0 0 0 0 0 0 0 0 0 0 0 0 0 .4 0"/><feOffset dx="4.0" dy="4.0" in="blurOut2" result="blurOut3"/><feBlend in="SourceGraphic" in2="blurOut3" mode="normal"/></filter></defs><g><ellipse cx="112.5" cy="20" fill="#000000" filter="url(#flblmbz)" rx="10" ry="10" style="stroke: none; stroke-width: 1.0;"/><rect fill="#FEFECE" filter="url(#flblmbz)" height="35.0938" rx="12.5" ry="12.5" style="stroke: #A80036; stroke-width: 1.5;" width="205" x="10" y="98.918"/><text fill="#000000" font-family="sans-serif" font-size="12" lengthAdjust="spacingAndGlyphs" textLength="185" x="20" y="121.375">Create/update required blueprints</text><polygon fill="#FEFECE" filter="url(#flblmbz)" points="35,50,190,50,202,62,190,74,35,74,23,62,35,50" style="stroke: #A80036; stroke-width: 1.5;"/><text fill="#000000" font-family="sans-serif" font-size="11" lengthAdjust="spacingAndGlyphs" textLength="18" x="116.5" y="85.4189">yes</text><text fill="#000000" font-family="sans-serif" font-size="11" lengthAdjust="spacingAndGlyphs" textLength="155" x="35" y="66.501">doesn't have required blueprints</text><polygon fill="#FEFECE" filter="url(#flblmbz)" points="112.5,154.0117,124.5,166.0117,112.5,178.0117,100.5,166.0117,112.5,154.0117" style="stroke: #A80036; stroke-width: 1.5;"/><rect fill="#FEFECE" filter="url(#flblmbz)" height="35.0938" rx="12.5" ry="12.5" style="stroke: #A80036; stroke-width: 1.5;" width="121" x="52" y="198.0117"/><text fill="#000000" font-family="sans-serif" font-size="12" lengthAdjust="spacingAndGlyphs" textLength="101" x="62" y="220.4688">Execute blueprints</text><ellipse cx="112.5" cy="263.1055" fill="none" filter="url(#flblmbz)" rx="10" ry="10" style="stroke: #000000; stroke-width: 1.0;"/><ellipse cx="113" cy="263.6055" fill="#000000" filter="url(#flblmbz)" rx="6" ry="6" style="stroke: none; stroke-width: 1.0;"/><line style="stroke: #A80036; stroke-width: 1.5;" x1="112.5" x2="112.5" y1="74" y2="98.918"/><polygon fill="#A80036" points="108.5,88.918,112.5,98.918,116.5,88.918,112.5,92.918" style="stroke: #A80036; stroke-width: 1.0;"/><line style="stroke: #A80036; stroke-width: 1.5;" x1="202" x2="225" y1="62" y2="62"/><polygon fill="#A80036" points="221,106.4648,225,116.4648,229,106.4648,225,110.4648" style="stroke: #A80036; stroke-width: 1.5;"/><line style="stroke: #A80036; stroke-width: 1.5;" x1="225" x2="225" y1="62" y2="166.0117"/><line style="stroke: #A80036; stroke-width: 1.5;" x1="225" x2="124.5" y1="166.0117" y2="166.0117"/><polygon fill="#A80036" points="134.5,162.0117,124.5,166.0117,134.5,170.0117,130.5,166.0117" style="stroke: #A80036; stroke-width: 1.0;"/><line style="stroke: #A80036; stroke-width: 1.5;" x1="112.5" x2="112.5" y1="134.0117" y2="154.0117"/><polygon fill="#A80036" points="108.5,144.0117,112.5,154.0117,116.5,144.0117,112.5,148.0117" style="stroke: #A80036; stroke-width: 1.0;"/><line style="stroke: #A80036; stroke-width: 1.5;" x1="112.5" x2="112.5" y1="30" y2="50"/><polygon fill="#A80036" points="108.5,40,112.5,50,116.5,40,112.5,44" style="stroke: #A80036; stroke-width: 1.0;"/><line style="stroke: #A80036; stroke-width: 1.5;" x1="112.5" x2="112.5" y1="178.0117" y2="198.0117"/><polygon fill="#A80036" points="108.5,188.0117,112.5,198.0117,116.5,188.0117,112.5,192.0117" style="stroke: #A80036; stroke-width: 1.0;"/><line style="stroke: #A80036; stroke-width: 1.5;" x1="112.5" x2="112.5" y1="233.1055" y2="253.1055"/><polygon fill="#A80036" points="108.5,243.1055,112.5,253.1055,116.5,243.1055,112.5,247.1055" style="stroke: #A80036; stroke-width: 1.0;"/></g></svg>