<?xml version="1.0" encoding="UTF-8" standalone="no"?><svg xmlns="http://www.w3.org/2000/svg" xmlns:xlink="http://www.w3.org/1999/xlink" contentScriptType="application/ecmascript" contentStyleType="text/css" height="292px" preserveAspectRatio="none" style="width:252px;height:292px;" version="1.1" viewBox="0 0 252 292" width="252px" zoomAndPan="magnify"><defs><filter height="300%" id="f967om4ae7a59" width="300%" x="-1" y="-1"><feGaussianBlur result="blurOut" stdDeviation="2.0"/><feColorMatrix in="blurOut" result="blurOut2" type="matrix" values="0 0 0 0 0 0 0 0 0 0 0 0 0 0 0 0 0 0 .4 0"/><feOffset dx="4.0" dy="4.0" in="blurOut2" result="blurOut3"/><feBlend in="SourceGraphic" in2="blurOut3" mode="normal"/></filter></defs><g><ellipse cx="113.5" cy="20" fill="#000000" filter="url(#f967om4ae7a59)" rx="10" ry="10" style="stroke:none;stroke-width:1.0;"/><rect fill="#FEFECE" filter="url(#f967om4ae7a59)" height="35.0938" rx="12.5" ry="12.5" style="stroke:#A80036;stroke-width:1.5;" width="205" x="11" y="98.918"/><text fill="#000000" font-family="sans-serif" font-size="12" lengthAdjust="spacing" textLength="185" x="21" y="121.375">Create/update required blueprints</text><polygon fill="#FEFECE" filter="url(#f967om4ae7a59)" points="36,50,191,50,203,62,191,74,36,74,24,62,36,50" style="stroke:#A80036;stroke-width:1.5;"/><text fill="#000000" font-family="sans-serif" font-size="11" lengthAdjust="spacing" textLength="18" x="117.5" y="85.4189">yes</text><text fill="#000000" font-family="sans-serif" font-size="11" lengthAdjust="spacing" textLength="155" x="36" y="66.501">doesn't have required blueprints</text><polygon fill="#FEFECE" filter="url(#f967om4ae7a59)" points="113.5,154.0117,125.5,166.0117,113.5,178.0117,101.5,166.0117,113.5,154.0117" style="stroke:#A80036;stroke-width:1.5;"/><rect fill="#FEFECE" filter="url(#f967om4ae7a59)" height="35.0938" rx="12.5" ry="12.5" style="stroke:#A80036;stroke-width:1.5;" width="121" x="53" y="198.0117"/><text fill="#000000" font-family="sans-serif" font-size="12" lengthAdjust="spacing" textLength="101" x="63" y="220.4688">Execute blueprints</text><ellipse cx="113.5" cy="264.1055" fill="#FFFFFF" filter="url(#f967om4ae7a59)" rx="11" ry="11" style="stroke:#000000;stroke-width:1.0;"/><ellipse cx="113.5" cy="264.1055" fill="#000000" rx="6" ry="6" style="stroke:#7F7F7F;stroke-width:1.0;"/><line style="stroke:#A80036;stroke-width:1.5;" x1="113.5" x2="113.5" y1="74" y2="98.918"/><polygon fill="#A80036" points="109.5,88.918,113.5,98.918,117.5,88.918,113.5,92.918" style="stroke:#A80036;stroke-width:1.0;"/><line style="stroke:#A80036;stroke-width:1.5;" x1="203" x2="226" y1="62" y2="62"/><polygon fill="#A80036" points="222,106.4648,226,116.4648,230,106.4648,226,110.4648" style="stroke:#A80036;stroke-width:1.5;"/><line style="stroke:#A80036;stroke-width:1.5;" x1="226" x2="226" y1="62" y2="166.0117"/><line style="stroke:#A80036;stroke-width:1.5;" x1="226" x2="125.5" y1="166.0117" y2="166.0117"/><polygon fill="#A80036" points="135.5,162.0117,125.5,166.0117,135.5,170.0117,131.5,166.0117" style="stroke:#A80036;stroke-width:1.0;"/><line style="stroke:#A80036;stroke-width:1.5;" x1="113.5" x2="113.5" y1="134.0117" y2="154.0117"/><polygon fill="#A80036" points="109.5,144.0117,113.5,154.0117,117.5,144.0117,113.5,148.0117" style="stroke:#A80036;stroke-width:1.0;"/><line style="stroke:#A80036;stroke-width:1.5;" x1="113.5" x2="113.5" y1="30" y2="50"/><polygon fill="#A80036" points="109.5,40,113.5,50,117.5,40,113.5,44" style="stroke:#A80036;stroke-width:1.0;"/><line style="stroke:#A80036;stroke-width:1.5;" x1="113.5" x2="113.5" y1="178.0117" y2="198.0117"/><polygon fill="#A80036" points="109.5,188.0117,113.5,198.0117,117.5,188.0117,113.5,192.0117" style="stroke:#A80036;stroke-width:1.0;"/><line style="stroke:#A80036;stroke-width:1.5;" x1="113.5" x2="113.5" y1="233.1055" y2="253.1055"/><polygon fill="#A80036" points="109.5,243.1055,113.5,253.1055,117.5,243.1055,113.5,247.1055" style="stroke:#A80036;stroke-width:1.0;"/><!--MD5=[f7cfc1a90b3cc91f35baa86a8d5e6944]
@startuml Pipeline_main_activities.svg
start
if (doesn't have required blueprints) then (yes)
  :Create/update required blueprints;
endif
:Execute blueprints;

stop
@enduml

PlantUML version 1.2021.00(Sun Jan 10 03:25:05 MST 2021)
(GPL source distribution)
Java Runtime: OpenJDK Runtime Environment
JVM: OpenJDK 64-Bit Server VM
Default Encoding: Cp1252
Language: en
Country: US
--></g></svg>