<?xml version="1.0" encoding="UTF-8" standalone="no"?><svg xmlns="http://www.w3.org/2000/svg" xmlns:xlink="http://www.w3.org/1999/xlink" contentScriptType="application/ecmascript" contentStyleType="text/css" height="716px" preserveAspectRatio="none" style="width:1327px;height:716px;" version="1.1" viewBox="0 0 1327 716" width="1327px" zoomAndPan="magnify"><defs><filter height="300%" id="f7aanlo" width="300%" x="-1" y="-1"><feGaussianBlur result="blurOut" stdDeviation="2.0"/><feColorMatrix in="blurOut" result="blurOut2" type="matrix" values="0 0 0 0 0 0 0 0 0 0 0 0 0 0 0 0 0 0 .4 0"/><feOffset dx="4.0" dy="4.0" in="blurOut2" result="blurOut3"/><feBlend in="SourceGraphic" in2="blurOut3" mode="normal"/></filter></defs><g><!--cluster com.zions.pipeline.services.cli.action.dts--><polygon fill="#FFFFFF" filter="url(#f7aanlo)" points="68,157,363,157,370,180.6094,373,180.6094,373,247,68,247,68,157" style="stroke: #000000; stroke-width: 2.0;"/><line style="stroke: #000000; stroke-width: 2.0;" x1="68" x2="370" y1="180.6094" y2="180.6094"/><text fill="#000000" font-family="sans-serif" font-size="14" font-weight="bold" lengthAdjust="spacingAndGlyphs" textLength="289" x="72" y="173.5332">com.zions.pipeline.services.cli.action.dts</text><!--cluster com.zions.pipeline.services.yaml.template--><polygon fill="#FFFFFF" filter="url(#f7aanlo)" points="22,297,324,297,331,320.6094,334,320.6094,334,387,22,387,22,297" style="stroke: #000000; stroke-width: 2.0;"/><line style="stroke: #000000; stroke-width: 2.0;" x1="22" x2="331" y1="320.6094" y2="320.6094"/><text fill="#000000" font-family="sans-serif" font-size="14" font-weight="bold" lengthAdjust="spacingAndGlyphs" textLength="296" x="26" y="313.5332">com.zions.pipeline.services.yaml.template</text><!--cluster com.zions.pipeline.services.yaml.template.execution--><polygon fill="#FFFFFF" filter="url(#f7aanlo)" points="358,297,734,297,741,320.6094,1094,320.6094,1094,685,358,685,358,297" style="stroke: #000000; stroke-width: 2.0;"/><line style="stroke: #000000; stroke-width: 2.0;" x1="358" x2="741" y1="320.6094" y2="320.6094"/><text fill="#000000" font-family="sans-serif" font-size="14" font-weight="bold" lengthAdjust="spacingAndGlyphs" textLength="370" x="362" y="313.5332">com.zions.pipeline.services.yaml.template.execution</text><!--cluster GIT Repository--><rect fill="#FFFFFF" filter="url(#f7aanlo)" height="158" rx="35" ry="35" style="stroke: #000000; stroke-width: 2.0;" width="202" x="1118" y="551"/><text fill="#000000" font-family="sans-serif" font-size="14" font-weight="bold" lengthAdjust="spacingAndGlyphs" textLength="103" x="1167.5" y="572.5332">GIT Repository</text><!--cluster pipeline--><polygon fill="#FFFFFF" filter="url(#f7aanlo)" points="1142,595,1205,595,1212,618.6094,1296,618.6094,1296,685,1142,685,1142,595" style="stroke: #000000; stroke-width: 2.0;"/><line style="stroke: #000000; stroke-width: 2.0;" x1="1142" x2="1212" y1="618.6094" y2="618.6094"/><text fill="#000000" font-family="sans-serif" font-size="14" font-weight="bold" lengthAdjust="spacingAndGlyphs" textLength="57" x="1146" y="611.5332">pipeline</text><!--entity PB--><rect fill="#FEFECE" filter="url(#f7aanlo)" height="37.6094" style="stroke: #A80036; stroke-width: 1.5;" width="118" x="129" y="193"/><rect fill="#FEFECE" height="5" style="stroke: #A80036; stroke-width: 1.5;" width="10" x="124" y="198"/><rect fill="#FEFECE" height="5" style="stroke: #A80036; stroke-width: 1.5;" width="10" x="124" y="220.6094"/><a target="_top" xlink:actuate="onRequest" xlink:href="https://dev.azure.com/zionseto/DTS/_git/zions-service-framework?path=%2Fzions-pipeline-cli%2Fsrc%2Fmain%2Fgroovy%2Fcom%2Fzions%2Fpipeline%2Fservices%2Fcli%2Faction%2Fdts%2FPipelineBuilder.groovy&amp;version=GBmaster&amp;line=1&amp;lineEnd=2&amp;lineStartColumn=1&amp;lineEndColumn=1&amp;lineStyle=plain" xlink:show="new" xlink:title="https://dev.azure.com/zionseto/DTS/_git/zions-service-framework?path=%2Fzions-pipeline-cli%2Fsrc%2Fmain%2Fgroovy%2Fcom%2Fzions%2Fpipeline%2Fservices%2Fcli%2Faction%2Fdts%2FPipelineBuilder.groovy&amp;version=GBmaster&amp;line=1&amp;lineEnd=2&amp;lineStartColumn=1&amp;lineEndColumn=1&amp;lineStyle=plain" xlink:type="simple"><text fill="#0000FF" font-family="sans-serif" font-size="14" lengthAdjust="spacingAndGlyphs" text-decoration="underline" textLength="98" x="139" y="217.5332">Pipeline Builder</text><line style="stroke: #0000FF; stroke-width: 1.0;" x1="139" x2="237" y1="219.5332" y2="219.5332"/></a><!--entity BTIS--><rect fill="#FEFECE" filter="url(#f7aanlo)" height="37.6094" style="stroke: #A80036; stroke-width: 1.5;" width="260" x="58" y="333"/><rect fill="#FEFECE" height="5" style="stroke: #A80036; stroke-width: 1.5;" width="10" x="53" y="338"/><rect fill="#FEFECE" height="5" style="stroke: #A80036; stroke-width: 1.5;" width="10" x="53" y="360.6094"/><a target="_top" xlink:actuate="onRequest" xlink:href="https://dev.azure.com/zionseto/DTS/_git/zions-service-framework?path=%2Fzions-pipeline-services%2Fsrc%2Fmain%2Fgroovy%2Fcom%2Fzions%2Fpipeline%2Fservices%2Fyaml%2Ftemplate%2FBlueprintTemplateInterpretorService.groovy" xlink:show="new" xlink:title="https://dev.azure.com/zionseto/DTS/_git/zions-service-framework?path=%2Fzions-pipeline-services%2Fsrc%2Fmain%2Fgroovy%2Fcom%2Fzions%2Fpipeline%2Fservices%2Fyaml%2Ftemplate%2FBlueprintTemplateInterpretorService.groovy" xlink:type="simple"><text fill="#0000FF" font-family="sans-serif" font-size="14" lengthAdjust="spacingAndGlyphs" text-decoration="underline" textLength="240" x="68" y="357.5332">Blueprint Template Interpretor Service</text><line style="stroke: #0000FF; stroke-width: 1.0;" x1="68" x2="308" y1="359.5332" y2="359.5332"/></a><!--entity IExecutableYamlHandler--><ellipse cx="743" cy="460" fill="#FEFECE" filter="url(#f7aanlo)" rx="8" ry="8" style="stroke: #A80036; stroke-width: 2.0;"/><text fill="#000000" font-family="sans-serif" font-size="14" lengthAdjust="spacingAndGlyphs" textLength="152" x="667" y="483.5332">IExecutableYamlHandler</text><!--entity BP--><rect fill="#FEFECE" filter="url(#f7aanlo)" height="37.6094" style="stroke: #A80036; stroke-width: 1.5;" width="102" x="976" y="333"/><rect fill="#FEFECE" height="5" style="stroke: #A80036; stroke-width: 1.5;" width="10" x="971" y="338"/><rect fill="#FEFECE" height="5" style="stroke: #A80036; stroke-width: 1.5;" width="10" x="971" y="360.6094"/><a target="_top" xlink:actuate="onRequest" xlink:href="https://dev.azure.com/zionseto/DTS/_git/zions-service-framework?path=%2Fzions-pipeline-services%2Fsrc%2Fmain%2Fgroovy%2Fcom%2Fzions%2Fpipeline%2Fservices%2Fyaml%2Ftemplate%2Fexecution%2FBranchPolicy.groovy" xlink:show="new" xlink:title="https://dev.azure.com/zionseto/DTS/_git/zions-service-framework?path=%2Fzions-pipeline-services%2Fsrc%2Fmain%2Fgroovy%2Fcom%2Fzions%2Fpipeline%2Fservices%2Fyaml%2Ftemplate%2Fexecution%2FBranchPolicy.groovy" xlink:type="simple"><text fill="#0000FF" font-family="sans-serif" font-size="14" lengthAdjust="spacingAndGlyphs" text-decoration="underline" textLength="82" x="986" y="357.5332">BranchPolicy</text><line style="stroke: #0000FF; stroke-width: 1.0;" x1="986" x2="1068" y1="359.5332" y2="359.5332"/></a><!--entity BD--><rect fill="#FEFECE" filter="url(#f7aanlo)" height="37.6094" style="stroke: #A80036; stroke-width: 1.5;" width="110" x="831" y="333"/><rect fill="#FEFECE" height="5" style="stroke: #A80036; stroke-width: 1.5;" width="10" x="826" y="338"/><rect fill="#FEFECE" height="5" style="stroke: #A80036; stroke-width: 1.5;" width="10" x="826" y="360.6094"/><a target="_top" xlink:actuate="onRequest" xlink:href="https://dev.azure.com/zionseto/DTS/_git/zions-service-framework?path=%2Fzions-pipeline-services%2Fsrc%2Fmain%2Fgroovy%2Fcom%2Fzions%2Fpipeline%2Fservices%2Fyaml%2Ftemplate%2Fexecution%2FBuildDefinition.groovy" xlink:show="new" xlink:title="https://dev.azure.com/zionseto/DTS/_git/zions-service-framework?path=%2Fzions-pipeline-services%2Fsrc%2Fmain%2Fgroovy%2Fcom%2Fzions%2Fpipeline%2Fservices%2Fyaml%2Ftemplate%2Fexecution%2FBuildDefinition.groovy" xlink:type="simple"><text fill="#0000FF" font-family="sans-serif" font-size="14" lengthAdjust="spacingAndGlyphs" text-decoration="underline" textLength="90" x="841" y="357.5332">BuildDefinition</text><line style="stroke: #0000FF; stroke-width: 1.0;" x1="841" x2="931" y1="359.5332" y2="359.5332"/></a><!--entity GR--><rect fill="#FEFECE" filter="url(#f7aanlo)" height="37.6094" style="stroke: #A80036; stroke-width: 1.5;" width="106" x="690" y="333"/><rect fill="#FEFECE" height="5" style="stroke: #A80036; stroke-width: 1.5;" width="10" x="685" y="338"/><rect fill="#FEFECE" height="5" style="stroke: #A80036; stroke-width: 1.5;" width="10" x="685" y="360.6094"/><a target="_top" xlink:actuate="onRequest" xlink:href="https://dev.azure.com/zionseto/DTS/_git/zions-service-framework?path=%2Fzions-pipeline-services%2Fsrc%2Fmain%2Fgroovy%2Fcom%2Fzions%2Fpipeline%2Fservices%2Fyaml%2Ftemplate%2Fexecution%2FGitRepository.groovy" xlink:show="new" xlink:title="https://dev.azure.com/zionseto/DTS/_git/zions-service-framework?path=%2Fzions-pipeline-services%2Fsrc%2Fmain%2Fgroovy%2Fcom%2Fzions%2Fpipeline%2Fservices%2Fyaml%2Ftemplate%2Fexecution%2FGitRepository.groovy" xlink:type="simple"><text fill="#0000FF" font-family="sans-serif" font-size="14" lengthAdjust="spacingAndGlyphs" text-decoration="underline" textLength="86" x="700" y="357.5332">GitRepository</text><line style="stroke: #0000FF; stroke-width: 1.0;" x1="700" x2="786" y1="359.5332" y2="359.5332"/></a><!--entity RXLB--><rect fill="#FEFECE" filter="url(#f7aanlo)" height="37.6094" style="stroke: #A80036; stroke-width: 1.5;" width="125" x="396.5" y="631"/><rect fill="#FEFECE" height="5" style="stroke: #A80036; stroke-width: 1.5;" width="10" x="391.5" y="636"/><rect fill="#FEFECE" height="5" style="stroke: #A80036; stroke-width: 1.5;" width="10" x="391.5" y="658.6094"/><a target="_top" xlink:actuate="onRequest" xlink:href="https://dev.azure.com/zionseto/DTS/_git/zions-service-framework?path=%2Fzions-pipeline-services%2Fsrc%2Fmain%2Fgroovy%2Fcom%2Fzions%2Fpipeline%2Fservices%2Fyaml%2Ftemplate%2Fexecution%2FRunXLBlueprints.groovy" xlink:show="new" xlink:title="https://dev.azure.com/zionseto/DTS/_git/zions-service-framework?path=%2Fzions-pipeline-services%2Fsrc%2Fmain%2Fgroovy%2Fcom%2Fzions%2Fpipeline%2Fservices%2Fyaml%2Ftemplate%2Fexecution%2FRunXLBlueprints.groovy" xlink:type="simple"><text fill="#0000FF" font-family="sans-serif" font-size="14" lengthAdjust="spacingAndGlyphs" text-decoration="underline" textLength="105" x="406.5" y="655.5332">RunXLBlueprints</text><line style="stroke: #0000FF; stroke-width: 1.0;" x1="406.5" x2="511.5" y1="657.5332" y2="657.5332"/></a><!--entity RXLDA--><rect fill="#FEFECE" filter="url(#f7aanlo)" height="37.6094" style="stroke: #A80036; stroke-width: 1.5;" width="141" x="556.5" y="631"/><rect fill="#FEFECE" height="5" style="stroke: #A80036; stroke-width: 1.5;" width="10" x="551.5" y="636"/><rect fill="#FEFECE" height="5" style="stroke: #A80036; stroke-width: 1.5;" width="10" x="551.5" y="658.6094"/><a target="_top" xlink:actuate="onRequest" xlink:href="https://dev.azure.com/zionseto/DTS/_git/zions-service-framework?path=%2Fzions-pipeline-services%2Fsrc%2Fmain%2Fgroovy%2Fcom%2Fzions%2Fpipeline%2Fservices%2Fyaml%2Ftemplate%2Fexecution%2FRunXLDeployApply.groovy" xlink:show="new" xlink:title="https://dev.azure.com/zionseto/DTS/_git/zions-service-framework?path=%2Fzions-pipeline-services%2Fsrc%2Fmain%2Fgroovy%2Fcom%2Fzions%2Fpipeline%2Fservices%2Fyaml%2Ftemplate%2Fexecution%2FRunXLDeployApply.groovy" xlink:type="simple"><text fill="#0000FF" font-family="sans-serif" font-size="14" lengthAdjust="spacingAndGlyphs" text-decoration="underline" textLength="121" x="566.5" y="655.5332">RunXLDeployApply</text><line style="stroke: #0000FF; stroke-width: 1.0;" x1="566.5" x2="687.5" y1="657.5332" y2="657.5332"/></a><!--entity RXLRA--><rect fill="#FEFECE" filter="url(#f7aanlo)" height="37.6094" style="stroke: #A80036; stroke-width: 1.5;" width="149" x="732.5" y="631"/><rect fill="#FEFECE" height="5" style="stroke: #A80036; stroke-width: 1.5;" width="10" x="727.5" y="636"/><rect fill="#FEFECE" height="5" style="stroke: #A80036; stroke-width: 1.5;" width="10" x="727.5" y="658.6094"/><a target="_top" xlink:actuate="onRequest" xlink:href="https://dev.azure.com/zionseto/DTS/_git/zions-service-framework?path=%2Fzions-pipeline-services%2Fsrc%2Fmain%2Fgroovy%2Fcom%2Fzions%2Fpipeline%2Fservices%2Fyaml%2Ftemplate%2Fexecution%2FRunXLReleaseApply.groovy" xlink:show="new" xlink:title="https://dev.azure.com/zionseto/DTS/_git/zions-service-framework?path=%2Fzions-pipeline-services%2Fsrc%2Fmain%2Fgroovy%2Fcom%2Fzions%2Fpipeline%2Fservices%2Fyaml%2Ftemplate%2Fexecution%2FRunXLReleaseApply.groovy" xlink:type="simple"><text fill="#0000FF" font-family="sans-serif" font-size="14" lengthAdjust="spacingAndGlyphs" text-decoration="underline" textLength="129" x="742.5" y="655.5332">RunXLReleaseApply</text><line style="stroke: #0000FF; stroke-width: 1.0;" x1="742.5" x2="871.5" y1="657.5332" y2="657.5332"/></a><!--entity WI--><rect fill="#FEFECE" filter="url(#f7aanlo)" height="37.6094" style="stroke: #A80036; stroke-width: 1.5;" width="79" x="575.5" y="333"/><rect fill="#FEFECE" height="5" style="stroke: #A80036; stroke-width: 1.5;" width="10" x="570.5" y="338"/><rect fill="#FEFECE" height="5" style="stroke: #A80036; stroke-width: 1.5;" width="10" x="570.5" y="360.6094"/><a target="_top" xlink:actuate="onRequest" xlink:href="https://dev.azure.com/zionseto/DTS/_git/zions-service-framework?path=%2Fzions-pipeline-services%2Fsrc%2Fmain%2Fgroovy%2Fcom%2Fzions%2Fpipeline%2Fservices%2Fyaml%2Ftemplate%2Fexecution%2FWorkItem.groovy" xlink:show="new" xlink:title="https://dev.azure.com/zionseto/DTS/_git/zions-service-framework?path=%2Fzions-pipeline-services%2Fsrc%2Fmain%2Fgroovy%2Fcom%2Fzions%2Fpipeline%2Fservices%2Fyaml%2Ftemplate%2Fexecution%2FWorkItem.groovy" xlink:type="simple"><text fill="#0000FF" font-family="sans-serif" font-size="14" lengthAdjust="spacingAndGlyphs" text-decoration="underline" textLength="59" x="585.5" y="357.5332">WorkItem</text><line style="stroke: #0000FF; stroke-width: 1.0;" x1="585.5" x2="644.5" y1="359.5332" y2="359.5332"/></a><!--entity SC--><rect fill="#FEFECE" filter="url(#f7aanlo)" height="37.6094" style="stroke: #A80036; stroke-width: 1.5;" width="139" x="916.5" y="631"/><rect fill="#FEFECE" height="5" style="stroke: #A80036; stroke-width: 1.5;" width="10" x="911.5" y="636"/><rect fill="#FEFECE" height="5" style="stroke: #A80036; stroke-width: 1.5;" width="10" x="911.5" y="658.6094"/><text fill="#000000" font-family="sans-serif" font-size="14" lengthAdjust="spacingAndGlyphs" textLength="119" x="926.5" y="655.5332">ServiceConnection</text><!--entity WHS--><rect fill="#FEFECE" filter="url(#f7aanlo)" height="37.6094" style="stroke: #A80036; stroke-width: 1.5;" width="166" x="374" y="333"/><rect fill="#FEFECE" height="5" style="stroke: #A80036; stroke-width: 1.5;" width="10" x="369" y="338"/><rect fill="#FEFECE" height="5" style="stroke: #A80036; stroke-width: 1.5;" width="10" x="369" y="360.6094"/><text fill="#000000" font-family="sans-serif" font-size="14" lengthAdjust="spacingAndGlyphs" textLength="146" x="384" y="357.5332">WebHookSubscriptions</text><!--entity ey--><polygon fill="#FEFECE" filter="url(#f7aanlo)" points="1158.5,631,1158.5,668.6094,1279.5,668.6094,1279.5,641,1269.5,631,1158.5,631" style="stroke: #000000; stroke-width: 1.5;"/><path d="M1269.5,631 L1269.5,641 L1279.5,641 " fill="#FEFECE" style="stroke: #000000; stroke-width: 1.5;"/><text fill="#000000" font-family="sans-serif" font-size="14" lengthAdjust="spacingAndGlyphs" textLength="101" x="1168.5" y="655.5332">executable.yaml</text><!--entity RE--><ellipse cx="188" cy="18" fill="#FEFECE" filter="url(#f7aanlo)" rx="8" ry="8" style="stroke: #A80036; stroke-width: 2.0;"/><path d="M188,26 L188,53 M175,34 L201,34 M188,53 L175,68 M188,53 L201,68 " fill="#FEFECE" filter="url(#f7aanlo)" style="stroke: #A80036; stroke-width: 2.0;"/><text fill="#000000" font-family="sans-serif" font-size="14" lengthAdjust="spacingAndGlyphs" textLength="112" x="132" y="89.5332">DevOps Engineer</text><path d="M188,93.407 C188,123.566 188,163.126 188,187.803 " fill="none" style="stroke: #A80036; stroke-width: 1.0;"/><polygon fill="#A80036" points="188,192.834,192,183.834,188,187.834,184,183.834,188,192.834" style="stroke: #A80036; stroke-width: 1.0;"/><text fill="#000000" font-family="sans-serif" font-size="13" lengthAdjust="spacingAndGlyphs" textLength="143" x="189" y="137.4951">Runs pipeline builder CLI</text><path d="M188,231.041 C188,255.836 188,300.466 188,327.742 " fill="none" style="stroke: #A80036; stroke-width: 1.0;"/><polygon fill="#A80036" points="188,332.954,192,323.954,188,327.954,184,323.954,188,332.954" style="stroke: #A80036; stroke-width: 1.0;"/><text fill="#000000" font-family="sans-serif" font-size="13" lengthAdjust="spacingAndGlyphs" textLength="257" x="189" y="277.4951">Executes blueprint and any executable yaml</text><path d="M1000.98,371.008 C988.629,379.044 973.44,388.209 959,395 C911.058,417.547 854.204,436.472 810.862,449.399 " fill="none" style="stroke: #A80036; stroke-width: 1.0;"/><polygon fill="#A80036" points="805.912,450.867,815.6778,452.1437,810.7057,449.4457,813.4037,444.4737,805.912,450.867" style="stroke: #A80036; stroke-width: 1.0;"/><path d="M863.341,371.222 C837.476,392.023 795.276,425.959 768.341,447.621 " fill="none" style="stroke: #A80036; stroke-width: 1.0;"/><polygon fill="#A80036" points="764.154,450.988,773.6742,448.465,768.0504,447.8546,768.6608,442.2308,764.154,450.988" style="stroke: #A80036; stroke-width: 1.0;"/><path d="M743,371.222 C743,391.424 743,424.015 743,445.719 " fill="none" style="stroke: #A80036; stroke-width: 1.0;"/><polygon fill="#A80036" points="743,450.988,747,441.988,743,445.988,739,441.988,743,450.988" style="stroke: #A80036; stroke-width: 1.0;"/><path d="M661.396,487.519 C621.799,498.802 575.11,516.451 539,543 C506.678,566.763 481.336,607.192 468.417,630.6546 " fill="none" style="stroke: #A80036; stroke-width: 1.0;"/><polygon fill="#A80036" points="666.685,486.038,656.9398,484.6131,661.8702,487.3863,659.0971,492.3168,666.685,486.038" style="stroke: #A80036; stroke-width: 1.0;"/><path d="M728.905,491.751 C705.796,527.409 660.278,597.649 638.777,630.8268 " fill="none" style="stroke: #A80036; stroke-width: 1.0;"/><polygon fill="#A80036" points="731.877,487.163,723.6261,492.541,729.1581,491.3592,730.34,496.8912,731.877,487.163" style="stroke: #A80036; stroke-width: 1.0;"/><path d="M750.934,492.189 C763.731,527.982 788.688,597.785 800.502,630.8268 " fill="none" style="stroke: #A80036; stroke-width: 1.0;"/><polygon fill="#A80036" points="749.137,487.163,748.402,496.9844,750.821,491.8709,755.9346,494.2899,749.137,487.163" style="stroke: #A80036; stroke-width: 1.0;"/><path d="M798.577,488.982 C829.979,501.359 868.856,519.576 899,543 C931.522,568.272 959.82,607.795 974.75,630.7674 " fill="none" style="stroke: #A80036; stroke-width: 1.0;"/><polygon fill="#A80036" points="793.603,487.046,800.5386,494.0387,798.2623,488.86,803.441,486.5838,793.603,487.046" style="stroke: #A80036; stroke-width: 1.0;"/><path d="M500.18,371.159 C518.046,378.62 538.991,387.298 558,395 C604.092,413.676 656.881,434.445 694.24,449.04 " fill="none" style="stroke: #A80036; stroke-width: 1.0;"/><polygon fill="#A80036" points="699.177,450.967,692.2477,443.968,694.5193,449.1488,689.3386,451.4203,699.177,450.967" style="stroke: #A80036; stroke-width: 1.0;"/><path d="M635.282,371.222 C658.434,392.023 696.207,425.959 720.317,447.621 " fill="none" style="stroke: #A80036; stroke-width: 1.0;"/><polygon fill="#A80036" points="724.065,450.988,720.0424,441.9981,720.3453,447.6468,714.6965,447.9496,724.065,450.988" style="stroke: #A80036; stroke-width: 1.0;"/><path d="M198.495,371.228 C208.847,387.33 226.256,409.921 248,421 C318.199,456.768 539.955,465.424 661.448,467.447 " fill="none" style="stroke: #A80036; stroke-width: 1.0;"/><polygon fill="#A80036" points="666.799,467.532,657.8641,463.3885,661.7996,467.452,657.7362,471.3875,666.799,467.532" style="stroke: #A80036; stroke-width: 1.0;"/><text fill="#000000" font-family="sans-serif" font-size="13" lengthAdjust="spacingAndGlyphs" textLength="320" x="249" y="417.4951">Execute yaml handler on executable yaml file from GIT.</text><path d="M819.079,474.934 C892.638,482.159 1005.629,499.854 1094,543 C1136.72,563.856 1176.91,602.633 1199.69,627.0598 " fill="none" style="stroke: #A80036; stroke-width: 1.0;"/><polygon fill="#A80036" points="1203.19,630.8519,1200.0194,621.5273,1199.7965,627.1798,1194.1441,626.9569,1203.19,630.8519" style="stroke: #A80036; stroke-width: 1.0;"/><text fill="#000000" font-family="sans-serif" font-size="13" lengthAdjust="spacingAndGlyphs" textLength="220" x="1077" y="531.4951">Executable yaml file in GIT repository.</text></g></svg>