<?xml version="1.0" encoding="UTF-8" standalone="no"?><svg xmlns="http://www.w3.org/2000/svg" xmlns:xlink="http://www.w3.org/1999/xlink" contentScriptType="application/ecmascript" contentStyleType="text/css" height="716px" preserveAspectRatio="none" style="width:1126px;height:716px;" version="1.1" viewBox="0 0 1126 716" width="1126px" zoomAndPan="magnify"><defs><filter height="300%" id="feh9feq" width="300%" x="-1" y="-1"><feGaussianBlur result="blurOut" stdDeviation="2.0"/><feColorMatrix in="blurOut" result="blurOut2" type="matrix" values="0 0 0 0 0 0 0 0 0 0 0 0 0 0 0 0 0 0 .4 0"/><feOffset dx="4.0" dy="4.0" in="blurOut2" result="blurOut3"/><feBlend in="SourceGraphic" in2="blurOut3" mode="normal"/></filter></defs><g><!--cluster com.zions.pipeline.services.cli.action.dts--><polygon fill="#FFFFFF" filter="url(#feh9feq)" points="68,157,363,157,370,180.6094,373,180.6094,373,247,68,247,68,157" style="stroke: #000000; stroke-width: 2.0;"/><line style="stroke: #000000; stroke-width: 2.0;" x1="68" x2="370" y1="180.6094" y2="180.6094"/><text fill="#000000" font-family="sans-serif" font-size="14" font-weight="bold" lengthAdjust="spacingAndGlyphs" textLength="289" x="72" y="173.5332">com.zions.pipeline.services.cli.action.dts</text><!--cluster com.zions.pipeline.services.yaml.template--><polygon fill="#FFFFFF" filter="url(#feh9feq)" points="22,297,324,297,331,320.6094,334,320.6094,334,387,22,387,22,297" style="stroke: #000000; stroke-width: 2.0;"/><line style="stroke: #000000; stroke-width: 2.0;" x1="22" x2="331" y1="320.6094" y2="320.6094"/><text fill="#000000" font-family="sans-serif" font-size="14" font-weight="bold" lengthAdjust="spacingAndGlyphs" textLength="296" x="26" y="313.5332">com.zions.pipeline.services.yaml.template</text><!--cluster com.zions.pipeline.services.yaml.template.execution--><polygon fill="#FFFFFF" filter="url(#feh9feq)" points="358,297,734,297,741,320.6094,893,320.6094,893,685,358,685,358,297" style="stroke: #000000; stroke-width: 2.0;"/><line style="stroke: #000000; stroke-width: 2.0;" x1="358" x2="741" y1="320.6094" y2="320.6094"/><text fill="#000000" font-family="sans-serif" font-size="14" font-weight="bold" lengthAdjust="spacingAndGlyphs" textLength="370" x="362" y="313.5332">com.zions.pipeline.services.yaml.template.execution</text><!--cluster GIT Repository--><rect fill="#FFFFFF" filter="url(#feh9feq)" height="158" rx="35" ry="35" style="stroke: #000000; stroke-width: 2.0;" width="202" x="917" y="551"/><text fill="#000000" font-family="sans-serif" font-size="14" font-weight="bold" lengthAdjust="spacingAndGlyphs" textLength="103" x="966.5" y="572.5332">GIT Repository</text><!--cluster pipeline--><polygon fill="#FFFFFF" filter="url(#feh9feq)" points="941,595,1004,595,1011,618.6094,1095,618.6094,1095,685,941,685,941,595" style="stroke: #000000; stroke-width: 2.0;"/><line style="stroke: #000000; stroke-width: 2.0;" x1="941" x2="1011" y1="618.6094" y2="618.6094"/><text fill="#000000" font-family="sans-serif" font-size="14" font-weight="bold" lengthAdjust="spacingAndGlyphs" textLength="57" x="945" y="611.5332">pipeline</text><!--entity PB--><rect fill="#FEFECE" filter="url(#feh9feq)" height="37.6094" style="stroke: #A80036; stroke-width: 1.5;" width="118" x="129" y="193"/><rect fill="#FEFECE" height="5" style="stroke: #A80036; stroke-width: 1.5;" width="10" x="124" y="198"/><rect fill="#FEFECE" height="5" style="stroke: #A80036; stroke-width: 1.5;" width="10" x="124" y="220.6094"/><a target="_top" xlink:actuate="onRequest" xlink:href="https://dev.azure.com/zionseto/DTS/_git/zions-service-framework?path=%2Fzions-pipeline-cli%2Fsrc%2Fmain%2Fgroovy%2Fcom%2Fzions%2Fpipeline%2Fservices%2Fcli%2Faction%2Fdts%2FPipelineBuilder.groovy&amp;version=GBmaster&amp;line=1&amp;lineEnd=2&amp;lineStartColumn=1&amp;lineEndColumn=1&amp;lineStyle=plain" xlink:show="new" xlink:title="https://dev.azure.com/zionseto/DTS/_git/zions-service-framework?path=%2Fzions-pipeline-cli%2Fsrc%2Fmain%2Fgroovy%2Fcom%2Fzions%2Fpipeline%2Fservices%2Fcli%2Faction%2Fdts%2FPipelineBuilder.groovy&amp;version=GBmaster&amp;line=1&amp;lineEnd=2&amp;lineStartColumn=1&amp;lineEndColumn=1&amp;lineStyle=plain" xlink:type="simple"><text fill="#0000FF" font-family="sans-serif" font-size="14" lengthAdjust="spacingAndGlyphs" text-decoration="underline" textLength="98" x="139" y="217.5332">Pipeline Builder</text><line style="stroke: #0000FF; stroke-width: 1.0;" x1="139" x2="237" y1="219.5332" y2="219.5332"/></a><!--entity BTIS--><rect fill="#FEFECE" filter="url(#feh9feq)" height="37.6094" style="stroke: #A80036; stroke-width: 1.5;" width="260" x="58" y="333"/><rect fill="#FEFECE" height="5" style="stroke: #A80036; stroke-width: 1.5;" width="10" x="53" y="338"/><rect fill="#FEFECE" height="5" style="stroke: #A80036; stroke-width: 1.5;" width="10" x="53" y="360.6094"/><a target="_top" xlink:actuate="onRequest" xlink:href="https://dev.azure.com/zionseto/DTS/_git/zions-service-framework?path=%2Fzions-pipeline-services%2Fsrc%2Fmain%2Fgroovy%2Fcom%2Fzions%2Fpipeline%2Fservices%2Fyaml%2Ftemplate%2FBlueprintTemplateInterpretorService.groovy" xlink:show="new" xlink:title="https://dev.azure.com/zionseto/DTS/_git/zions-service-framework?path=%2Fzions-pipeline-services%2Fsrc%2Fmain%2Fgroovy%2Fcom%2Fzions%2Fpipeline%2Fservices%2Fyaml%2Ftemplate%2FBlueprintTemplateInterpretorService.groovy" xlink:type="simple"><text fill="#0000FF" font-family="sans-serif" font-size="14" lengthAdjust="spacingAndGlyphs" text-decoration="underline" textLength="240" x="68" y="357.5332">Blueprint Template Interpretor Service</text><line style="stroke: #0000FF; stroke-width: 1.0;" x1="68" x2="308" y1="359.5332" y2="359.5332"/></a><!--entity IExecutableYamlHandler--><ellipse cx="613" cy="460" fill="#FEFECE" filter="url(#feh9feq)" rx="8" ry="8" style="stroke: #A80036; stroke-width: 2.0;"/><text fill="#000000" font-family="sans-serif" font-size="14" lengthAdjust="spacingAndGlyphs" textLength="152" x="537" y="483.5332">IExecutableYamlHandler</text><!--entity BP--><rect fill="#FEFECE" filter="url(#feh9feq)" height="37.6094" style="stroke: #A80036; stroke-width: 1.5;" width="102" x="775" y="333"/><rect fill="#FEFECE" height="5" style="stroke: #A80036; stroke-width: 1.5;" width="10" x="770" y="338"/><rect fill="#FEFECE" height="5" style="stroke: #A80036; stroke-width: 1.5;" width="10" x="770" y="360.6094"/><a target="_top" xlink:actuate="onRequest" xlink:href="https://dev.azure.com/zionseto/DTS/_git/zions-service-framework?path=%2Fzions-pipeline-services%2Fsrc%2Fmain%2Fgroovy%2Fcom%2Fzions%2Fpipeline%2Fservices%2Fyaml%2Ftemplate%2Fexecution%2FBranchPolicy.groovy" xlink:show="new" xlink:title="https://dev.azure.com/zionseto/DTS/_git/zions-service-framework?path=%2Fzions-pipeline-services%2Fsrc%2Fmain%2Fgroovy%2Fcom%2Fzions%2Fpipeline%2Fservices%2Fyaml%2Ftemplate%2Fexecution%2FBranchPolicy.groovy" xlink:type="simple"><text fill="#0000FF" font-family="sans-serif" font-size="14" lengthAdjust="spacingAndGlyphs" text-decoration="underline" textLength="82" x="785" y="357.5332">BranchPolicy</text><line style="stroke: #0000FF; stroke-width: 1.0;" x1="785" x2="867" y1="359.5332" y2="359.5332"/></a><!--entity BD--><rect fill="#FEFECE" filter="url(#feh9feq)" height="37.6094" style="stroke: #A80036; stroke-width: 1.5;" width="110" x="630" y="333"/><rect fill="#FEFECE" height="5" style="stroke: #A80036; stroke-width: 1.5;" width="10" x="625" y="338"/><rect fill="#FEFECE" height="5" style="stroke: #A80036; stroke-width: 1.5;" width="10" x="625" y="360.6094"/><a target="_top" xlink:actuate="onRequest" xlink:href="https://dev.azure.com/zionseto/DTS/_git/zions-service-framework?path=%2Fzions-pipeline-services%2Fsrc%2Fmain%2Fgroovy%2Fcom%2Fzions%2Fpipeline%2Fservices%2Fyaml%2Ftemplate%2Fexecution%2FBuildDefinition.groovy" xlink:show="new" xlink:title="https://dev.azure.com/zionseto/DTS/_git/zions-service-framework?path=%2Fzions-pipeline-services%2Fsrc%2Fmain%2Fgroovy%2Fcom%2Fzions%2Fpipeline%2Fservices%2Fyaml%2Ftemplate%2Fexecution%2FBuildDefinition.groovy" xlink:type="simple"><text fill="#0000FF" font-family="sans-serif" font-size="14" lengthAdjust="spacingAndGlyphs" text-decoration="underline" textLength="90" x="640" y="357.5332">BuildDefinition</text><line style="stroke: #0000FF; stroke-width: 1.0;" x1="640" x2="730" y1="359.5332" y2="359.5332"/></a><!--entity GR--><rect fill="#FEFECE" filter="url(#feh9feq)" height="37.6094" style="stroke: #A80036; stroke-width: 1.5;" width="106" x="489" y="333"/><rect fill="#FEFECE" height="5" style="stroke: #A80036; stroke-width: 1.5;" width="10" x="484" y="338"/><rect fill="#FEFECE" height="5" style="stroke: #A80036; stroke-width: 1.5;" width="10" x="484" y="360.6094"/><a target="_top" xlink:actuate="onRequest" xlink:href="https://dev.azure.com/zionseto/DTS/_git/zions-service-framework?path=%2Fzions-pipeline-services%2Fsrc%2Fmain%2Fgroovy%2Fcom%2Fzions%2Fpipeline%2Fservices%2Fyaml%2Ftemplate%2Fexecution%2FGitRepository.groovy" xlink:show="new" xlink:title="https://dev.azure.com/zionseto/DTS/_git/zions-service-framework?path=%2Fzions-pipeline-services%2Fsrc%2Fmain%2Fgroovy%2Fcom%2Fzions%2Fpipeline%2Fservices%2Fyaml%2Ftemplate%2Fexecution%2FGitRepository.groovy" xlink:type="simple"><text fill="#0000FF" font-family="sans-serif" font-size="14" lengthAdjust="spacingAndGlyphs" text-decoration="underline" textLength="86" x="499" y="357.5332">GitRepository</text><line style="stroke: #0000FF; stroke-width: 1.0;" x1="499" x2="585" y1="359.5332" y2="359.5332"/></a><!--entity RXLB--><rect fill="#FEFECE" filter="url(#feh9feq)" height="37.6094" style="stroke: #A80036; stroke-width: 1.5;" width="125" x="382.5" y="631"/><rect fill="#FEFECE" height="5" style="stroke: #A80036; stroke-width: 1.5;" width="10" x="377.5" y="636"/><rect fill="#FEFECE" height="5" style="stroke: #A80036; stroke-width: 1.5;" width="10" x="377.5" y="658.6094"/><a target="_top" xlink:actuate="onRequest" xlink:href="https://dev.azure.com/zionseto/DTS/_git/zions-service-framework?path=%2Fzions-pipeline-services%2Fsrc%2Fmain%2Fgroovy%2Fcom%2Fzions%2Fpipeline%2Fservices%2Fyaml%2Ftemplate%2Fexecution%2FRunXLBlueprints.groovy" xlink:show="new" xlink:title="https://dev.azure.com/zionseto/DTS/_git/zions-service-framework?path=%2Fzions-pipeline-services%2Fsrc%2Fmain%2Fgroovy%2Fcom%2Fzions%2Fpipeline%2Fservices%2Fyaml%2Ftemplate%2Fexecution%2FRunXLBlueprints.groovy" xlink:type="simple"><text fill="#0000FF" font-family="sans-serif" font-size="14" lengthAdjust="spacingAndGlyphs" text-decoration="underline" textLength="105" x="392.5" y="655.5332">RunXLBlueprints</text><line style="stroke: #0000FF; stroke-width: 1.0;" x1="392.5" x2="497.5" y1="657.5332" y2="657.5332"/></a><!--entity RXLDA--><rect fill="#FEFECE" filter="url(#feh9feq)" height="37.6094" style="stroke: #A80036; stroke-width: 1.5;" width="141" x="542.5" y="631"/><rect fill="#FEFECE" height="5" style="stroke: #A80036; stroke-width: 1.5;" width="10" x="537.5" y="636"/><rect fill="#FEFECE" height="5" style="stroke: #A80036; stroke-width: 1.5;" width="10" x="537.5" y="658.6094"/><a target="_top" xlink:actuate="onRequest" xlink:href="https://dev.azure.com/zionseto/DTS/_git/zions-service-framework?path=%2Fzions-pipeline-services%2Fsrc%2Fmain%2Fgroovy%2Fcom%2Fzions%2Fpipeline%2Fservices%2Fyaml%2Ftemplate%2Fexecution%2FRunXLDeployApply.groovy" xlink:show="new" xlink:title="https://dev.azure.com/zionseto/DTS/_git/zions-service-framework?path=%2Fzions-pipeline-services%2Fsrc%2Fmain%2Fgroovy%2Fcom%2Fzions%2Fpipeline%2Fservices%2Fyaml%2Ftemplate%2Fexecution%2FRunXLDeployApply.groovy" xlink:type="simple"><text fill="#0000FF" font-family="sans-serif" font-size="14" lengthAdjust="spacingAndGlyphs" text-decoration="underline" textLength="121" x="552.5" y="655.5332">RunXLDeployApply</text><line style="stroke: #0000FF; stroke-width: 1.0;" x1="552.5" x2="673.5" y1="657.5332" y2="657.5332"/></a><!--entity RXLRA--><rect fill="#FEFECE" filter="url(#feh9feq)" height="37.6094" style="stroke: #A80036; stroke-width: 1.5;" width="149" x="718.5" y="631"/><rect fill="#FEFECE" height="5" style="stroke: #A80036; stroke-width: 1.5;" width="10" x="713.5" y="636"/><rect fill="#FEFECE" height="5" style="stroke: #A80036; stroke-width: 1.5;" width="10" x="713.5" y="658.6094"/><a target="_top" xlink:actuate="onRequest" xlink:href="https://dev.azure.com/zionseto/DTS/_git/zions-service-framework?path=%2Fzions-pipeline-services%2Fsrc%2Fmain%2Fgroovy%2Fcom%2Fzions%2Fpipeline%2Fservices%2Fyaml%2Ftemplate%2Fexecution%2FRunXLReleaseApply.groovy" xlink:show="new" xlink:title="https://dev.azure.com/zionseto/DTS/_git/zions-service-framework?path=%2Fzions-pipeline-services%2Fsrc%2Fmain%2Fgroovy%2Fcom%2Fzions%2Fpipeline%2Fservices%2Fyaml%2Ftemplate%2Fexecution%2FRunXLReleaseApply.groovy" xlink:type="simple"><text fill="#0000FF" font-family="sans-serif" font-size="14" lengthAdjust="spacingAndGlyphs" text-decoration="underline" textLength="129" x="728.5" y="655.5332">RunXLReleaseApply</text><line style="stroke: #0000FF; stroke-width: 1.0;" x1="728.5" x2="857.5" y1="657.5332" y2="657.5332"/></a><!--entity WI--><rect fill="#FEFECE" filter="url(#feh9feq)" height="37.6094" style="stroke: #A80036; stroke-width: 1.5;" width="79" x="374.5" y="333"/><rect fill="#FEFECE" height="5" style="stroke: #A80036; stroke-width: 1.5;" width="10" x="369.5" y="338"/><rect fill="#FEFECE" height="5" style="stroke: #A80036; stroke-width: 1.5;" width="10" x="369.5" y="360.6094"/><a target="_top" xlink:actuate="onRequest" xlink:href="https://dev.azure.com/zionseto/DTS/_git/zions-service-framework?path=%2Fzions-pipeline-services%2Fsrc%2Fmain%2Fgroovy%2Fcom%2Fzions%2Fpipeline%2Fservices%2Fyaml%2Ftemplate%2Fexecution%2FWorkItem.groovy" xlink:show="new" xlink:title="https://dev.azure.com/zionseto/DTS/_git/zions-service-framework?path=%2Fzions-pipeline-services%2Fsrc%2Fmain%2Fgroovy%2Fcom%2Fzions%2Fpipeline%2Fservices%2Fyaml%2Ftemplate%2Fexecution%2FWorkItem.groovy" xlink:type="simple"><text fill="#0000FF" font-family="sans-serif" font-size="14" lengthAdjust="spacingAndGlyphs" text-decoration="underline" textLength="59" x="384.5" y="357.5332">WorkItem</text><line style="stroke: #0000FF; stroke-width: 1.0;" x1="384.5" x2="443.5" y1="359.5332" y2="359.5332"/></a><!--entity ey--><polygon fill="#FEFECE" filter="url(#feh9feq)" points="957.5,631,957.5,668.6094,1078.5,668.6094,1078.5,641,1068.5,631,957.5,631" style="stroke: #000000; stroke-width: 1.5;"/><path d="M1068.5,631 L1068.5,641 L1078.5,641 " fill="#FEFECE" style="stroke: #000000; stroke-width: 1.5;"/><text fill="#000000" font-family="sans-serif" font-size="14" lengthAdjust="spacingAndGlyphs" textLength="101" x="967.5" y="655.5332">executable.yaml</text><!--entity RE--><ellipse cx="188" cy="18" fill="#FEFECE" filter="url(#feh9feq)" rx="8" ry="8" style="stroke: #A80036; stroke-width: 2.0;"/><path d="M188,26 L188,53 M175,34 L201,34 M188,53 L175,68 M188,53 L201,68 " fill="#FEFECE" filter="url(#feh9feq)" style="stroke: #A80036; stroke-width: 2.0;"/><text fill="#000000" font-family="sans-serif" font-size="14" lengthAdjust="spacingAndGlyphs" textLength="112" x="132" y="89.5332">DevOps Engineer</text><path d="M188,93.407 C188,123.566 188,163.126 188,187.803 " fill="none" style="stroke: #A80036; stroke-width: 1.0;"/><polygon fill="#A80036" points="188,192.834,192,183.834,188,187.834,184,183.834,188,192.834" style="stroke: #A80036; stroke-width: 1.0;"/><text fill="#000000" font-family="sans-serif" font-size="13" lengthAdjust="spacingAndGlyphs" textLength="143" x="189" y="137.4951">Runs pipeline builder CLI</text><path d="M188,231.041 C188,255.836 188,300.466 188,327.742 " fill="none" style="stroke: #A80036; stroke-width: 1.0;"/><polygon fill="#A80036" points="188,332.954,192,323.954,188,327.954,184,323.954,188,332.954" style="stroke: #A80036; stroke-width: 1.0;"/><text fill="#000000" font-family="sans-serif" font-size="13" lengthAdjust="spacingAndGlyphs" textLength="257" x="189" y="277.4951">Executes blueprint and any executable yaml</text><path d="M797.875,371.132 C785.751,378.749 771.322,387.551 758,395 C723.325,414.389 682.874,434.558 653.521,448.77 " fill="none" style="stroke: #A80036; stroke-width: 1.0;"/><polygon fill="#A80036" points="648.907,450.999,658.7509,450.6851,653.409,448.8237,655.2704,443.4818,648.907,450.999" style="stroke: #A80036; stroke-width: 1.0;"/><path d="M673.591,371.222 C660.783,391.68 640.018,424.846 626.435,446.541 " fill="none" style="stroke: #A80036; stroke-width: 1.0;"/><polygon fill="#A80036" points="623.651,450.988,631.8178,445.4832,626.3047,446.7503,625.0376,441.2372,623.651,450.988" style="stroke: #A80036; stroke-width: 1.0;"/><path d="M553.25,371.222 C565.881,391.68 586.357,424.846 599.751,446.541 " fill="none" style="stroke: #A80036; stroke-width: 1.0;"/><polygon fill="#A80036" points="602.497,450.988,601.1716,441.2287,599.8699,446.7338,594.3648,445.4321,602.497,450.988" style="stroke: #A80036; stroke-width: 1.0;"/><path d="M585.304,490.295 C567.223,504.17 543.609,523.515 525,543 C497.93,571.345 471.534,608.788 456.854,630.7462 " fill="none" style="stroke: #A80036; stroke-width: 1.0;"/><polygon fill="#A80036" points="589.307,487.243,579.7248,489.5192,585.331,490.2747,584.5755,495.8809,589.307,487.243" style="stroke: #A80036; stroke-width: 1.0;"/><path d="M613,492.189 C613,527.982 613,597.785 613,630.8268 " fill="none" style="stroke: #A80036; stroke-width: 1.0;"/><polygon fill="#A80036" points="613,487.163,609,496.163,613,492.163,617,496.163,613,487.163" style="stroke: #A80036; stroke-width: 1.0;"/><path d="M639.53,490.148 C657.515,504.247 681.473,523.904 701,543 C730.617,571.963 761.469,609.203 778.855,630.9556 " fill="none" style="stroke: #A80036; stroke-width: 1.0;"/><polygon fill="#A80036" points="635.557,487.048,640.1915,495.7383,639.4988,490.124,645.1131,489.4314,635.557,487.048" style="stroke: #A80036; stroke-width: 1.0;"/><path d="M433.731,371.044 C444.32,379.704 458.041,389.394 472,395 C496.147,404.698 506.04,392.849 530,403 C554.081,413.202 577.138,432.266 592.812,447.12 " fill="none" style="stroke: #A80036; stroke-width: 1.0;"/><polygon fill="#A80036" points="596.634,450.798,592.9227,441.6752,593.0313,447.331,587.3755,447.4395,596.634,450.798" style="stroke: #A80036; stroke-width: 1.0;"/><path d="M185.776,371.063 C184.962,386.6 186.639,408.434 200,421 C223.666,443.256 418.385,457.457 531.806,463.923 " fill="none" style="stroke: #A80036; stroke-width: 1.0;"/><polygon fill="#A80036" points="536.81,464.206,528.0507,459.7032,531.818,463.9231,527.5981,467.6904,536.81,464.206" style="stroke: #A80036; stroke-width: 1.0;"/><text fill="#000000" font-family="sans-serif" font-size="13" lengthAdjust="spacingAndGlyphs" textLength="320" x="201" y="417.4951">Execute yaml handler on executable yaml file from GIT.</text><path d="M689.119,480.382 C747.398,490.522 828.473,509.474 893,543 C934.942,564.792 975.084,602.934 998.102,627.0322 " fill="none" style="stroke: #A80036; stroke-width: 1.0;"/><polygon fill="#A80036" points="1001.647,630.7746,998.3616,621.4899,998.2085,627.1446,992.5537,626.9915,1001.647,630.7746" style="stroke: #A80036; stroke-width: 1.0;"/><text fill="#000000" font-family="sans-serif" font-size="13" lengthAdjust="spacingAndGlyphs" textLength="220" x="872" y="531.4951">Executable yaml file in GIT repository.</text></g></svg>