<?xml version="1.0" encoding="UTF-8" standalone="no"?><svg xmlns="http://www.w3.org/2000/svg" xmlns:xlink="http://www.w3.org/1999/xlink" contentScriptType="application/ecmascript" contentStyleType="text/css" height="749px" preserveAspectRatio="none" style="width:908px;height:749px;" version="1.1" viewBox="0 0 908 749" width="908px" zoomAndPan="magnify"><defs><filter height="300%" id="fe7lu7t" width="300%" x="-1" y="-1"><feGaussianBlur result="blurOut" stdDeviation="2.0"/><feColorMatrix in="blurOut" result="blurOut2" type="matrix" values="0 0 0 0 0 0 0 0 0 0 0 0 0 0 0 0 0 0 .4 0"/><feOffset dx="4.0" dy="4.0" in="blurOut2" result="blurOut3"/><feBlend in="SourceGraphic" in2="blurOut3" mode="normal"/></filter></defs><g><!--cluster com.zions.vsts.services.rmq.mixins--><polygon fill="#FFFFFF" filter="url(#fe7lu7t)" points="253,273,508,273,515,296.6094,518,296.6094,518,361,253,361,253,273" style="stroke: #000000; stroke-width: 2.0;"/><line style="stroke: #000000; stroke-width: 2.0;" x1="253" x2="515" y1="296.6094" y2="296.6094"/><text fill="#000000" font-family="sans-serif" font-size="14" font-weight="bold" lengthAdjust="spacingAndGlyphs" textLength="249" x="257" y="289.5332">com.zions.vsts.services.rmq.mixins</text><!--cluster com.zions.pipeline.services.execution.endpoint--><polygon fill="#FFFFFF" filter="url(#fe7lu7t)" points="209,411,552,411,559,434.6094,562,434.6094,562,501,209,501,209,411" style="stroke: #000000; stroke-width: 2.0;"/><line style="stroke: #000000; stroke-width: 2.0;" x1="209" x2="559" y1="434.6094" y2="434.6094"/><text fill="#000000" font-family="sans-serif" font-size="14" font-weight="bold" lengthAdjust="spacingAndGlyphs" textLength="337" x="213" y="427.5332">com.zions.pipeline.services.execution.endpoint</text><!--cluster com.zions.pipeline.services.git--><polygon fill="#FFFFFF" filter="url(#fe7lu7t)" points="22,551,246,551,253,574.6094,256,574.6094,256,641,22,641,22,551" style="stroke: #000000; stroke-width: 2.0;"/><line style="stroke: #000000; stroke-width: 2.0;" x1="22" x2="253" y1="574.6094" y2="574.6094"/><text fill="#000000" font-family="sans-serif" font-size="14" font-weight="bold" lengthAdjust="spacingAndGlyphs" textLength="218" x="26" y="567.5332">com.zions.pipeline.services.git</text><!--cluster com.zions.vsts.services.code--><polygon fill="#FFFFFF" filter="url(#fe7lu7t)" points="280,551,494,551,501,574.6094,504,574.6094,504,641,280,641,280,551" style="stroke: #000000; stroke-width: 2.0;"/><line style="stroke: #000000; stroke-width: 2.0;" x1="280" x2="501" y1="574.6094" y2="574.6094"/><text fill="#000000" font-family="sans-serif" font-size="14" font-weight="bold" lengthAdjust="spacingAndGlyphs" textLength="208" x="284" y="567.5332">com.zions.vsts.services.code</text><!--cluster com.zions.pipeline.services.yaml.execution--><polygon fill="#FFFFFF" filter="url(#fe7lu7t)" points="580,551,891,551,898,574.6094,901,574.6094,901,641,580,641,580,551" style="stroke: #000000; stroke-width: 2.0;"/><line style="stroke: #000000; stroke-width: 2.0;" x1="580" x2="898" y1="574.6094" y2="574.6094"/><text fill="#000000" font-family="sans-serif" font-size="14" font-weight="bold" lengthAdjust="spacingAndGlyphs" textLength="305" x="584" y="567.5332">com.zions.pipeline.services.yaml.execution</text><!--entity MessageReceiverTrait--><ellipse cx="385" cy="318" fill="#FEFECE" filter="url(#fe7lu7t)" rx="8" ry="8" style="stroke: #A80036; stroke-width: 2.0;"/><text fill="#000000" font-family="sans-serif" font-size="14" lengthAdjust="spacingAndGlyphs" textLength="142" x="314" y="341.5332">MessageReceiverTrait</text><!--entity PEEP--><rect fill="#FEFECE" filter="url(#fe7lu7t)" height="37.6094" style="stroke: #A80036; stroke-width: 1.5;" width="188" x="291" y="447"/><rect fill="#FEFECE" height="5" style="stroke: #A80036; stroke-width: 1.5;" width="10" x="286" y="452"/><rect fill="#FEFECE" height="5" style="stroke: #A80036; stroke-width: 1.5;" width="10" x="286" y="474.6094"/><text fill="#000000" font-family="sans-serif" font-size="14" lengthAdjust="spacingAndGlyphs" textLength="168" x="301" y="471.5332">PipelineExecutionEndPoint</text><!--entity GS--><rect fill="#FEFECE" filter="url(#fe7lu7t)" height="37.6094" style="stroke: #A80036; stroke-width: 1.5;" width="85" x="154.5" y="587"/><rect fill="#FEFECE" height="5" style="stroke: #A80036; stroke-width: 1.5;" width="10" x="149.5" y="592"/><rect fill="#FEFECE" height="5" style="stroke: #A80036; stroke-width: 1.5;" width="10" x="149.5" y="614.6094"/><text fill="#000000" font-family="sans-serif" font-size="14" lengthAdjust="spacingAndGlyphs" textLength="65" x="164.5" y="611.5332">GitService</text><!--entity CMS--><rect fill="#FEFECE" filter="url(#fe7lu7t)" height="37.6094" style="stroke: #A80036; stroke-width: 1.5;" width="183" x="296.5" y="587"/><rect fill="#FEFECE" height="5" style="stroke: #A80036; stroke-width: 1.5;" width="10" x="291.5" y="592"/><rect fill="#FEFECE" height="5" style="stroke: #A80036; stroke-width: 1.5;" width="10" x="291.5" y="614.6094"/><text fill="#000000" font-family="sans-serif" font-size="14" lengthAdjust="spacingAndGlyphs" textLength="163" x="306.5" y="611.5332">CodeManagementService</text><!--entity YES--><rect fill="#FEFECE" filter="url(#fe7lu7t)" height="37.6094" style="stroke: #A80036; stroke-width: 1.5;" width="159" x="622.5" y="587"/><rect fill="#FEFECE" height="5" style="stroke: #A80036; stroke-width: 1.5;" width="10" x="617.5" y="592"/><rect fill="#FEFECE" height="5" style="stroke: #A80036; stroke-width: 1.5;" width="10" x="617.5" y="614.6094"/><text fill="#000000" font-family="sans-serif" font-size="14" lengthAdjust="spacingAndGlyphs" textLength="139" x="632.5" y="611.5332">YamlExecutionService</text><!--entity DE--><ellipse cx="385" cy="18" fill="#FEFECE" filter="url(#fe7lu7t)" rx="8" ry="8" style="stroke: #A80036; stroke-width: 2.0;"/><path d="M385,26 L385,53 M372,34 L398,34 M385,53 L372,68 M385,53 L398,68 " fill="#FEFECE" filter="url(#fe7lu7t)" style="stroke: #A80036; stroke-width: 2.0;"/><text fill="#000000" font-family="sans-serif" font-size="14" lengthAdjust="spacingAndGlyphs" textLength="109" x="330.5" y="89.5332">Devops Engineer</text><!--entity GR--><rect fill="#FEFECE" filter="url(#fe7lu7t)" height="37.6094" rx="35" ry="35" style="stroke: #000000; stroke-width: 1.5;" width="180" x="295" y="171"/><text fill="#000000" font-family="sans-serif" font-size="14" lengthAdjust="spacingAndGlyphs" textLength="160" x="305" y="195.5332">Changing GIT Repository</text><!--entity GR2--><rect fill="#FEFECE" filter="url(#fe7lu7t)" height="37.6094" rx="35" ry="35" style="stroke: #000000; stroke-width: 1.5;" width="175" x="413.5" y="705"/><text fill="#000000" font-family="sans-serif" font-size="14" lengthAdjust="spacingAndGlyphs" textLength="155" x="423.5" y="729.5332">Updating GIT Repository</text><path d="M385,93.128 C385,116.927 385,145.89 385,165.714 " fill="none" style="stroke: #A80036; stroke-width: 1.0;"/><polygon fill="#A80036" points="385,170.799,389,161.799,385,165.799,381,161.799,385,170.799" style="stroke: #A80036; stroke-width: 1.0;"/><text fill="#000000" font-family="sans-serif" font-size="13" lengthAdjust="spacingAndGlyphs" textLength="74" x="386" y="137.4951">Pull Request</text><path d="M385,350.204 C385,377.102 385,421.901 385,446.837 " fill="none" style="stroke: #A80036; stroke-width: 1.0; stroke-dasharray: 1.0,3.0;"/><polygon fill="#A80036" points="385,345.074,381,354.074,385,350.074,389,354.074,385,345.074" style="stroke: #A80036; stroke-width: 1.0;"/><text fill="#000000" font-family="sans-serif" font-size="13" lengthAdjust="spacingAndGlyphs" textLength="67" x="386" y="391.4951">Implements</text><path d="M385,209.207 C385,233.767 385,277.471 385,303.89 " fill="none" style="stroke: #A80036; stroke-width: 1.0;"/><polygon fill="#A80036" points="385,308.932,389,299.932,385,303.932,381,299.932,385,308.932" style="stroke: #A80036; stroke-width: 1.0;"/><text fill="#000000" font-family="sans-serif" font-size="13" lengthAdjust="spacingAndGlyphs" textLength="237" x="386" y="253.4951">ADO sends `pull request complete` event</text><path d="M383.656,485.04 C383.014,494.543 382.318,506.395 382,517 C381.343,538.917 383.298,563.847 385.149,581.563 " fill="none" style="stroke: #A80036; stroke-width: 1.0;"/><polygon fill="#A80036" points="385.717,586.818,388.7271,577.4404,385.1799,581.8469,380.7734,578.2998,385.717,586.818" style="stroke: #A80036; stroke-width: 1.0;"/><text fill="#000000" font-family="sans-serif" font-size="13" lengthAdjust="spacingAndGlyphs" textLength="301" x="383" y="531.4951">Determine GIT pipeline changes for executable yaml</text><path d="M479.099,470.603 C557.322,475.669 660.304,487.831 689,517 C705.504,533.776 706.966,561.76 705.446,581.665 " fill="none" style="stroke: #A80036; stroke-width: 1.0;"/><polygon fill="#A80036" points="704.976,586.794,709.7822,578.1975,705.4332,581.8149,701.8157,577.466,704.976,586.794" style="stroke: #A80036; stroke-width: 1.0;"/><text fill="#000000" font-family="sans-serif" font-size="13" lengthAdjust="spacingAndGlyphs" textLength="172" x="701" y="531.4951">Execute any executable yaml</text><path d="M290.799,480.873 C267.198,488.279 243.614,499.625 226,517 C208.549,534.214 201.598,562.115 198.83,581.881 " fill="none" style="stroke: #A80036; stroke-width: 1.0;"/><polygon fill="#A80036" points="198.184,586.971,203.2862,578.5467,198.814,582.0109,195.3499,577.5387,198.184,586.971" style="stroke: #A80036; stroke-width: 1.0;"/><text fill="#000000" font-family="sans-serif" font-size="13" lengthAdjust="spacingAndGlyphs" textLength="146" x="227" y="531.4951">Manage git repo changes</text><path d="M670.594,625.125 C634.414,646.005 575.079,680.2481 537.046,702.1972 " fill="none" style="stroke: #A80036; stroke-width: 1.0;"/><polygon fill="#A80036" points="532.517,704.8112,542.3115,703.7782,536.8479,702.3125,538.3136,696.8488,532.517,704.8112" style="stroke: #A80036; stroke-width: 1.0;"/><text fill="#000000" font-family="sans-serif" font-size="13" lengthAdjust="spacingAndGlyphs" textLength="85" x="615" y="671.4951">Make changes</text><path d="M230,625.089 C245.017,632.957 263.162,641.964 280,649 C330.79,670.2216 390.01,689.7861 434.357,703.4616 " fill="none" style="stroke: #A80036; stroke-width: 1.0;"/><polygon fill="#A80036" points="439.144,704.9329,431.7158,698.4659,434.3645,703.4643,429.3661,706.113,439.144,704.9329" style="stroke: #A80036; stroke-width: 1.0;"/><text fill="#000000" font-family="sans-serif" font-size="13" lengthAdjust="spacingAndGlyphs" textLength="178" x="347" y="671.4951">Ensure ADO repo is up to date</text></g></svg>