<?xml version="1.0" encoding="UTF-8" standalone="no"?><svg xmlns="http://www.w3.org/2000/svg" xmlns:xlink="http://www.w3.org/1999/xlink" contentScriptType="application/ecmascript" contentStyleType="text/css" height="793px" preserveAspectRatio="none" style="width:908px;height:793px;" version="1.1" viewBox="0 0 908 793" width="908px" zoomAndPan="magnify"><defs><filter height="300%" id="f6t3xvasmk0rr" width="300%" x="-1" y="-1"><feGaussianBlur result="blurOut" stdDeviation="2.0"/><feColorMatrix in="blurOut" result="blurOut2" type="matrix" values="0 0 0 0 0 0 0 0 0 0 0 0 0 0 0 0 0 0 .4 0"/><feOffset dx="4.0" dy="4.0" in="blurOut2" result="blurOut3"/><feBlend in="SourceGraphic" in2="blurOut3" mode="normal"/></filter></defs><g><!--MD5=[786f6088ecf168dd0417674d84773228]
cluster com.zions.vsts.services.rmq.mixins--><polygon fill="#FFFFFF" filter="url(#f6t3xvasmk0rr)" points="237,267.5,492,267.5,499,291.1094,502,291.1094,502,379.5,237,379.5,237,267.5" style="stroke:#000000;stroke-width:1.5;"/><line style="stroke:#000000;stroke-width:1.5;" x1="237" x2="499" y1="291.1094" y2="291.1094"/><text fill="#000000" font-family="sans-serif" font-size="14" font-weight="bold" lengthAdjust="spacing" textLength="249" x="241" y="284.0332">com.zions.vsts.services.rmq.mixins</text><!--MD5=[02f7a734beac1e31c54cb0684c39f997]
cluster com.zions.pipeline.services.execution.endpoint--><polygon fill="#FFFFFF" filter="url(#f6t3xvasmk0rr)" points="193,429.5,536,429.5,543,453.1094,546,453.1094,546,529.5,193,529.5,193,429.5" style="stroke:#000000;stroke-width:1.5;"/><line style="stroke:#000000;stroke-width:1.5;" x1="193" x2="543" y1="453.1094" y2="453.1094"/><text fill="#000000" font-family="sans-serif" font-size="14" font-weight="bold" lengthAdjust="spacing" textLength="337" x="197" y="446.0332">com.zions.pipeline.services.execution.endpoint</text><!--MD5=[fda9a4a97e274ba6e9c402c118928f04]
cluster com.zions.pipeline.services.git--><polygon fill="#FFFFFF" filter="url(#f6t3xvasmk0rr)" points="16,579.5,240,579.5,247,603.1094,250,603.1094,250,679.5,16,679.5,16,579.5" style="stroke:#000000;stroke-width:1.5;"/><line style="stroke:#000000;stroke-width:1.5;" x1="16" x2="247" y1="603.1094" y2="603.1094"/><text fill="#000000" font-family="sans-serif" font-size="14" font-weight="bold" lengthAdjust="spacing" textLength="218" x="20" y="596.0332">com.zions.pipeline.services.git</text><!--MD5=[94e37c1125e73dbd779d55dd42205f55]
cluster com.zions.vsts.services.code--><polygon fill="#FFFFFF" filter="url(#f6t3xvasmk0rr)" points="274,579.5,488,579.5,495,603.1094,510,603.1094,510,679.5,274,679.5,274,579.5" style="stroke:#000000;stroke-width:1.5;"/><line style="stroke:#000000;stroke-width:1.5;" x1="274" x2="495" y1="603.1094" y2="603.1094"/><text fill="#000000" font-family="sans-serif" font-size="14" font-weight="bold" lengthAdjust="spacing" textLength="208" x="278" y="596.0332">com.zions.vsts.services.code</text><!--MD5=[60b226d699614f8a0794f98710fa0a93]
cluster com.zions.pipeline.services.yaml.execution--><polygon fill="#FFFFFF" filter="url(#f6t3xvasmk0rr)" points="570,579.5,881,579.5,888,603.1094,891,603.1094,891,679.5,570,679.5,570,579.5" style="stroke:#000000;stroke-width:1.5;"/><line style="stroke:#000000;stroke-width:1.5;" x1="570" x2="888" y1="603.1094" y2="603.1094"/><text fill="#000000" font-family="sans-serif" font-size="14" font-weight="bold" lengthAdjust="spacing" textLength="305" x="574" y="596.0332">com.zions.pipeline.services.yaml.execution</text><!--MD5=[9bf4bfaef650d0906421d050aa4596ee]
entity MessageReceiverTrait--><ellipse cx="369" cy="333.5" fill="#FEFECE" filter="url(#f6t3xvasmk0rr)" rx="8" ry="8" style="stroke:#A80036;stroke-width:1.5;"/><text fill="#000000" font-family="sans-serif" font-size="14" lengthAdjust="spacing" textLength="142" x="298" y="365.0332">MessageReceiverTrait</text><!--MD5=[403947f210ee10a0b921ae170d315489]
entity PEEP--><rect fill="#FEFECE" filter="url(#f6t3xvasmk0rr)" height="47.6094" style="stroke:#A80036;stroke-width:1.5;" width="208" x="265" y="465.5"/><rect fill="#FEFECE" height="10" style="stroke:#A80036;stroke-width:1.5;" width="15" x="453" y="470.5"/><rect fill="#FEFECE" height="2" style="stroke:#A80036;stroke-width:1.5;" width="4" x="451" y="472.5"/><rect fill="#FEFECE" height="2" style="stroke:#A80036;stroke-width:1.5;" width="4" x="451" y="476.5"/><text fill="#000000" font-family="sans-serif" font-size="14" lengthAdjust="spacing" textLength="168" x="280" y="500.0332">PipelineExecutionEndPoint</text><!--MD5=[66223a172ae9ceac77f27ebc9b631536]
entity GS--><rect fill="#FEFECE" filter="url(#f6t3xvasmk0rr)" height="47.6094" style="stroke:#A80036;stroke-width:1.5;" width="105" x="128.5" y="615.5"/><rect fill="#FEFECE" height="10" style="stroke:#A80036;stroke-width:1.5;" width="15" x="213.5" y="620.5"/><rect fill="#FEFECE" height="2" style="stroke:#A80036;stroke-width:1.5;" width="4" x="211.5" y="622.5"/><rect fill="#FEFECE" height="2" style="stroke:#A80036;stroke-width:1.5;" width="4" x="211.5" y="626.5"/><text fill="#000000" font-family="sans-serif" font-size="14" lengthAdjust="spacing" textLength="65" x="143.5" y="650.0332">GitService</text><!--MD5=[b21194f3cc51182c46c07cbdb0c49fd9]
entity CMS--><rect fill="#FEFECE" filter="url(#f6t3xvasmk0rr)" height="47.6094" style="stroke:#A80036;stroke-width:1.5;" width="203" x="290.5" y="615.5"/><rect fill="#FEFECE" height="10" style="stroke:#A80036;stroke-width:1.5;" width="15" x="473.5" y="620.5"/><rect fill="#FEFECE" height="2" style="stroke:#A80036;stroke-width:1.5;" width="4" x="471.5" y="622.5"/><rect fill="#FEFECE" height="2" style="stroke:#A80036;stroke-width:1.5;" width="4" x="471.5" y="626.5"/><text fill="#000000" font-family="sans-serif" font-size="14" lengthAdjust="spacing" textLength="163" x="305.5" y="650.0332">CodeManagementService</text><!--MD5=[789c6326cd2c6b42c00838c65163d260]
entity YES--><rect fill="#FEFECE" filter="url(#f6t3xvasmk0rr)" height="47.6094" style="stroke:#A80036;stroke-width:1.5;" width="179" x="604.5" y="615.5"/><rect fill="#FEFECE" height="10" style="stroke:#A80036;stroke-width:1.5;" width="15" x="763.5" y="620.5"/><rect fill="#FEFECE" height="2" style="stroke:#A80036;stroke-width:1.5;" width="4" x="761.5" y="622.5"/><rect fill="#FEFECE" height="2" style="stroke:#A80036;stroke-width:1.5;" width="4" x="761.5" y="626.5"/><text fill="#000000" font-family="sans-serif" font-size="14" lengthAdjust="spacing" textLength="139" x="619.5" y="650.0332">YamlExecutionService</text><!--MD5=[9588a41f81df83122e454b7a1572a85d]
entity DE--><ellipse cx="369" cy="14" fill="#FEFECE" filter="url(#f6t3xvasmk0rr)" rx="8" ry="8" style="stroke:#A80036;stroke-width:1.5;"/><path d="M369,22 L369,49 M356,30 L382,30 M369,49 L356,64 M369,49 L382,64 " fill="none" filter="url(#f6t3xvasmk0rr)" style="stroke:#A80036;stroke-width:1.5;"/><text fill="#000000" font-family="sans-serif" font-size="14" lengthAdjust="spacing" textLength="109" x="314.5" y="84.0332">Devops Engineer</text><!--MD5=[1d9826600f02188034b61ce530d3858c]
entity GR--><rect fill="#FEFECE" filter="url(#f6t3xvasmk0rr)" height="37.6094" rx="35" ry="35" style="stroke:#000000;stroke-width:1.5;" width="180" x="279" y="165.5"/><text fill="#000000" font-family="sans-serif" font-size="14" lengthAdjust="spacing" textLength="160" x="289" y="190.0332">Changing GIT Repository</text><!--MD5=[d844c51c0e8df20ca721814a34c21e4b]
entity GR2--><rect fill="#FEFECE" filter="url(#f6t3xvasmk0rr)" height="37.6094" rx="35" ry="35" style="stroke:#000000;stroke-width:1.5;" width="175" x="397.5" y="743.5"/><text fill="#000000" font-family="sans-serif" font-size="14" lengthAdjust="spacing" textLength="155" x="407.5" y="768.0332">Updating GIT Repository</text><!--MD5=[30a99ef87fe4e9cab6d0fa929804336e]
link DE to GR--><path d="M369,87.585 C369,111.247 369,140.249 369,160.128 " fill="none" id="DE-to-GR" style="stroke:#A80036;stroke-width:1.0;"/><polygon fill="#A80036" points="369,165.228,373,156.228,369,160.228,365,156.228,369,165.228" style="stroke:#A80036;stroke-width:1.0;"/><text fill="#000000" font-family="sans-serif" font-size="13" lengthAdjust="spacing" textLength="74" x="370" y="131.9951">Pull Request</text><!--MD5=[09a424fde71fd5916026187d19abb70b]
reverse link MessageReceiverTrait to PEEP--><path d="M369,347.867 C369,374.1 369,432.608 369,465.288 " fill="none" id="MessageReceiverTrait-backto-PEEP" style="stroke:#A80036;stroke-width:1.0;stroke-dasharray:1.0,3.0;"/><polygon fill="#A80036" points="369,342.78,365,351.78,369,347.78,373,351.78,369,342.78" style="stroke:#A80036;stroke-width:1.0;"/><text fill="#000000" font-family="sans-serif" font-size="13" lengthAdjust="spacing" textLength="67" x="370" y="409.9951">Implements</text><!--MD5=[a7151975b3e7e43bd117bd7015e316d7]
link GR to MessageReceiverTrait--><path d="M369,203.525 C369,233.444 369,292.681 369,319.163 " fill="none" id="GR-to-MessageReceiverTrait" style="stroke:#A80036;stroke-width:1.0;"/><polygon fill="#A80036" points="369,324.295,373,315.295,369,319.295,365,315.295,369,324.295" style="stroke:#A80036;stroke-width:1.0;"/><text fill="#000000" font-family="sans-serif" font-size="13" lengthAdjust="spacing" textLength="237" x="370" y="247.9951">ADO sends `pull request complete` event</text><!--MD5=[c7225aa77b68e65ca4db9860815ff7fc]
link PEEP to CMS--><path d="M367.465,513.502 C366.881,523.351 366.287,534.985 366,545.5 C365.782,553.497 364.671,555.611 366,563.5 C368.691,579.476 374.393,596.596 379.774,610.439 " fill="none" id="PEEP-to-CMS" style="stroke:#A80036;stroke-width:1.0;"/><polygon fill="#A80036" points="381.736,615.383,382.134,605.5422,379.8916,610.7356,374.6982,608.4932,381.736,615.383" style="stroke:#A80036;stroke-width:1.0;"/><text fill="#000000" font-family="sans-serif" font-size="13" lengthAdjust="spacing" textLength="301" x="367" y="559.9951">Determine GIT pipeline changes for executable yaml</text><!--MD5=[2bc2bfaacdd7a7148cc7b950ae60f8a5]
link PEEP to YES--><path d="M473.095,497.2 C549.497,504.289 644.676,518.371 673,545.5 C690.191,561.966 694.695,589.281 695.34,610.059 " fill="none" id="PEEP-to-YES" style="stroke:#A80036;stroke-width:1.0;"/><polygon fill="#A80036" points="695.427,615.191,699.2747,606.1248,695.3427,610.1917,691.2758,606.2597,695.427,615.191" style="stroke:#A80036;stroke-width:1.0;"/><text fill="#000000" font-family="sans-serif" font-size="13" lengthAdjust="spacing" textLength="172" x="685" y="559.9951">Execute any executable yaml</text><!--MD5=[6af93b4cb0117cf4e8c9a4777de8ed10]
link PEEP to GS--><path d="M264.992,510.841 C244.681,518.841 225.047,529.983 210,545.5 C193.176,562.849 186.099,589.805 183.128,610.238 " fill="none" id="PEEP-to-GS" style="stroke:#A80036;stroke-width:1.0;"/><polygon fill="#A80036" points="182.458,615.283,187.6084,606.8882,183.1165,610.3265,179.6781,605.8346,182.458,615.283" style="stroke:#A80036;stroke-width:1.0;"/><text fill="#000000" font-family="sans-serif" font-size="13" lengthAdjust="spacing" textLength="146" x="211" y="559.9951">Manage git repo changes</text><!--MD5=[aa2f2267c59e11080501d950bf3c2a45]
link YES to GR2--><path d="M654.197,663.544 C615.615,685.8807 557.636,719.4476 520.561,740.9122 " fill="none" id="YES-to-GR2" style="stroke:#A80036;stroke-width:1.0;"/><polygon fill="#A80036" points="516.146,743.4683,525.9389,742.4198,520.4729,740.9627,521.93,735.4967,516.146,743.4683" style="stroke:#A80036;stroke-width:1.0;"/><text fill="#000000" font-family="sans-serif" font-size="13" lengthAdjust="spacing" textLength="85" x="597" y="709.9951">Make changes</text><!--MD5=[82f3e38f84053d065c97e59659d43775]
link GS to GR2--><path d="M223.973,663.691 C239.524,671.689 257.356,680.412 274,687.5 C322.834,708.2978 379.694,727.9889 422.076,741.8227 " fill="none" id="GS-to-GR2" style="stroke:#A80036;stroke-width:1.0;"/><polygon fill="#A80036" points="426.911,743.3957,419.5904,736.8072,422.1564,741.8486,417.115,744.4146,426.911,743.3957" style="stroke:#A80036;stroke-width:1.0;"/><text fill="#000000" font-family="sans-serif" font-size="13" lengthAdjust="spacing" textLength="178" x="338" y="709.9951">Ensure ADO repo is up to date</text><!--MD5=[0186fc31fbb0628cbd7f3e0e317910be]
@startuml Processing_pipeline_changes.svg
actor DE as "Devops Engineer"
storage GR as "Changing GIT Repository"
storage GR2 as "Updating GIT Repository"
DE - -> GR: Pull Request

package com.zions.vsts.services.rmq.mixins {
    interface MessageReceiverTrait
}

package com.zions.pipeline.services.execution.endpoint {
  component PEEP as "PipelineExecutionEndPoint"
  PEEP -[dotted]up-> MessageReceiverTrait: Implements
}
GR - -> MessageReceiverTrait: ADO sends `pull request complete` event

package com.zions.pipeline.services.git {
    component GS as "GitService"
}
package com.zions.vsts.services.code {
    component CMS as "CodeManagementService"
}
PEEP -do-> CMS: Determine GIT pipeline changes for executable yaml

package com.zions.pipeline.services.yaml.execution {
    component YES as "YamlExecutionService"
}
PEEP -do-> YES: Execute any executable yaml
PEEP -do-> GS: Manage git repo changes
YES -do-> GR2: Make changes
GS -do-> GR2: Ensure ADO repo is up to date
@enduml

PlantUML version 1.2021.00(Sun Jan 10 03:25:05 MST 2021)
(GPL source distribution)
Java Runtime: OpenJDK Runtime Environment
JVM: OpenJDK 64-Bit Server VM
Default Encoding: Cp1252
Language: en
Country: US
--></g></svg>