<?xml version="1.0" encoding="UTF-8" standalone="no"?><svg xmlns="http://www.w3.org/2000/svg" xmlns:xlink="http://www.w3.org/1999/xlink" contentScriptType="application/ecmascript" contentStyleType="text/css" height="314px" preserveAspectRatio="none" style="width:1234px;height:314px;" version="1.1" viewBox="0 0 1234 314" width="1234px" zoomAndPan="magnify"><defs><filter height="300%" id="fepu3l4" width="300%" x="-1" y="-1"><feGaussianBlur result="blurOut" stdDeviation="2.0"/><feColorMatrix in="blurOut" result="blurOut2" type="matrix" values="0 0 0 0 0 0 0 0 0 0 0 0 0 0 0 0 0 0 .4 0"/><feOffset dx="4.0" dy="4.0" in="blurOut2" result="blurOut3"/><feBlend in="SourceGraphic" in2="blurOut3" mode="normal"/></filter></defs><g><line style="stroke: #A80036; stroke-width: 1.0; stroke-dasharray: 5.0,5.0;" x1="55" x2="55" y1="87.6094" y2="229.0156"/><line style="stroke: #A80036; stroke-width: 1.0; stroke-dasharray: 5.0,5.0;" x1="266.5" x2="266.5" y1="87.6094" y2="229.0156"/><line style="stroke: #A80036; stroke-width: 1.0; stroke-dasharray: 5.0,5.0;" x1="458.5" x2="458.5" y1="87.6094" y2="229.0156"/><line style="stroke: #A80036; stroke-width: 1.0; stroke-dasharray: 5.0,5.0;" x1="684.5" x2="684.5" y1="87.6094" y2="229.0156"/><line style="stroke: #A80036; stroke-width: 1.0; stroke-dasharray: 5.0,5.0;" x1="1032.5" x2="1032.5" y1="87.6094" y2="229.0156"/><text fill="#000000" font-family="sans-serif" font-size="14" lengthAdjust="spacingAndGlyphs" textLength="88" x="8" y="84.5332">Azure Devops</text><ellipse cx="55" cy="13" fill="#FEFECE" filter="url(#fepu3l4)" rx="8" ry="8" style="stroke: #A80036; stroke-width: 2.0;"/><path d="M55,21 L55,48 M42,29 L68,29 M55,48 L42,63 M55,48 L68,63 " fill="#FEFECE" filter="url(#fepu3l4)" style="stroke: #A80036; stroke-width: 2.0;"/><text fill="#000000" font-family="sans-serif" font-size="14" lengthAdjust="spacingAndGlyphs" textLength="88" x="8" y="242.5488">Azure Devops</text><ellipse cx="55" cy="255.625" fill="#FEFECE" filter="url(#fepu3l4)" rx="8" ry="8" style="stroke: #A80036; stroke-width: 2.0;"/><path d="M55,263.625 L55,290.625 M42,271.625 L68,271.625 M55,290.625 L42,305.625 M55,290.625 L68,305.625 " fill="#FEFECE" filter="url(#fepu3l4)" style="stroke: #A80036; stroke-width: 2.0;"/><rect fill="#FEFECE" filter="url(#fepu3l4)" height="31.6094" style="stroke: #A80036; stroke-width: 1.5;" width="213" x="158.5" y="51"/><text fill="#000000" font-family="sans-serif" font-size="14" lengthAdjust="spacingAndGlyphs" textLength="199" x="165.5" y="72.5332">EventController:eventController</text><rect fill="#FEFECE" filter="url(#fepu3l4)" height="31.6094" style="stroke: #A80036; stroke-width: 1.5;" width="213" x="158.5" y="228.0156"/><text fill="#000000" font-family="sans-serif" font-size="14" lengthAdjust="spacingAndGlyphs" textLength="199" x="165.5" y="249.5488">EventController:eventController</text><rect fill="#FEFECE" filter="url(#fepu3l4)" height="31.6094" style="stroke: #A80036; stroke-width: 1.5;" width="143" x="385.5" y="51"/><text fill="#000000" font-family="sans-serif" font-size="14" lengthAdjust="spacingAndGlyphs" textLength="129" x="392.5" y="72.5332">RabbitMQ Exchange</text><rect fill="#FEFECE" filter="url(#fepu3l4)" height="31.6094" style="stroke: #A80036; stroke-width: 1.5;" width="143" x="385.5" y="228.0156"/><text fill="#000000" font-family="sans-serif" font-size="14" lengthAdjust="spacingAndGlyphs" textLength="129" x="392.5" y="249.5488">RabbitMQ Exchange</text><rect fill="#FEFECE" filter="url(#fepu3l4)" height="31.6094" style="stroke: #A80036; stroke-width: 1.5;" width="280" x="542.5" y="51"/><text fill="#000000" font-family="sans-serif" font-size="14" lengthAdjust="spacingAndGlyphs" textLength="266" x="549.5" y="72.5332">RabbitMQ Pull Request Completed Queue</text><rect fill="#FEFECE" filter="url(#fepu3l4)" height="31.6094" style="stroke: #A80036; stroke-width: 1.5;" width="280" x="542.5" y="228.0156"/><text fill="#000000" font-family="sans-serif" font-size="14" lengthAdjust="spacingAndGlyphs" textLength="266" x="549.5" y="249.5488">RabbitMQ Pull Request Completed Queue</text><rect fill="#FEFECE" filter="url(#fepu3l4)" height="31.6094" style="stroke: #A80036; stroke-width: 1.5;" width="389" x="836.5" y="51"/><text fill="#000000" font-family="sans-serif" font-size="14" font-weight="bold" lengthAdjust="spacingAndGlyphs" textLength="190" x="843.5" y="72.5332">PipelineExecutionEndPoint</text><text fill="#000000" font-family="sans-serif" font-size="14" lengthAdjust="spacingAndGlyphs" textLength="18" x="1037.5" y="72.5332">via</text><text fill="#000000" font-family="sans-serif" font-size="14" font-weight="bold" lengthAdjust="spacingAndGlyphs" textLength="159" x="1059.5" y="72.5332">MessageReceiverTrait</text><rect fill="#FEFECE" filter="url(#fepu3l4)" height="31.6094" style="stroke: #A80036; stroke-width: 1.5;" width="389" x="836.5" y="228.0156"/><text fill="#000000" font-family="sans-serif" font-size="14" font-weight="bold" lengthAdjust="spacingAndGlyphs" textLength="190" x="843.5" y="249.5488">PipelineExecutionEndPoint</text><text fill="#000000" font-family="sans-serif" font-size="14" lengthAdjust="spacingAndGlyphs" textLength="18" x="1037.5" y="249.5488">via</text><text fill="#000000" font-family="sans-serif" font-size="14" font-weight="bold" lengthAdjust="spacingAndGlyphs" textLength="159" x="1059.5" y="249.5488">MessageReceiverTrait</text><polygon fill="#A80036" points="255,115.6094,265,119.6094,255,123.6094,259,119.6094" style="stroke: #A80036; stroke-width: 1.0;"/><line style="stroke: #A80036; stroke-width: 1.0;" x1="55" x2="261" y1="119.6094" y2="119.6094"/><text fill="#000000" font-family="sans-serif" font-size="13" lengthAdjust="spacingAndGlyphs" textLength="188" x="62" y="115.1045">forwardADOEvent(body, request)</text><polygon fill="#A80036" points="447,145.9609,457,149.9609,447,153.9609,451,149.9609" style="stroke: #A80036; stroke-width: 1.0;"/><line style="stroke: #A80036; stroke-width: 1.0;" x1="267" x2="453" y1="149.9609" y2="149.9609"/><text fill="#000000" font-family="sans-serif" font-size="13" lengthAdjust="spacingAndGlyphs" textLength="142" x="274" y="145.4561">sendMessage(adoEvent)</text><polygon fill="#A80036" points="672.5,176.3125,682.5,180.3125,672.5,184.3125,676.5,180.3125" style="stroke: #A80036; stroke-width: 1.0;"/><line style="stroke: #A80036; stroke-width: 1.0;" x1="459" x2="678.5" y1="180.3125" y2="180.3125"/><text fill="#000000" font-family="sans-serif" font-size="13" lengthAdjust="spacingAndGlyphs" textLength="160" x="466" y="175.8076">publish to queue (adoEvent)</text><polygon fill="#A80036" points="1021,206.6641,1031,210.6641,1021,214.6641,1025,210.6641" style="stroke: #A80036; stroke-width: 1.0;"/><line style="stroke: #A80036; stroke-width: 1.0;" x1="684.5" x2="1027" y1="210.6641" y2="210.6641"/><text fill="#000000" font-family="sans-serif" font-size="13" lengthAdjust="spacingAndGlyphs" textLength="128" x="691.5" y="206.1592">onMessage(adoEvent)</text></g></svg>