<?xml version="1.0" encoding="UTF-8" standalone="no"?><svg xmlns="http://www.w3.org/2000/svg" xmlns:xlink="http://www.w3.org/1999/xlink" contentScriptType="application/ecmascript" contentStyleType="text/css" height="421px" preserveAspectRatio="none" style="width:1898px;height:421px;" version="1.1" viewBox="0 0 1898 421" width="1898px" zoomAndPan="magnify"><defs><filter height="300%" id="fv9lvfl" width="300%" x="-1" y="-1"><feGaussianBlur result="blurOut" stdDeviation="2.0"/><feColorMatrix in="blurOut" result="blurOut2" type="matrix" values="0 0 0 0 0 0 0 0 0 0 0 0 0 0 0 0 0 0 .4 0"/><feOffset dx="4.0" dy="4.0" in="blurOut2" result="blurOut3"/><feBlend in="SourceGraphic" in2="blurOut3" mode="normal"/></filter></defs><g><rect fill="#FFFFFF" filter="url(#fv9lvfl)" height="209.4609" style="stroke: #A80036; stroke-width: 1.0;" width="10" x="553.5" y="162.6641"/><rect fill="#FFFFFF" filter="url(#fv9lvfl)" height="157.1094" style="stroke: #A80036; stroke-width: 1.0;" width="10" x="1605.5" y="201.0156"/><rect fill="#FFFFFF" filter="url(#fv9lvfl)" height="143.7578" style="stroke: #000000; stroke-width: 2.0;" width="1528.5" x="361" y="221.3672"/><rect fill="#FFFFFF" filter="url(#fv9lvfl)" height="111.4063" style="stroke: #000000; stroke-width: 2.0;" width="1508.5" x="371" y="246.7188"/><rect fill="#FFFFFF" filter="url(#fv9lvfl)" height="48.7031" style="stroke: #000000; stroke-width: 2.0;" width="1365.5" x="381" y="302.4219"/><line style="stroke: #A80036; stroke-width: 1.0; stroke-dasharray: 5.0,5.0;" x1="100" x2="100" y1="39.6094" y2="382.125"/><line style="stroke: #A80036; stroke-width: 1.0; stroke-dasharray: 5.0,5.0;" x1="558" x2="558" y1="39.6094" y2="382.125"/><line style="stroke: #A80036; stroke-width: 1.0; stroke-dasharray: 5.0,5.0;" x1="1101.5" x2="1101.5" y1="39.6094" y2="382.125"/><line style="stroke: #A80036; stroke-width: 1.0; stroke-dasharray: 5.0,5.0;" x1="1295.5" x2="1295.5" y1="39.6094" y2="382.125"/><line style="stroke: #A80036; stroke-width: 1.0; stroke-dasharray: 5.0,5.0;" x1="1434.5" x2="1434.5" y1="39.6094" y2="382.125"/><line style="stroke: #A80036; stroke-width: 1.0; stroke-dasharray: 5.0,5.0;" x1="1610.5" x2="1610.5" y1="39.6094" y2="382.125"/><line style="stroke: #A80036; stroke-width: 1.0; stroke-dasharray: 5.0,5.0;" x1="1807.5" x2="1807.5" y1="39.6094" y2="382.125"/><rect fill="#FEFECE" filter="url(#fv9lvfl)" height="31.6094" style="stroke: #A80036; stroke-width: 1.5;" width="181" x="8" y="3"/><text fill="#000000" font-family="sans-serif" font-size="14" lengthAdjust="spacingAndGlyphs" textLength="167" x="15" y="24.5332">pipelineExecutionEndPoint</text><rect fill="#FEFECE" filter="url(#fv9lvfl)" height="31.6094" style="stroke: #A80036; stroke-width: 1.5;" width="181" x="8" y="381.125"/><text fill="#000000" font-family="sans-serif" font-size="14" lengthAdjust="spacingAndGlyphs" textLength="167" x="15" y="402.6582">pipelineExecutionEndPoint</text><rect fill="#FEFECE" filter="url(#fv9lvfl)" height="31.6094" style="stroke: #A80036; stroke-width: 1.5;" width="331" x="391" y="3"/><text fill="#000000" font-family="sans-serif" font-size="14" font-weight="bold" lengthAdjust="spacingAndGlyphs" textLength="317" x="398" y="24.5332">YamlExecutionService:yamlExecutionService</text><rect fill="#FEFECE" filter="url(#fv9lvfl)" height="31.6094" style="stroke: #A80036; stroke-width: 1.5;" width="331" x="391" y="381.125"/><text fill="#000000" font-family="sans-serif" font-size="14" font-weight="bold" lengthAdjust="spacingAndGlyphs" textLength="317" x="398" y="402.6582">YamlExecutionService:yamlExecutionService</text><rect fill="#FEFECE" filter="url(#fv9lvfl)" height="31.6094" style="stroke: #A80036; stroke-width: 1.5;" width="186" x="1006.5" y="3"/><text fill="#000000" font-family="sans-serif" font-size="14" lengthAdjust="spacingAndGlyphs" textLength="172" x="1013.5" y="24.5332">projectManagementService</text><rect fill="#FEFECE" filter="url(#fv9lvfl)" height="31.6094" style="stroke: #A80036; stroke-width: 1.5;" width="186" x="1006.5" y="381.125"/><text fill="#000000" font-family="sans-serif" font-size="14" lengthAdjust="spacingAndGlyphs" textLength="172" x="1013.5" y="402.6582">projectManagementService</text><rect fill="#FEFECE" filter="url(#fv9lvfl)" height="31.6094" style="stroke: #A80036; stroke-width: 1.5;" width="174" x="1206.5" y="3"/><text fill="#000000" font-family="sans-serif" font-size="14" lengthAdjust="spacingAndGlyphs" textLength="160" x="1213.5" y="24.5332">codeManagementService</text><rect fill="#FEFECE" filter="url(#fv9lvfl)" height="31.6094" style="stroke: #A80036; stroke-width: 1.5;" width="174" x="1206.5" y="381.125"/><text fill="#000000" font-family="sans-serif" font-size="14" lengthAdjust="spacingAndGlyphs" textLength="160" x="1213.5" y="402.6582">codeManagementService</text><rect fill="#FEFECE" filter="url(#fv9lvfl)" height="31.6094" style="stroke: #A80036; stroke-width: 1.5;" width="76" x="1394.5" y="3"/><text fill="#000000" font-family="sans-serif" font-size="14" lengthAdjust="spacingAndGlyphs" textLength="62" x="1401.5" y="24.5332">gitService</text><rect fill="#FEFECE" filter="url(#fv9lvfl)" height="31.6094" style="stroke: #A80036; stroke-width: 1.5;" width="76" x="1394.5" y="381.125"/><text fill="#000000" font-family="sans-serif" font-size="14" lengthAdjust="spacingAndGlyphs" textLength="62" x="1401.5" y="402.6582">gitService</text><rect fill="#FEFECE" filter="url(#fv9lvfl)" height="31.6094" style="stroke: #A80036; stroke-width: 1.5;" width="248" x="1484.5" y="3"/><text fill="#000000" font-family="sans-serif" font-size="14" lengthAdjust="spacingAndGlyphs" textLength="234" x="1491.5" y="24.5332">IExecutableYamlHandler:yamlHandler</text><rect fill="#FEFECE" filter="url(#fv9lvfl)" height="31.6094" style="stroke: #A80036; stroke-width: 1.5;" width="248" x="1484.5" y="381.125"/><text fill="#000000" font-family="sans-serif" font-size="14" lengthAdjust="spacingAndGlyphs" textLength="234" x="1491.5" y="402.6582">IExecutableYamlHandler:yamlHandler</text><rect fill="#FEFECE" filter="url(#fv9lvfl)" height="31.6094" style="stroke: #A80036; stroke-width: 1.5;" width="119" x="1746.5" y="3"/><text fill="#000000" font-family="sans-serif" font-size="14" lengthAdjust="spacingAndGlyphs" textLength="105" x="1753.5" y="24.5332">yamlHandlerMap</text><rect fill="#FEFECE" filter="url(#fv9lvfl)" height="31.6094" style="stroke: #A80036; stroke-width: 1.5;" width="119" x="1746.5" y="381.125"/><text fill="#000000" font-family="sans-serif" font-size="14" lengthAdjust="spacingAndGlyphs" textLength="105" x="1753.5" y="402.6582">yamlHandlerMap</text><rect fill="#FFFFFF" filter="url(#fv9lvfl)" height="209.4609" style="stroke: #A80036; stroke-width: 1.0;" width="10" x="553.5" y="162.6641"/><rect fill="#FFFFFF" filter="url(#fv9lvfl)" height="157.1094" style="stroke: #A80036; stroke-width: 1.0;" width="10" x="1605.5" y="201.0156"/><polygon fill="#A80036" points="546.5,67.6094,556.5,71.6094,546.5,75.6094,550.5,71.6094" style="stroke: #A80036; stroke-width: 1.0;"/><line style="stroke: #A80036; stroke-width: 1.0;" x1="100.5" x2="552.5" y1="71.6094" y2="71.6094"/><text fill="#000000" font-family="sans-serif" font-size="13" lengthAdjust="spacingAndGlyphs" textLength="434" x="107.5" y="67.1045">runExecutableYaml(repoUrl,name,locations, branch, project, pullRequestId)</text><polygon fill="#A80036" points="1089.5,97.9609,1099.5,101.9609,1089.5,105.9609,1093.5,101.9609" style="stroke: #A80036; stroke-width: 1.0;"/><line style="stroke: #A80036; stroke-width: 1.0;" x1="558.5" x2="1095.5" y1="101.9609" y2="101.9609"/><text fill="#000000" font-family="sans-serif" font-size="13" lengthAdjust="spacingAndGlyphs" textLength="173" x="565.5" y="97.4561">getProject(name): projectData</text><polygon fill="#A80036" points="1283.5,128.3125,1293.5,132.3125,1283.5,136.3125,1287.5,132.3125" style="stroke: #A80036; stroke-width: 1.0;"/><line style="stroke: #A80036; stroke-width: 1.0;" x1="558.5" x2="1289.5" y1="132.3125" y2="132.3125"/><text fill="#000000" font-family="sans-serif" font-size="13" lengthAdjust="spacingAndGlyphs" textLength="148" x="565.5" y="127.8076">getRepo(name): repoData</text><polygon fill="#A80036" points="1422.5,158.6641,1432.5,162.6641,1422.5,166.6641,1426.5,162.6641" style="stroke: #A80036; stroke-width: 1.0;"/><line style="stroke: #A80036; stroke-width: 1.0;" x1="563.5" x2="1428.5" y1="162.6641" y2="162.6641"/><text fill="#000000" font-family="sans-serif" font-size="13" lengthAdjust="spacingAndGlyphs" textLength="238" x="570.5" y="158.1592">loadChanges(repoUrl, repoName, branch)</text><line style="stroke: #A80036; stroke-width: 1.0;" x1="563.5" x2="610.5" y1="188.3672" y2="188.3672"/><line style="stroke: #A80036; stroke-width: 1.0;" x1="610.5" x2="610.5" y1="188.3672" y2="201.3672"/><line style="stroke: #A80036; stroke-width: 1.0;" x1="569.5" x2="610.5" y1="201.3672" y2="201.3672"/><polygon fill="#A80036" points="579.5,197.3672,569.5,201.3672,579.5,205.3672,575.5,201.3672" style="stroke: #A80036; stroke-width: 1.0;"/><text fill="#000000" font-family="sans-serif" font-size="13" lengthAdjust="spacingAndGlyphs" textLength="519" x="575.5" y="183.5107">findExecutableYaml(repo, scanLocations, projectData, repoData, pullRequestId): exeYaml</text><rect fill="none" height="143.7578" style="stroke: #000000; stroke-width: 2.0;" width="1528.5" x="361" y="221.3672"/><polygon fill="#EEEEEE" points="361,221.3672,434,221.3672,434,229.3672,424,239.3672,361,239.3672,361,221.3672" style="stroke: #000000; stroke-width: 2.0;"/><text fill="#000000" font-family="sans-serif" font-size="13" font-weight="bold" lengthAdjust="spacingAndGlyphs" textLength="28" x="376" y="235.8623">loop</text><text fill="#000000" font-family="sans-serif" font-size="11" font-weight="bold" lengthAdjust="spacingAndGlyphs" textLength="147" x="449" y="234.7861">[for (yamldata in exeYaml)]</text><rect fill="none" height="111.4063" style="stroke: #000000; stroke-width: 2.0;" width="1508.5" x="371" y="246.7188"/><polygon fill="#EEEEEE" points="371,246.7188,444,246.7188,444,254.7188,434,264.7188,371,264.7188,371,246.7188" style="stroke: #000000; stroke-width: 2.0;"/><text fill="#000000" font-family="sans-serif" font-size="13" font-weight="bold" lengthAdjust="spacingAndGlyphs" textLength="28" x="386" y="261.2139">loop</text><text fill="#000000" font-family="sans-serif" font-size="11" font-weight="bold" lengthAdjust="spacingAndGlyphs" textLength="219" x="459" y="260.1377">[for (exe in yamldata.yaml.executables)]</text><polygon fill="#A80036" points="1796,283.0703,1806,287.0703,1796,291.0703,1800,287.0703" style="stroke: #A80036; stroke-width: 1.0;"/><line style="stroke: #A80036; stroke-width: 1.0;" x1="563.5" x2="1802" y1="287.0703" y2="287.0703"/><text fill="#000000" font-family="sans-serif" font-size="13" lengthAdjust="spacingAndGlyphs" textLength="156" x="570.5" y="282.5654">get(exe.type): yamlHandler</text><rect fill="none" height="48.7031" style="stroke: #000000; stroke-width: 2.0;" width="1365.5" x="381" y="302.4219"/><polygon fill="#EEEEEE" points="381,302.4219,442,302.4219,442,310.4219,432,320.4219,381,320.4219,381,302.4219" style="stroke: #000000; stroke-width: 2.0;"/><text fill="#000000" font-family="sans-serif" font-size="13" font-weight="bold" lengthAdjust="spacingAndGlyphs" textLength="16" x="396" y="316.917">alt</text><text fill="#000000" font-family="sans-serif" font-size="11" font-weight="bold" lengthAdjust="spacingAndGlyphs" textLength="111" x="457" y="315.8408">[yamlHandler != null]</text><polygon fill="#A80036" points="1593.5,338.7734,1603.5,342.7734,1593.5,346.7734,1597.5,342.7734" style="stroke: #A80036; stroke-width: 1.0;"/><line style="stroke: #A80036; stroke-width: 1.0;" x1="563.5" x2="1599.5" y1="342.7734" y2="342.7734"/><text fill="#000000" font-family="sans-serif" font-size="13" lengthAdjust="spacingAndGlyphs" textLength="316" x="570.5" y="338.2686">handleYaml(exe, repo, scanLocations, branch, project)</text></g></svg>