<?xml version="1.0" encoding="UTF-8" standalone="no"?><svg xmlns="http://www.w3.org/2000/svg" xmlns:xlink="http://www.w3.org/1999/xlink" contentScriptType="application/ecmascript" contentStyleType="text/css" height="469px" preserveAspectRatio="none" style="width:1558px;height:469px;" version="1.1" viewBox="0 0 1558 469" width="1558px" zoomAndPan="magnify"><defs><filter height="300%" id="f7igogd" width="300%" x="-1" y="-1"><feGaussianBlur result="blurOut" stdDeviation="2.0"/><feColorMatrix in="blurOut" result="blurOut2" type="matrix" values="0 0 0 0 0 0 0 0 0 0 0 0 0 0 0 0 0 0 .4 0"/><feOffset dx="4.0" dy="4.0" in="blurOut2" result="blurOut3"/><feBlend in="SourceGraphic" in2="blurOut3" mode="normal"/></filter></defs><g><!--cluster com.zions.pipeline.services.yaml.execution--><polygon fill="#FFFFFF" filter="url(#f7igogd)" points="205,24,516,24,523,47.6094,526,47.6094,526,114,205,114,205,24" style="stroke: #000000; stroke-width: 2.0;"/><line style="stroke: #000000; stroke-width: 2.0;" x1="205" x2="523" y1="47.6094" y2="47.6094"/><text fill="#000000" font-family="sans-serif" font-size="14" font-weight="bold" lengthAdjust="spacingAndGlyphs" textLength="305" x="209" y="40.5332">com.zions.pipeline.services.yaml.execution</text><!--cluster com.zions.vsts.services.admin.project--><polygon fill="#FFFFFF" filter="url(#f7igogd)" points="22,164,297,164,304,187.6094,307,187.6094,307,254,22,254,22,164" style="stroke: #000000; stroke-width: 2.0;"/><line style="stroke: #000000; stroke-width: 2.0;" x1="22" x2="304" y1="187.6094" y2="187.6094"/><text fill="#000000" font-family="sans-serif" font-size="14" font-weight="bold" lengthAdjust="spacingAndGlyphs" textLength="269" x="26" y="180.5332">com.zions.vsts.services.admin.project</text><!--cluster com.zions.pipeline.services.git--><polygon fill="#FFFFFF" filter="url(#f7igogd)" points="331,164,555,164,562,187.6094,565,187.6094,565,254,331,254,331,164" style="stroke: #000000; stroke-width: 2.0;"/><line style="stroke: #000000; stroke-width: 2.0;" x1="331" x2="562" y1="187.6094" y2="187.6094"/><text fill="#000000" font-family="sans-serif" font-size="14" font-weight="bold" lengthAdjust="spacingAndGlyphs" textLength="218" x="335" y="180.5332">com.zions.pipeline.services.git</text><!--cluster com.zions.pipeline.services.yaml.template.execution--><polygon fill="#FFFFFF" filter="url(#f7igogd)" points="589,24,965,24,972,47.6094,1325,47.6094,1325,438,589,438,589,24" style="stroke: #000000; stroke-width: 2.0;"/><line style="stroke: #000000; stroke-width: 2.0;" x1="589" x2="972" y1="47.6094" y2="47.6094"/><text fill="#000000" font-family="sans-serif" font-size="14" font-weight="bold" lengthAdjust="spacingAndGlyphs" textLength="370" x="593" y="40.5332">com.zions.pipeline.services.yaml.template.execution</text><!--cluster GIT Repository--><rect fill="#FFFFFF" filter="url(#f7igogd)" height="158" rx="35" ry="35" style="stroke: #000000; stroke-width: 2.0;" width="202" x="1349" y="304"/><text fill="#000000" font-family="sans-serif" font-size="14" font-weight="bold" lengthAdjust="spacingAndGlyphs" textLength="103" x="1398.5" y="325.5332">GIT Repository</text><!--cluster pipeline--><polygon fill="#FFFFFF" filter="url(#f7igogd)" points="1373,348,1436,348,1443,371.6094,1527,371.6094,1527,438,1373,438,1373,348" style="stroke: #000000; stroke-width: 2.0;"/><line style="stroke: #000000; stroke-width: 2.0;" x1="1373" x2="1443" y1="371.6094" y2="371.6094"/><text fill="#000000" font-family="sans-serif" font-size="14" font-weight="bold" lengthAdjust="spacingAndGlyphs" textLength="57" x="1377" y="364.5332">pipeline</text><!--entity YES--><rect fill="#FEFECE" filter="url(#f7igogd)" height="37.6094" style="stroke: #A80036; stroke-width: 1.5;" width="159" x="315.5" y="60"/><rect fill="#FEFECE" height="5" style="stroke: #A80036; stroke-width: 1.5;" width="10" x="310.5" y="65"/><rect fill="#FEFECE" height="5" style="stroke: #A80036; stroke-width: 1.5;" width="10" x="310.5" y="87.6094"/><a target="_top" xlink:actuate="onRequest" xlink:href="https://dev.azure.com/zionseto/DTS/_git/zions-service-framework?path=%2Fzions-pipeline-services%2Fsrc%2Fmain%2Fgroovy%2Fcom%2Fzions%2Fpipeline%2Fservices%2Fyaml%2Fexecution%2FYamlExecutionService.groovy" xlink:show="new" xlink:title="https://dev.azure.com/zionseto/DTS/_git/zions-service-framework?path=%2Fzions-pipeline-services%2Fsrc%2Fmain%2Fgroovy%2Fcom%2Fzions%2Fpipeline%2Fservices%2Fyaml%2Fexecution%2FYamlExecutionService.groovy" xlink:type="simple"><text fill="#0000FF" font-family="sans-serif" font-size="14" lengthAdjust="spacingAndGlyphs" text-decoration="underline" textLength="139" x="325.5" y="84.5332">YamlExecutionService</text><line style="stroke: #0000FF; stroke-width: 1.0;" x1="325.5" x2="464.5" y1="86.5332" y2="86.5332"/></a><!--entity PMS--><rect fill="#FEFECE" filter="url(#f7igogd)" height="37.6094" style="stroke: #A80036; stroke-width: 1.5;" width="193" x="97.5" y="200"/><rect fill="#FEFECE" height="5" style="stroke: #A80036; stroke-width: 1.5;" width="10" x="92.5" y="205"/><rect fill="#FEFECE" height="5" style="stroke: #A80036; stroke-width: 1.5;" width="10" x="92.5" y="227.6094"/><text fill="#000000" font-family="sans-serif" font-size="14" lengthAdjust="spacingAndGlyphs" textLength="173" x="107.5" y="224.5332">ProjectManagementService</text><!--entity GS--><rect fill="#FEFECE" filter="url(#f7igogd)" height="37.6094" style="stroke: #A80036; stroke-width: 1.5;" width="85" x="352.5" y="200"/><rect fill="#FEFECE" height="5" style="stroke: #A80036; stroke-width: 1.5;" width="10" x="347.5" y="205"/><rect fill="#FEFECE" height="5" style="stroke: #A80036; stroke-width: 1.5;" width="10" x="347.5" y="227.6094"/><text fill="#000000" font-family="sans-serif" font-size="14" lengthAdjust="spacingAndGlyphs" textLength="65" x="362.5" y="224.5332">GitService</text><!--entity IExecutableYamlHandler--><ellipse cx="974" cy="210" fill="#FEFECE" filter="url(#f7igogd)" rx="8" ry="8" style="stroke: #A80036; stroke-width: 2.0;"/><text fill="#000000" font-family="sans-serif" font-size="14" lengthAdjust="spacingAndGlyphs" textLength="152" x="898" y="233.5332">IExecutableYamlHandler</text><!--entity BP--><rect fill="#FEFECE" filter="url(#f7igogd)" height="37.6094" style="stroke: #A80036; stroke-width: 1.5;" width="102" x="1207" y="60"/><rect fill="#FEFECE" height="5" style="stroke: #A80036; stroke-width: 1.5;" width="10" x="1202" y="65"/><rect fill="#FEFECE" height="5" style="stroke: #A80036; stroke-width: 1.5;" width="10" x="1202" y="87.6094"/><a target="_top" xlink:actuate="onRequest" xlink:href="https://dev.azure.com/zionseto/DTS/_git/zions-service-framework?path=%2Fzions-pipeline-services%2Fsrc%2Fmain%2Fgroovy%2Fcom%2Fzions%2Fpipeline%2Fservices%2Fyaml%2Ftemplate%2Fexecution%2FBranchPolicy.groovy" xlink:show="new" xlink:title="https://dev.azure.com/zionseto/DTS/_git/zions-service-framework?path=%2Fzions-pipeline-services%2Fsrc%2Fmain%2Fgroovy%2Fcom%2Fzions%2Fpipeline%2Fservices%2Fyaml%2Ftemplate%2Fexecution%2FBranchPolicy.groovy" xlink:type="simple"><text fill="#0000FF" font-family="sans-serif" font-size="14" lengthAdjust="spacingAndGlyphs" text-decoration="underline" textLength="82" x="1217" y="84.5332">BranchPolicy</text><line style="stroke: #0000FF; stroke-width: 1.0;" x1="1217" x2="1299" y1="86.5332" y2="86.5332"/></a><!--entity BD--><rect fill="#FEFECE" filter="url(#f7igogd)" height="37.6094" style="stroke: #A80036; stroke-width: 1.5;" width="110" x="1062" y="60"/><rect fill="#FEFECE" height="5" style="stroke: #A80036; stroke-width: 1.5;" width="10" x="1057" y="65"/><rect fill="#FEFECE" height="5" style="stroke: #A80036; stroke-width: 1.5;" width="10" x="1057" y="87.6094"/><a target="_top" xlink:actuate="onRequest" xlink:href="https://dev.azure.com/zionseto/DTS/_git/zions-service-framework?path=%2Fzions-pipeline-services%2Fsrc%2Fmain%2Fgroovy%2Fcom%2Fzions%2Fpipeline%2Fservices%2Fyaml%2Ftemplate%2Fexecution%2FBuildDefinition.groovy" xlink:show="new" xlink:title="https://dev.azure.com/zionseto/DTS/_git/zions-service-framework?path=%2Fzions-pipeline-services%2Fsrc%2Fmain%2Fgroovy%2Fcom%2Fzions%2Fpipeline%2Fservices%2Fyaml%2Ftemplate%2Fexecution%2FBuildDefinition.groovy" xlink:type="simple"><text fill="#0000FF" font-family="sans-serif" font-size="14" lengthAdjust="spacingAndGlyphs" text-decoration="underline" textLength="90" x="1072" y="84.5332">BuildDefinition</text><line style="stroke: #0000FF; stroke-width: 1.0;" x1="1072" x2="1162" y1="86.5332" y2="86.5332"/></a><!--entity GR--><rect fill="#FEFECE" filter="url(#f7igogd)" height="37.6094" style="stroke: #A80036; stroke-width: 1.5;" width="106" x="921" y="60"/><rect fill="#FEFECE" height="5" style="stroke: #A80036; stroke-width: 1.5;" width="10" x="916" y="65"/><rect fill="#FEFECE" height="5" style="stroke: #A80036; stroke-width: 1.5;" width="10" x="916" y="87.6094"/><a target="_top" xlink:actuate="onRequest" xlink:href="https://dev.azure.com/zionseto/DTS/_git/zions-service-framework?path=%2Fzions-pipeline-services%2Fsrc%2Fmain%2Fgroovy%2Fcom%2Fzions%2Fpipeline%2Fservices%2Fyaml%2Ftemplate%2Fexecution%2FGitRepository.groovy" xlink:show="new" xlink:title="https://dev.azure.com/zionseto/DTS/_git/zions-service-framework?path=%2Fzions-pipeline-services%2Fsrc%2Fmain%2Fgroovy%2Fcom%2Fzions%2Fpipeline%2Fservices%2Fyaml%2Ftemplate%2Fexecution%2FGitRepository.groovy" xlink:type="simple"><text fill="#0000FF" font-family="sans-serif" font-size="14" lengthAdjust="spacingAndGlyphs" text-decoration="underline" textLength="86" x="931" y="84.5332">GitRepository</text><line style="stroke: #0000FF; stroke-width: 1.0;" x1="931" x2="1017" y1="86.5332" y2="86.5332"/></a><!--entity RXLB--><rect fill="#FEFECE" filter="url(#f7igogd)" height="37.6094" style="stroke: #A80036; stroke-width: 1.5;" width="125" x="627.5" y="384"/><rect fill="#FEFECE" height="5" style="stroke: #A80036; stroke-width: 1.5;" width="10" x="622.5" y="389"/><rect fill="#FEFECE" height="5" style="stroke: #A80036; stroke-width: 1.5;" width="10" x="622.5" y="411.6094"/><a target="_top" xlink:actuate="onRequest" xlink:href="https://dev.azure.com/zionseto/DTS/_git/zions-service-framework?path=%2Fzions-pipeline-services%2Fsrc%2Fmain%2Fgroovy%2Fcom%2Fzions%2Fpipeline%2Fservices%2Fyaml%2Ftemplate%2Fexecution%2FRunXLBlueprints.groovy" xlink:show="new" xlink:title="https://dev.azure.com/zionseto/DTS/_git/zions-service-framework?path=%2Fzions-pipeline-services%2Fsrc%2Fmain%2Fgroovy%2Fcom%2Fzions%2Fpipeline%2Fservices%2Fyaml%2Ftemplate%2Fexecution%2FRunXLBlueprints.groovy" xlink:type="simple"><text fill="#0000FF" font-family="sans-serif" font-size="14" lengthAdjust="spacingAndGlyphs" text-decoration="underline" textLength="105" x="637.5" y="408.5332">RunXLBlueprints</text><line style="stroke: #0000FF; stroke-width: 1.0;" x1="637.5" x2="742.5" y1="410.5332" y2="410.5332"/></a><!--entity RXLDA--><rect fill="#FEFECE" filter="url(#f7igogd)" height="37.6094" style="stroke: #A80036; stroke-width: 1.5;" width="141" x="787.5" y="384"/><rect fill="#FEFECE" height="5" style="stroke: #A80036; stroke-width: 1.5;" width="10" x="782.5" y="389"/><rect fill="#FEFECE" height="5" style="stroke: #A80036; stroke-width: 1.5;" width="10" x="782.5" y="411.6094"/><a target="_top" xlink:actuate="onRequest" xlink:href="https://dev.azure.com/zionseto/DTS/_git/zions-service-framework?path=%2Fzions-pipeline-services%2Fsrc%2Fmain%2Fgroovy%2Fcom%2Fzions%2Fpipeline%2Fservices%2Fyaml%2Ftemplate%2Fexecution%2FRunXLDeployApply.groovy" xlink:show="new" xlink:title="https://dev.azure.com/zionseto/DTS/_git/zions-service-framework?path=%2Fzions-pipeline-services%2Fsrc%2Fmain%2Fgroovy%2Fcom%2Fzions%2Fpipeline%2Fservices%2Fyaml%2Ftemplate%2Fexecution%2FRunXLDeployApply.groovy" xlink:type="simple"><text fill="#0000FF" font-family="sans-serif" font-size="14" lengthAdjust="spacingAndGlyphs" text-decoration="underline" textLength="121" x="797.5" y="408.5332">RunXLDeployApply</text><line style="stroke: #0000FF; stroke-width: 1.0;" x1="797.5" x2="918.5" y1="410.5332" y2="410.5332"/></a><!--entity RXLRA--><rect fill="#FEFECE" filter="url(#f7igogd)" height="37.6094" style="stroke: #A80036; stroke-width: 1.5;" width="149" x="963.5" y="384"/><rect fill="#FEFECE" height="5" style="stroke: #A80036; stroke-width: 1.5;" width="10" x="958.5" y="389"/><rect fill="#FEFECE" height="5" style="stroke: #A80036; stroke-width: 1.5;" width="10" x="958.5" y="411.6094"/><a target="_top" xlink:actuate="onRequest" xlink:href="https://dev.azure.com/zionseto/DTS/_git/zions-service-framework?path=%2Fzions-pipeline-services%2Fsrc%2Fmain%2Fgroovy%2Fcom%2Fzions%2Fpipeline%2Fservices%2Fyaml%2Ftemplate%2Fexecution%2FRunXLReleaseApply.groovy" xlink:show="new" xlink:title="https://dev.azure.com/zionseto/DTS/_git/zions-service-framework?path=%2Fzions-pipeline-services%2Fsrc%2Fmain%2Fgroovy%2Fcom%2Fzions%2Fpipeline%2Fservices%2Fyaml%2Ftemplate%2Fexecution%2FRunXLReleaseApply.groovy" xlink:type="simple"><text fill="#0000FF" font-family="sans-serif" font-size="14" lengthAdjust="spacingAndGlyphs" text-decoration="underline" textLength="129" x="973.5" y="408.5332">RunXLReleaseApply</text><line style="stroke: #0000FF; stroke-width: 1.0;" x1="973.5" x2="1102.5" y1="410.5332" y2="410.5332"/></a><!--entity WI--><rect fill="#FEFECE" filter="url(#f7igogd)" height="37.6094" style="stroke: #A80036; stroke-width: 1.5;" width="79" x="806.5" y="60"/><rect fill="#FEFECE" height="5" style="stroke: #A80036; stroke-width: 1.5;" width="10" x="801.5" y="65"/><rect fill="#FEFECE" height="5" style="stroke: #A80036; stroke-width: 1.5;" width="10" x="801.5" y="87.6094"/><a target="_top" xlink:actuate="onRequest" xlink:href="https://dev.azure.com/zionseto/DTS/_git/zions-service-framework?path=%2Fzions-pipeline-services%2Fsrc%2Fmain%2Fgroovy%2Fcom%2Fzions%2Fpipeline%2Fservices%2Fyaml%2Ftemplate%2Fexecution%2FWorkItem.groovy" xlink:show="new" xlink:title="https://dev.azure.com/zionseto/DTS/_git/zions-service-framework?path=%2Fzions-pipeline-services%2Fsrc%2Fmain%2Fgroovy%2Fcom%2Fzions%2Fpipeline%2Fservices%2Fyaml%2Ftemplate%2Fexecution%2FWorkItem.groovy" xlink:type="simple"><text fill="#0000FF" font-family="sans-serif" font-size="14" lengthAdjust="spacingAndGlyphs" text-decoration="underline" textLength="59" x="816.5" y="84.5332">WorkItem</text><line style="stroke: #0000FF; stroke-width: 1.0;" x1="816.5" x2="875.5" y1="86.5332" y2="86.5332"/></a><!--entity SC--><rect fill="#FEFECE" filter="url(#f7igogd)" height="37.6094" style="stroke: #A80036; stroke-width: 1.5;" width="139" x="1147.5" y="384"/><rect fill="#FEFECE" height="5" style="stroke: #A80036; stroke-width: 1.5;" width="10" x="1142.5" y="389"/><rect fill="#FEFECE" height="5" style="stroke: #A80036; stroke-width: 1.5;" width="10" x="1142.5" y="411.6094"/><text fill="#000000" font-family="sans-serif" font-size="14" lengthAdjust="spacingAndGlyphs" textLength="119" x="1157.5" y="408.5332">ServiceConnection</text><!--entity WHS--><rect fill="#FEFECE" filter="url(#f7igogd)" height="37.6094" style="stroke: #A80036; stroke-width: 1.5;" width="166" x="605" y="60"/><rect fill="#FEFECE" height="5" style="stroke: #A80036; stroke-width: 1.5;" width="10" x="600" y="65"/><rect fill="#FEFECE" height="5" style="stroke: #A80036; stroke-width: 1.5;" width="10" x="600" y="87.6094"/><text fill="#000000" font-family="sans-serif" font-size="14" lengthAdjust="spacingAndGlyphs" textLength="146" x="615" y="84.5332">WebHookSubscriptions</text><!--entity ey--><polygon fill="#FEFECE" filter="url(#f7igogd)" points="1389.5,384,1389.5,421.6094,1510.5,421.6094,1510.5,394,1500.5,384,1389.5,384" style="stroke: #000000; stroke-width: 1.5;"/><path d="M1500.5,384 L1500.5,394 L1510.5,394 " fill="#FEFECE" style="stroke: #000000; stroke-width: 1.5;"/><text fill="#000000" font-family="sans-serif" font-size="14" lengthAdjust="spacingAndGlyphs" textLength="101" x="1399.5" y="408.5332">executable.yaml</text><path d="M1230.7,98.03 C1218.48,105.798 1203.74,114.744 1190,122 C1133.63,151.762 1066.14,180.752 1021.78,198.949 " fill="none" style="stroke: #A80036; stroke-width: 1.0;"/><polygon fill="#A80036" points="1017.02,200.895,1026.8641,201.2026,1021.6503,199.008,1023.8449,193.7942,1017.02,200.895" style="stroke: #A80036; stroke-width: 1.0;"/><path d="M1098.31,98.041 C1071.79,123.632 1023.37,170.352 995.435,197.315 " fill="none" style="stroke: #A80036; stroke-width: 1.0;"/><polygon fill="#A80036" points="991.799,200.823,1001.0521,197.4496,995.3961,197.3502,995.4956,191.6942,991.799,200.823" style="stroke: #A80036; stroke-width: 1.0;"/><path d="M974,98.041 C974,123.11 974,168.454 974,195.639 " fill="none" style="stroke: #A80036; stroke-width: 1.0;"/><polygon fill="#A80036" points="974,200.823,978,191.823,974,195.823,970,191.823,974,200.823" style="stroke: #A80036; stroke-width: 1.0;"/><path d="M893.834,238.434 C853.932,250.323 806.547,268.764 770,296 C737.833,319.972 712.435,360.327 699.465,383.719 " fill="none" style="stroke: #A80036; stroke-width: 1.0;"/><polygon fill="#A80036" points="898.662,237.017,888.8996,235.7146,893.8645,238.4257,891.1535,243.3906,898.662,237.017" style="stroke: #A80036; stroke-width: 1.0;"/><path d="M960.394,241.347 C937.34,277.518 891.01,350.209 869.482,383.9851 " fill="none" style="stroke: #A80036; stroke-width: 1.0;"/><polygon fill="#A80036" points="963.087,237.122,954.8764,242.5613,960.3995,241.3383,961.6225,246.8614,963.087,237.122" style="stroke: #A80036; stroke-width: 1.0;"/><path d="M981.819,242.237 C994.641,278.698 1019.88,350.483 1031.67,383.9851 " fill="none" style="stroke: #A80036; stroke-width: 1.0;"/><polygon fill="#A80036" points="980.021,237.122,979.2354,246.9395,981.6808,241.8385,986.7818,244.2838,980.021,237.122" style="stroke: #A80036; stroke-width: 1.0;"/><path d="M1026.72,239.011 C1058.58,252.056 1098.9,271.442 1130,296 C1162.32,321.526 1190.69,360.96 1205.69,383.8474 " fill="none" style="stroke: #A80036; stroke-width: 1.0;"/><polygon fill="#A80036" points="1022.08,237.133,1028.9275,244.212,1026.7162,239.0052,1031.923,236.794,1022.08,237.133" style="stroke: #A80036; stroke-width: 1.0;"/><path d="M723.533,98.02 C742.481,106.786 766.475,116.579 789,122 C811.105,127.32 870.492,120.183 891,130 C906.937,137.629 937.782,173.247 957.052,196.765 " fill="none" style="stroke: #A80036; stroke-width: 1.0;"/><polygon fill="#A80036" points="960.275,200.718,957.6862,191.2155,957.1147,196.8434,951.4868,196.2719,960.275,200.718" style="stroke: #A80036; stroke-width: 1.0;"/><path d="M869.479,98.123 C879.837,105.822 892.296,114.689 904,122 C910.408,126.003 913.477,124.844 919,130 C939.274,148.928 955.055,176.916 964.414,196.222 " fill="none" style="stroke: #A80036; stroke-width: 1.0;"/><polygon fill="#A80036" points="966.654,200.932,966.4017,191.0864,964.5069,196.4165,959.1769,194.5217,966.654,200.932" style="stroke: #A80036; stroke-width: 1.0;"/><path d="M439.741,98.058 C463.089,107.514 492.11,119.319 518,130 C537.152,137.901 541.101,142.231 561,148 C673.827,180.709 808.703,200.01 892.881,209.801 " fill="none" style="stroke: #A80036; stroke-width: 1.0;"/><polygon fill="#A80036" points="897.85,210.375,889.3675,205.3702,892.8829,209.8022,888.451,213.3175,897.85,210.375" style="stroke: #A80036; stroke-width: 1.0;"/><text fill="#000000" font-family="sans-serif" font-size="13" lengthAdjust="spacingAndGlyphs" textLength="320" x="562" y="144.4951">Execute yaml handler on executable yaml file from GIT.</text><path d="M332.331,98.046 C311.079,105.886 287.944,116.436 269,130 C243.963,147.926 222.002,175.966 208.42,195.563 " fill="none" style="stroke: #A80036; stroke-width: 1.0;"/><polygon fill="#A80036" points="205.484,199.856,213.8653,194.6836,208.3058,195.7283,207.2611,190.1688,205.484,199.856" style="stroke: #A80036; stroke-width: 1.0;"/><text fill="#000000" font-family="sans-serif" font-size="13" lengthAdjust="spacingAndGlyphs" textLength="116" x="270" y="144.4951">Access project data</text><path d="M395,98.041 C395,122.836 395,167.466 395,194.742 " fill="none" style="stroke: #A80036; stroke-width: 1.0;"/><polygon fill="#A80036" points="395,199.954,399,190.954,395,194.954,391,190.954,395,199.954" style="stroke: #A80036; stroke-width: 1.0;"/><text fill="#000000" font-family="sans-serif" font-size="13" lengthAdjust="spacingAndGlyphs" textLength="113" x="396" y="144.4951">Load GIT repository</text><path d="M1050.09,225.725 C1123.66,233.682 1236.65,252.417 1325,296 C1367.63,317.03 1407.85,355.755 1430.66,380.123 " fill="none" style="stroke: #A80036; stroke-width: 1.0;"/><polygon fill="#A80036" points="1434.17,383.9058,1430.9898,374.5845,1430.7728,380.2372,1425.1201,380.0201,1434.17,383.9058" style="stroke: #A80036; stroke-width: 1.0;"/><text fill="#000000" font-family="sans-serif" font-size="13" lengthAdjust="spacingAndGlyphs" textLength="220" x="1308" y="284.4951">Executable yaml file in GIT repository.</text></g></svg>