<?xml version="1.0" encoding="UTF-8" standalone="no"?><svg xmlns="http://www.w3.org/2000/svg" xmlns:xlink="http://www.w3.org/1999/xlink" contentScriptType="application/ecmascript" contentStyleType="text/css" height="421px" preserveAspectRatio="none" style="width:2309px;height:421px;" version="1.1" viewBox="0 0 2309 421" width="2309px" zoomAndPan="magnify"><defs><filter height="300%" id="fuw5o48" width="300%" x="-1" y="-1"><feGaussianBlur result="blurOut" stdDeviation="2.0"/><feColorMatrix in="blurOut" result="blurOut2" type="matrix" values="0 0 0 0 0 0 0 0 0 0 0 0 0 0 0 0 0 0 .4 0"/><feOffset dx="4.0" dy="4.0" in="blurOut2" result="blurOut3"/><feBlend in="SourceGraphic" in2="blurOut3" mode="normal"/></filter></defs><g><rect fill="#FFFFFF" filter="url(#fuw5o48)" height="209.4609" style="stroke: #A80036; stroke-width: 1.0;" width="10" x="639.5" y="162.6641"/><rect fill="#FFFFFF" filter="url(#fuw5o48)" height="157.1094" style="stroke: #A80036; stroke-width: 1.0;" width="10" x="2016" y="201.0156"/><rect fill="#FFFFFF" filter="url(#fuw5o48)" height="143.7578" style="stroke: #000000; stroke-width: 2.0;" width="1853" x="447" y="221.3672"/><rect fill="#FFFFFF" filter="url(#fuw5o48)" height="111.4063" style="stroke: #000000; stroke-width: 2.0;" width="1833" x="457" y="246.7188"/><rect fill="#FFFFFF" filter="url(#fuw5o48)" height="48.7031" style="stroke: #000000; stroke-width: 2.0;" width="1690" x="467" y="302.4219"/><line style="stroke: #A80036; stroke-width: 1.0; stroke-dasharray: 5.0,5.0;" x1="186" x2="186" y1="39.6094" y2="382.125"/><line style="stroke: #A80036; stroke-width: 1.0; stroke-dasharray: 5.0,5.0;" x1="644" x2="644" y1="39.6094" y2="382.125"/><line style="stroke: #A80036; stroke-width: 1.0; stroke-dasharray: 5.0,5.0;" x1="1187" x2="1187" y1="39.6094" y2="382.125"/><line style="stroke: #A80036; stroke-width: 1.0; stroke-dasharray: 5.0,5.0;" x1="1553" x2="1553" y1="39.6094" y2="382.125"/><line style="stroke: #A80036; stroke-width: 1.0; stroke-dasharray: 5.0,5.0;" x1="1810" x2="1810" y1="39.6094" y2="382.125"/><line style="stroke: #A80036; stroke-width: 1.0; stroke-dasharray: 5.0,5.0;" x1="2021" x2="2021" y1="39.6094" y2="382.125"/><line style="stroke: #A80036; stroke-width: 1.0; stroke-dasharray: 5.0,5.0;" x1="2218" x2="2218" y1="39.6094" y2="382.125"/><rect fill="#FEFECE" filter="url(#fuw5o48)" height="31.6094" style="stroke: #A80036; stroke-width: 1.5;" width="353" x="8" y="3"/><text fill="#000000" font-family="sans-serif" font-size="14" lengthAdjust="spacingAndGlyphs" textLength="339" x="15" y="24.5332">PipelineExecutionEndPoint:pipelineExecutionEndPoint</text><rect fill="#FEFECE" filter="url(#fuw5o48)" height="31.6094" style="stroke: #A80036; stroke-width: 1.5;" width="353" x="8" y="381.125"/><text fill="#000000" font-family="sans-serif" font-size="14" lengthAdjust="spacingAndGlyphs" textLength="339" x="15" y="402.6582">PipelineExecutionEndPoint:pipelineExecutionEndPoint</text><rect fill="#FEFECE" filter="url(#fuw5o48)" height="31.6094" style="stroke: #A80036; stroke-width: 1.5;" width="331" x="477" y="3"/><text fill="#000000" font-family="sans-serif" font-size="14" font-weight="bold" lengthAdjust="spacingAndGlyphs" textLength="317" x="484" y="24.5332">YamlExecutionService:yamlExecutionService</text><rect fill="#FEFECE" filter="url(#fuw5o48)" height="31.6094" style="stroke: #A80036; stroke-width: 1.5;" width="331" x="477" y="381.125"/><text fill="#000000" font-family="sans-serif" font-size="14" font-weight="bold" lengthAdjust="spacingAndGlyphs" textLength="317" x="484" y="402.6582">YamlExecutionService:yamlExecutionService</text><rect fill="#FEFECE" filter="url(#fuw5o48)" height="31.6094" style="stroke: #A80036; stroke-width: 1.5;" width="363" x="1004" y="3"/><text fill="#000000" font-family="sans-serif" font-size="14" lengthAdjust="spacingAndGlyphs" textLength="349" x="1011" y="24.5332">ProjectManagementService:projectManagementService</text><rect fill="#FEFECE" filter="url(#fuw5o48)" height="31.6094" style="stroke: #A80036; stroke-width: 1.5;" width="363" x="1004" y="381.125"/><text fill="#000000" font-family="sans-serif" font-size="14" lengthAdjust="spacingAndGlyphs" textLength="349" x="1011" y="402.6582">ProjectManagementService:projectManagementService</text><rect fill="#FEFECE" filter="url(#fuw5o48)" height="31.6094" style="stroke: #A80036; stroke-width: 1.5;" width="341" x="1381" y="3"/><text fill="#000000" font-family="sans-serif" font-size="14" lengthAdjust="spacingAndGlyphs" textLength="327" x="1388" y="24.5332">CodeManagementService:codeManagementService</text><rect fill="#FEFECE" filter="url(#fuw5o48)" height="31.6094" style="stroke: #A80036; stroke-width: 1.5;" width="341" x="1381" y="381.125"/><text fill="#000000" font-family="sans-serif" font-size="14" lengthAdjust="spacingAndGlyphs" textLength="327" x="1388" y="402.6582">CodeManagementService:codeManagementService</text><rect fill="#FEFECE" filter="url(#fuw5o48)" height="31.6094" style="stroke: #A80036; stroke-width: 1.5;" width="145" x="1736" y="3"/><text fill="#000000" font-family="sans-serif" font-size="14" lengthAdjust="spacingAndGlyphs" textLength="131" x="1743" y="24.5332">GitService:gitService</text><rect fill="#FEFECE" filter="url(#fuw5o48)" height="31.6094" style="stroke: #A80036; stroke-width: 1.5;" width="145" x="1736" y="381.125"/><text fill="#000000" font-family="sans-serif" font-size="14" lengthAdjust="spacingAndGlyphs" textLength="131" x="1743" y="402.6582">GitService:gitService</text><rect fill="#FEFECE" filter="url(#fuw5o48)" height="31.6094" style="stroke: #A80036; stroke-width: 1.5;" width="248" x="1895" y="3"/><text fill="#000000" font-family="sans-serif" font-size="14" lengthAdjust="spacingAndGlyphs" textLength="234" x="1902" y="24.5332">IExecutableYamlHandler:yamlHandler</text><rect fill="#FEFECE" filter="url(#fuw5o48)" height="31.6094" style="stroke: #A80036; stroke-width: 1.5;" width="248" x="1895" y="381.125"/><text fill="#000000" font-family="sans-serif" font-size="14" lengthAdjust="spacingAndGlyphs" textLength="234" x="1902" y="402.6582">IExecutableYamlHandler:yamlHandler</text><rect fill="#FEFECE" filter="url(#fuw5o48)" height="31.6094" style="stroke: #A80036; stroke-width: 1.5;" width="119" x="2157" y="3"/><text fill="#000000" font-family="sans-serif" font-size="14" lengthAdjust="spacingAndGlyphs" textLength="105" x="2164" y="24.5332">yamlHandlerMap</text><rect fill="#FEFECE" filter="url(#fuw5o48)" height="31.6094" style="stroke: #A80036; stroke-width: 1.5;" width="119" x="2157" y="381.125"/><text fill="#000000" font-family="sans-serif" font-size="14" lengthAdjust="spacingAndGlyphs" textLength="105" x="2164" y="402.6582">yamlHandlerMap</text><rect fill="#FFFFFF" filter="url(#fuw5o48)" height="209.4609" style="stroke: #A80036; stroke-width: 1.0;" width="10" x="639.5" y="162.6641"/><rect fill="#FFFFFF" filter="url(#fuw5o48)" height="157.1094" style="stroke: #A80036; stroke-width: 1.0;" width="10" x="2016" y="201.0156"/><polygon fill="#A80036" points="632.5,67.6094,642.5,71.6094,632.5,75.6094,636.5,71.6094" style="stroke: #A80036; stroke-width: 1.0;"/><line style="stroke: #A80036; stroke-width: 1.0;" x1="186.5" x2="638.5" y1="71.6094" y2="71.6094"/><text fill="#000000" font-family="sans-serif" font-size="13" lengthAdjust="spacingAndGlyphs" textLength="434" x="193.5" y="67.1045">runExecutableYaml(repoUrl,name,locations, branch, project, pullRequestId)</text><polygon fill="#A80036" points="1175.5,97.9609,1185.5,101.9609,1175.5,105.9609,1179.5,101.9609" style="stroke: #A80036; stroke-width: 1.0;"/><line style="stroke: #A80036; stroke-width: 1.0;" x1="644.5" x2="1181.5" y1="101.9609" y2="101.9609"/><text fill="#000000" font-family="sans-serif" font-size="13" lengthAdjust="spacingAndGlyphs" textLength="173" x="651.5" y="97.4561">getProject(name): projectData</text><polygon fill="#A80036" points="1541.5,128.3125,1551.5,132.3125,1541.5,136.3125,1545.5,132.3125" style="stroke: #A80036; stroke-width: 1.0;"/><line style="stroke: #A80036; stroke-width: 1.0;" x1="644.5" x2="1547.5" y1="132.3125" y2="132.3125"/><text fill="#000000" font-family="sans-serif" font-size="13" lengthAdjust="spacingAndGlyphs" textLength="148" x="651.5" y="127.8076">getRepo(name): repoData</text><polygon fill="#A80036" points="1798.5,158.6641,1808.5,162.6641,1798.5,166.6641,1802.5,162.6641" style="stroke: #A80036; stroke-width: 1.0;"/><line style="stroke: #A80036; stroke-width: 1.0;" x1="649.5" x2="1804.5" y1="162.6641" y2="162.6641"/><text fill="#000000" font-family="sans-serif" font-size="13" lengthAdjust="spacingAndGlyphs" textLength="238" x="656.5" y="158.1592">loadChanges(repoUrl, repoName, branch)</text><line style="stroke: #A80036; stroke-width: 1.0;" x1="649.5" x2="696.5" y1="188.3672" y2="188.3672"/><line style="stroke: #A80036; stroke-width: 1.0;" x1="696.5" x2="696.5" y1="188.3672" y2="201.3672"/><line style="stroke: #A80036; stroke-width: 1.0;" x1="655.5" x2="696.5" y1="201.3672" y2="201.3672"/><polygon fill="#A80036" points="665.5,197.3672,655.5,201.3672,665.5,205.3672,661.5,201.3672" style="stroke: #A80036; stroke-width: 1.0;"/><text fill="#000000" font-family="sans-serif" font-size="13" lengthAdjust="spacingAndGlyphs" textLength="519" x="661.5" y="183.5107">findExecutableYaml(repo, scanLocations, projectData, repoData, pullRequestId): exeYaml</text><rect fill="none" height="143.7578" style="stroke: #000000; stroke-width: 2.0;" width="1853" x="447" y="221.3672"/><polygon fill="#EEEEEE" points="447,221.3672,520,221.3672,520,229.3672,510,239.3672,447,239.3672,447,221.3672" style="stroke: #000000; stroke-width: 2.0;"/><text fill="#000000" font-family="sans-serif" font-size="13" font-weight="bold" lengthAdjust="spacingAndGlyphs" textLength="28" x="462" y="235.8623">loop</text><text fill="#000000" font-family="sans-serif" font-size="11" font-weight="bold" lengthAdjust="spacingAndGlyphs" textLength="147" x="535" y="234.7861">[for (yamldata in exeYaml)]</text><rect fill="none" height="111.4063" style="stroke: #000000; stroke-width: 2.0;" width="1833" x="457" y="246.7188"/><polygon fill="#EEEEEE" points="457,246.7188,530,246.7188,530,254.7188,520,264.7188,457,264.7188,457,246.7188" style="stroke: #000000; stroke-width: 2.0;"/><text fill="#000000" font-family="sans-serif" font-size="13" font-weight="bold" lengthAdjust="spacingAndGlyphs" textLength="28" x="472" y="261.2139">loop</text><text fill="#000000" font-family="sans-serif" font-size="11" font-weight="bold" lengthAdjust="spacingAndGlyphs" textLength="219" x="545" y="260.1377">[for (exe in yamldata.yaml.executables)]</text><polygon fill="#A80036" points="2206.5,283.0703,2216.5,287.0703,2206.5,291.0703,2210.5,287.0703" style="stroke: #A80036; stroke-width: 1.0;"/><line style="stroke: #A80036; stroke-width: 1.0;" x1="649.5" x2="2212.5" y1="287.0703" y2="287.0703"/><text fill="#000000" font-family="sans-serif" font-size="13" lengthAdjust="spacingAndGlyphs" textLength="156" x="656.5" y="282.5654">get(exe.type): yamlHandler</text><rect fill="none" height="48.7031" style="stroke: #000000; stroke-width: 2.0;" width="1690" x="467" y="302.4219"/><polygon fill="#EEEEEE" points="467,302.4219,528,302.4219,528,310.4219,518,320.4219,467,320.4219,467,302.4219" style="stroke: #000000; stroke-width: 2.0;"/><text fill="#000000" font-family="sans-serif" font-size="13" font-weight="bold" lengthAdjust="spacingAndGlyphs" textLength="16" x="482" y="316.917">alt</text><text fill="#000000" font-family="sans-serif" font-size="11" font-weight="bold" lengthAdjust="spacingAndGlyphs" textLength="111" x="543" y="315.8408">[yamlHandler != null]</text><polygon fill="#A80036" points="2004,338.7734,2014,342.7734,2004,346.7734,2008,342.7734" style="stroke: #A80036; stroke-width: 1.0;"/><line style="stroke: #A80036; stroke-width: 1.0;" x1="649.5" x2="2010" y1="342.7734" y2="342.7734"/><text fill="#000000" font-family="sans-serif" font-size="13" lengthAdjust="spacingAndGlyphs" textLength="316" x="656.5" y="338.2686">handleYaml(exe, repo, scanLocations, branch, project)</text></g></svg>